<?xml version="1.0" encoding="utf-8"?>
<!-- Generator: Adobe Illustrator 27.5.0, SVG Export Plug-In . SVG Version: 6.00 Build 0)  -->
<svg version="1.1" xmlns="http://www.w3.org/2000/svg" xmlns:xlink="http://www.w3.org/1999/xlink" x="0px" y="0px"
	 viewBox="0 0 750 500" style="enable-background:new 0 0 750 500;" xml:space="preserve">
<g id="BACKGROUND">
	<rect style="fill:#FFFFFF;" width="750" height="500"/>
</g>
<g id="OBJECTS">
	<g>
		<g>
			<path style="fill:#FFCC99;" d="M91.34,274.729c-2.337-2.84-3.479-6.561-3.375-10.218c0.075-2.627,0.989-8.663,4.525-8.811
				c0.828-0.035,1.632,0.258,2.4,0.572c4.301,1.755,8.246,4.272,11.893,7.13c1.811,1.419,3.554,2.924,5.253,4.475
				c1.602,1.462,3.194,3.569,5.017,4.697c2.378-4.272,5.749-8.235,8.586-12.25c3.044-4.308,6.069-8.63,9.073-12.967
				c0.242-0.35,0.497-0.711,0.867-0.921c0.769-0.436,1.729-0.08,2.531,0.292c2.299,1.064,4.552,2.227,6.752,3.484
				c-2.603,5.306-5.624,10.407-9.025,15.24c-1.644,2.337-3.542,4.505-4.98,6.971c-1.601,2.745-3.205,5.487-4.803,8.233
				c-1.337,2.292-2.868,4.751-5.366,5.65c-2.002,0.72-4.219,0.274-6.278-0.261c-4.4-1.144-8.699-2.669-12.866-4.488
				C97.756,279.903,93.965,277.919,91.34,274.729z"/>
			<path style="fill:#C29E7A;" d="M113.874,285.787c-0.474,0.169-0.943-0.41-0.866-0.908c0.076-0.498,0.482-0.872,0.876-1.186
				c3.441-2.738,7.962-4.078,12.339-3.658c-0.823,2.591-2.797,4.793-5.283,5.894c-2.486,1.101-5.443,1.081-7.915-0.051"/>
			<path style="fill:#C29E7A;" d="M117.77,277.556c0.074,0.155,0.159,0.311,0.293,0.419c0.134,0.108,0.327,0.159,0.482,0.084
				c0.231-0.112,0.267-0.425,0.248-0.682c-0.067-0.943-0.422-1.83-0.76-2.702c-0.17-0.44-0.342-0.88-0.474-1.334
				c-0.097-0.332-0.11-0.738-0.247-1.045c-0.239,0.574-0.15,1.477-0.146,2.087C117.172,275.465,117.3,276.568,117.77,277.556z"/>
		</g>
		<g>
			<g>
				<path style="fill:#13DCF2;" d="M117.72,463.192c0.317-1.392,0.655-2.829,1.505-3.977c1.717-2.317,5.137-2.793,7.868-1.869
					c2.732,0.924,4.931,2.945,7.013,4.94c2.083,1.995,4.212,4.067,6.89,5.137c1.896,0.758,3.982,0.974,5.843,1.814
					c1.861,0.84,3.56,2.621,3.337,4.651c-0.056,0.512-8.055,1.095-8.892,1.17c-3.059,0.274-6.129,0.418-9.2,0.431
					c-3.031,0.013-6.062-0.1-9.083-0.34c-1.49-0.118-2.978-0.268-4.463-0.448c-1.193-0.145-3.041,0.099-3.171-1.194
					c-0.144-1.436,0.827-3.621,1.151-5.041C116.919,466.708,117.319,464.95,117.72,463.192z"/>
				<path style="fill:none;stroke:#351B6B;stroke-width:0.5;stroke-linecap:round;stroke-linejoin:round;stroke-miterlimit:10;" d="
					M115.947,470.789c5.87,1.167,11.93,0.395,17.912,0.592c5.227,0.172,10.49,1.084,15.654,0.257"/>
				<g>
					
						<path style="fill:none;stroke:#351B6B;stroke-width:0.5;stroke-linecap:round;stroke-linejoin:round;stroke-miterlimit:10;" d="
						M130.539,461.824c-0.445,0.074-0.885,0.33-1.062,0.745c-0.177,0.415,0,0.981,0.426,1.129c0.379,0.132,0.786-0.083,1.115-0.312
						c1.183-0.824,2.184-1.957,3.535-2.459c0.443-0.165,0.943-0.253,1.386-0.089c0.444,0.164,0.793,0.646,0.676,1.104
						c-0.099,0.388-0.493,0.644-0.889,0.704c-0.396,0.06-0.797-0.036-1.186-0.131C133.195,462.186,131.925,461.824,130.539,461.824z
						"/>
					
						<path style="fill:none;stroke:#351B6B;stroke-width:0.5;stroke-linecap:round;stroke-linejoin:round;stroke-miterlimit:10;" d="
						M132.757,464.284c1.53-0.709,3.296-0.894,4.939-0.517"/>
					
						<path style="fill:none;stroke:#351B6B;stroke-width:0.5;stroke-linecap:round;stroke-linejoin:round;stroke-miterlimit:10;" d="
						M133.947,465.67c1.713-0.62,3.59-0.782,5.384-0.462"/>
					
						<path style="fill:none;stroke:#351B6B;stroke-width:0.5;stroke-linecap:round;stroke-linejoin:round;stroke-miterlimit:10;" d="
						M135.551,466.873c1.302-0.701,2.822-0.991,4.291-0.819"/>
				</g>
			</g>
			<g>
				<path style="fill:#281450;" d="M108.185,323.843c11.208,44.69,20.959,90.655,24.013,136.536
					c-3.016-0.268-6.349,0.414-9.287-0.095c-3.255-0.564-3.824-3.2-5.178-6.02c-3.776-7.859-7.354-15.847-9.909-24.198
					c-3.127-10.219-4.692-21.074-3.097-31.641c0.481-3.183,1.217-6.582-0.132-9.505c-0.995-2.155-2.965-3.666-4.795-5.177
					c-8.704-7.188-15.686-16.399-20.435-26.629c-2.41-5.192-4.249-10.651-5.447-16.25c-0.602-2.814-0.906-5.637-1.309-8.48
					c-0.372-2.626-1.59-4.427-2.377-6.931c0.169,0.538,0.338,1.076,0.507,1.614"/>
				<path style="fill:none;stroke:#46248F;stroke-miterlimit:10;" d="M83.95,328.024c4.494,17.573,9.403,35.929,21.716,49.248
					c1.842,1.993,3.878,3.915,4.951,6.408c1.303,3.026,1.01,6.464,0.822,9.754c-0.672,11.709,0.287,23.508,2.823,34.958
					c1.166,5.266,3.347,10.045,4.636,15.175c1.397,5.557,2.689,11.143,3.939,16.735"/>
			</g>
		</g>
		<g>
			<g>
				<path style="fill:#13DCF2;" d="M59.067,463.201c0.357-1.383,0.735-2.809,1.618-3.932c1.782-2.267,5.214-2.644,7.919-1.643
					c2.704,1.002,4.844,3.085,6.869,5.139c2.025,2.054,4.094,4.186,6.74,5.332c1.873,0.811,3.952,1.088,5.788,1.981
					c1.836,0.893,3.484,2.723,3.202,4.745c-0.071,0.51-8.083,0.863-8.921,0.914c-3.065,0.186-6.139,0.242-9.209,0.167
					c-3.03-0.073-6.056-0.274-9.069-0.6c-1.486-0.161-2.969-0.353-4.448-0.576c-1.188-0.179-3.042,0.011-3.135-1.284
					c-0.103-1.439,0.93-3.596,1.294-5.006C58.165,466.693,58.616,464.947,59.067,463.201z"/>
				<g>
					
						<path style="fill:none;stroke:#351B6B;stroke-width:0.5;stroke-linecap:round;stroke-linejoin:round;stroke-miterlimit:10;" d="
						M71.498,463.425c-0.344,0.231-0.661,0.59-0.634,1.004c0.034,0.531,0.64,0.871,1.17,0.823c0.53-0.048,0.991-0.366,1.431-0.666
						c1.237-0.843,2.535-1.628,3.962-2.079c0.523-0.165,1.076-0.285,1.617-0.199c0.541,0.086,1.071,0.412,1.272,0.922
						c0.122,0.308,0.098,0.699-0.147,0.922c-0.299,0.272-0.765,0.19-1.157,0.092c-1.438-0.362-2.874-0.732-4.313-1.087
						C73.763,462.925,72.278,462.646,71.498,463.425z"/>
					
						<path style="fill:none;stroke:#351B6B;stroke-width:0.5;stroke-linecap:round;stroke-linejoin:round;stroke-miterlimit:10;" d="
						M75.257,466.122c0.708-0.374,1.522-0.515,2.323-0.522c0.801-0.007,1.597,0.113,2.39,0.233"/>
					
						<path style="fill:none;stroke:#351B6B;stroke-width:0.5;stroke-linecap:round;stroke-linejoin:round;stroke-miterlimit:10;" d="
						M77.305,467.097c1.264-0.224,2.549-0.331,3.833-0.322"/>
					
						<path style="fill:none;stroke:#351B6B;stroke-width:0.5;stroke-linecap:round;stroke-linejoin:round;stroke-miterlimit:10;" d="
						M79.161,468.416c1.047-0.336,2.142-0.521,3.241-0.548"/>
				</g>
				<path style="fill:none;stroke:#351B6B;stroke-width:0.5;stroke-linecap:round;stroke-linejoin:round;stroke-miterlimit:10;" d="
					M56.94,471.081c10.978,1.803,22.134,2.512,33.252,2.113"/>
			</g>
			<g>
				<path style="fill:#351B6B;" d="M89.179,323.982c-0.434,14.067-1.197,28.125-2.288,42.156
					c-1.373,17.656-2.497,21.496-5.132,48.82c-0.033,0.346-0.895,8.242-2.619,24.032c-0.294,2.696-0.784,7.135-1.698,12.985
					c-0.658,4.21-1.309,7.708-1.798,10.188c-2.216-0.688-5.097-1.359-8.503-1.601c-2.086-0.148-4.054,0.176-6.12-0.077
					c-1.399-11.483-2.8-23.024-2.372-34.584c0.428-11.56,2.77-23.24,8.434-33.326c0.945-1.684,2.011-3.424,2.027-5.355
					c0.017-2.04-1.14-3.876-2.187-5.627c-5.567-9.306-9.026-19.838-10.224-30.608c-0.599-5.386-0.633-10.836-0.083-16.227
					c0.507-4.96,1.876-8.534,3.742-13.016"/>
				<path style="fill:none;stroke:#46248F;stroke-miterlimit:10;" d="M68.22,327.475c-1.379,13.551-0.476,27.332,2.66,40.588
					c1.142,4.826,2.583,9.62,2.913,14.568c0.476,7.137-1.379,14.194-2.904,21.182c-4.047,18.549-4.961,37.153-5.796,56.006"/>
			</g>
		</g>
		<g>
			<path style="fill:#13DCF2;" d="M80.133,333.926c-4.499-0.007-9.005-0.395-13.422-1.265c-1.613-0.318-3.21-0.791-4.797-1.218
				c-1.666-0.448-4.779-0.558-5.221-2.583c-0.356-1.632,0.491-2.946,1.015-4.381c0.549-1.506,0.765-3.164,1.28-4.695
				c1.024-3.046,2.389-5.962,3.773-8.856c2.702-5.649,5.636-11.395,6.293-17.716c0.579-5.573-0.667-11.152-1.118-16.736
				c-0.451-5.584,0.044-11.636,3.535-16.017c2.533-3.178,6.504-5.356,10.214-6.877c3.841-1.575,8.643-0.054,12.304,1.509
				c11.072,4.728,13.868,16.739,12.33,27.668c-0.691,4.908-1.882,9.752-2.215,14.697c-0.742,11.009,2.781,21.808,6.259,32.28
				c0-0.001-4.609,0.835-4.984,0.922c-2.304,0.536-4.619,1.027-6.945,1.457c-4.746,0.877-9.545,1.5-14.368,1.723
				C82.755,333.898,81.444,333.929,80.133,333.926z"/>
			<path style="fill:#0EA5B5;" d="M69.976,283.857c2.487,5.376,5.913,10.255,9.359,15.074c1.833,2.563,3.832,5.243,6.756,6.418
				c3.255,1.308,6.932,0.472,10.335-0.38c2.622-0.656,5.276-1.324,7.649-2.618c0.628-0.342,1.299-0.831,1.354-1.543
				c0.058-0.748-0.586-1.343-1.172-1.811c-8.616-6.889-17.231-13.779-25.847-20.669c-3.764-3.009-7.74-6.285-9.579-10.882
				c-0.752-1.88-1.241-1.923-1.91,0.13c-0.737,2.262-0.42,4.631,0.002,6.923C67.517,277.735,68.596,280.874,69.976,283.857z"/>
		</g>
		<g>
			<path style="fill:#FFCC99;" d="M94.99,258.562c-0.031,0.767-0.056,1.297-0.06,1.297c-4.317-0.481-8.558-1.649-12.512-3.447
				c-0.6-0.273-1.238-0.605-1.51-1.205c-0.198-0.438-0.163-0.941-0.123-1.421c0.365-4.436,0.739-8.87,1.096-13.306
				c0.064-0.791-0.069-1.446-0.102-2.216c-0.045-1.032,0.165-2.131,0.241-3.162c0.158-2.141,0.297-4.284,0.472-6.424
				c0.177-2.172,2.411-4.29,4.715-3.869c1.954,0.357,3.126,2.342,3.886,4.178c2.135,5.159,2.83,10.401,3.412,15.942
				c0.281,2.676,0.499,5.359,0.654,8.046C95.184,253.429,95.066,256.697,94.99,258.562z"/>
			<path style="fill:#C29E7A;" d="M95.239,254.513c-2.726-0.477-4.979-1.926-6.782-4.025c-1.803-2.1-2.85-4.835-2.91-7.602
				c0.03,0.039,0.06,0.078,0.091,0.116c1.019,1.283,2.425,2.239,3.969,2.774c0.773,0.268,1.582,0.432,2.399,0.479
				c0.408,0.023,0.817,0.018,1.224-0.018c0.274-0.024,0.812-0.264,1.024-0.061c0.114,0.11,0.161,0.27,0.202,0.423
				c0.35,1.311,0.579,2.655,0.686,4.008C95.243,251.911,95.158,253.212,95.239,254.513z"/>
		</g>
		<g>
			<path style="fill:#FFCC99;" d="M108.469,238.117c0.375,2.426,0.256,5.073-1.117,7.188c-1.134,1.748-2.976,2.838-4.957,3.374
				c-4.646,1.257-10.902,0.22-14.534-2.959c-0.379-0.332-0.744-0.68-1.092-1.044c-3.668-3.832-5.387-9.28-5.278-14.584
				c0.08-3.87,1.11-7.784,3.362-10.932c2.252-3.148,5.799-5.453,9.656-5.773c3.138-0.26,6.428,0.91,8.596,3.216
				c1.861,1.979,2.768,5.112,3.492,7.683C107.861,228.776,108.358,233.464,108.469,238.117z"/>
			<g>
				<g>
					<path style="fill:#351B6B;" d="M59.833,202.667c-2.787,1.871-4.433,5.091-5.127,8.375c-0.694,3.284-0.548,6.679-0.439,10.034
						c0.109,3.355,0.171,6.763-0.682,10.009c-0.592,2.254-1.628,4.381-2.983,6.273c-0.656,0.916-1.401,1.956-2.285,2.667
						c-0.754,0.606-1.539,0.919-2.185,1.699c3.2,1.486,5.999,2.944,8.372,5.671c1.108,1.274,2.056,2.689,2.806,4.203
						c0.374,0.756,0.698,1.536,0.968,2.336c0.091,0.271,0.809,2.147,0.616,2.324c5.142-4.905,8.2-11.927,8.29-19.032
						c0.093-7.379-2.857-14.65-2.029-21.983c0.192-1.698,0.624-3.45,1.758-4.729c0.939-1.061,2.481-1.712,3.892-1.365
						c1.312,0.323,2.279,1.857,3.647,1.822c1.1-0.028,1.848-1.286,1.706-2.377c-0.142-1.091-0.909-1.992-1.719-2.735
						c-3.268-2.996-6.64-5.545-11.373-4.54C61.915,201.562,60.809,202.012,59.833,202.667z"/>
					<path style="fill:#13DCF2;" d="M75.17,215.918c-0.717-1.678-1.618-3.518-2.583-5.065c-0.002,0.045-0.003,0.09-0.005,0.135
						c-0.171-1.05,0.16-2.171,0.873-2.961c0.714-0.79,1.795-1.232,2.857-1.168c1.318,1.277,2.625,2.691,3.943,3.968"/>
				</g>
				<path style="fill:#351B6B;" d="M91.348,223.665c0.033-0.465,0.047-0.931,0.06-1.391c0.015-0.528-0.06-1.04-0.179-1.564
					c-0.07-0.309-0.228-1.432-0.504-1.603c2.473,1.532,5.258,2.552,8.13,3.009c1.455,0.231,2.933,0.318,4.405,0.254
					c1.251-0.055,2.822-0.208,3.914-0.871c1.891-1.147,1.186-4.501,0.528-6.125c-0.857-2.114-2.414-3.931-4.282-5.223
					c-2.935-2.03-6.526-2.889-10.071-3.301c-2.948-0.343-5.959-0.402-8.862,0.219c-2.902,0.621-5.703,1.959-7.75,4.108
					c-2.208,2.32-3.417,5.446-3.945,8.605c-0.476,2.852-0.438,5.757-0.348,8.638c0.081,2.58,0.411,5.073,1.616,7.413
					c1.377,2.673,3.901,4.881,6.88,5.284c0.818,0.111,1.717,0.065,2.371-0.44c0.812-0.627,1.012-1.762,1.038-2.787
					c0.038-1.486-0.159-2.981,0.024-4.457c0.183-1.476,0.834-2.999,2.123-3.74c0.748-0.43,1.637-0.556,2.393-0.972
					c1.067-0.587,1.762-1.705,2.103-2.874C91.2,225.14,91.297,224.404,91.348,223.665z"/>
			</g>
			<g>
				<g>
					<path style="fill:#351B6B;" d="M95.9,231.612c-0.032,0.251-0.097,0.503-0.24,0.712c-0.143,0.209-0.372,0.368-0.625,0.38
						c-0.302,0.013-0.577-0.182-0.77-0.415c-0.442-0.533-0.567-1.258-0.606-1.949c-0.016-0.287-0.02-0.581,0.068-0.855
						c0.087-0.274,0.281-0.528,0.553-0.621C95.514,228.438,95.992,230.887,95.9,231.612z"/>
					
						<path style="fill:none;stroke:#351B6B;stroke-width:0.5;stroke-linecap:round;stroke-linejoin:round;stroke-miterlimit:10;" d="
						M96.175,225.923c-0.781-0.522-1.833-0.612-2.691-0.23c-0.858,0.383-1.494,1.225-1.628,2.155"/>
				</g>
				<g>
					<path style="fill:#351B6B;" d="M105.443,229.934c-0.032,0.251-0.097,0.503-0.24,0.712c-0.143,0.209-0.372,0.368-0.625,0.38
						c-0.302,0.013-0.577-0.182-0.77-0.415c-0.442-0.533-0.567-1.258-0.606-1.949c-0.016-0.287-0.02-0.581,0.068-0.855
						c0.088-0.274,0.281-0.528,0.553-0.621C105.058,226.76,105.535,229.209,105.443,229.934z"/>
					
						<path style="fill:none;stroke:#351B6B;stroke-width:0.5;stroke-linecap:round;stroke-linejoin:round;stroke-miterlimit:10;" d="
						M101.259,225.046c0.471-0.633,1.211-1.059,1.995-1.147c0.784-0.088,1.601,0.162,2.2,0.675"/>
				</g>
				<path style="fill:#FFFFFF;" d="M102.971,241.573c-1.432,0.465-3.015,0.452-4.44-0.034c-1.425-0.487-2.685-1.446-3.533-2.69
					c-0.224-0.329-0.428-0.727-0.318-1.11c2.294,1.026,5.083,0.866,7.244-0.417C101.925,238.814,102.274,240.254,102.971,241.573z"
					/>
				<path style="fill:#F2862C;" d="M102.29,231.904c0.529,0.401,1.107,0.748,1.556,1.237c0.449,0.489,0.76,1.168,0.607,1.813
					c-0.112,0.471-0.462,0.865-0.89,1.09c-0.97,0.511-2.234,0.146-3.002-0.637c-0.768-0.783-1.114-1.891-1.249-2.98
					c-0.102-0.823-0.099-1.655-0.096-2.484c0.001-0.258,0.003-0.523,0.095-0.765c0.122-0.319,0.529-0.659,0.878-0.426
					c0.259,0.173,0.225,0.629,0.316,0.9C100.813,230.573,101.533,231.33,102.29,231.904z"/>
			</g>
			<g>
				<path style="fill:#FFCC99;" d="M84.685,228.437c-0.896-1.342-2.638-2.24-4.159-1.702c-1.387,0.49-2.173,1.969-2.521,3.398
					c-0.331,1.359-0.382,2.809,0.034,4.144c0.416,1.335,1.332,2.543,2.593,3.148c1.261,0.605,2.864,0.535,3.974-0.315
					C86.834,235.404,86.034,230.457,84.685,228.437z"/>
				<path style="fill:#573C20;" d="M82.769,229.788c-0.102-0.162-0.233-0.328-0.419-0.372c-0.257-0.06-0.502,0.135-0.664,0.342
					c-0.47,0.599-0.634,1.401-0.558,2.159c0.076,0.758,0.374,1.478,0.749,2.142c0.16,0.283,0.343,0.568,0.621,0.737
					c0.277,0.169,0.672,0.187,0.903-0.04c0.281-0.276,0.194-0.762-0.032-1.084c-0.227-0.322-0.562-0.554-0.796-0.871
					c-0.218-0.295-0.338-0.653-0.391-1.016c-0.05-0.341-0.042-0.69,0.001-1.032c0.015-0.115,0.043-0.245,0.142-0.304
					c0.127-0.075,0.299,0.016,0.364,0.148c0.066,0.132,0.056,0.287,0.05,0.434c-0.009,0.215,0.018,0.623,0.313,0.651
					c0.213,0.02,0.245-0.134,0.258-0.32C83.349,230.832,83.043,230.222,82.769,229.788z"/>
			</g>
		</g>
		<g>
			<g>
				<path style="fill:#351B6B;" d="M182.961,278.498h-52.613c-0.783,0-1.418-0.635-1.418-1.418l0,0c0-0.783,0.635-1.418,1.418-1.418
					h52.613c0.783,0,1.418,0.635,1.418,1.418l0,0C184.379,277.863,183.744,278.498,182.961,278.498z"/>
				<g>
					<path style="fill:#46248F;" d="M166.965,244.275h-36.616c-0.783,0-1.418,0.635-1.418,1.418v28.551
						c0,0.783,0.635,1.418,1.418,1.418h36.616c0.783,0,1.418-0.635,1.418-1.418v-28.551
						C168.383,244.91,167.748,244.275,166.965,244.275z"/>
					<path style="fill:#FFFFFF;" d="M133.61,272.638V247.3c0-0.576,0.467-1.043,1.043-1.043h30.875c0.576,0,1.043,0.467,1.043,1.043
						v25.337c0,0.576-0.467,1.043-1.043,1.043h-30.875C134.077,273.681,133.61,273.214,133.61,272.638z"/>
					<g>
						<path style="fill:#46248F;" d="M163.18,250.962h-25.155c-0.747,0-1.352-0.605-1.352-1.352v-0.093
							c0-0.747,0.605-1.352,1.352-1.352h25.155c0.747,0,1.352,0.605,1.352,1.352v0.093
							C164.532,250.357,163.927,250.962,163.18,250.962z"/>
						<g>
							<path style="fill:#13DCF2;" d="M162.524,270.889h-4.459c-0.781,0-1.415-0.634-1.415-1.415v-13.85
								c0-0.782,0.634-1.415,1.415-1.415h4.459c0.782,0,1.415,0.633,1.415,1.415v13.85
								C163.939,270.255,163.305,270.889,162.524,270.889z"/>
							<path style="fill:#FFFFFF;" d="M161.81,258.237h-2.597c-0.46,0-0.832-0.373-0.832-0.832l0,0c0-0.46,0.373-0.832,0.832-0.832
								h2.597c0.46,0,0.832,0.373,0.832,0.832l0,0C162.642,257.865,162.27,258.237,161.81,258.237z"/>
							<path style="fill:#FFFFFF;" d="M161.81,261.567h-2.597c-0.46,0-0.832-0.373-0.832-0.832l0,0c0-0.46,0.373-0.832,0.832-0.832
								h2.597c0.46,0,0.832,0.373,0.832,0.832l0,0C162.642,261.194,162.27,261.567,161.81,261.567z"/>
							<path style="fill:#FFFFFF;" d="M161.81,264.896h-2.597c-0.46,0-0.832-0.373-0.832-0.832l0,0c0-0.46,0.373-0.832,0.832-0.832
								h2.597c0.46,0,0.832,0.373,0.832,0.832l0,0C162.642,264.523,162.27,264.896,161.81,264.896z"/>
							<path style="fill:#FFFFFF;" d="M161.81,268.225h-2.597c-0.46,0-0.832-0.373-0.832-0.832l0,0c0-0.46,0.373-0.832,0.832-0.832
								h2.597c0.46,0,0.832,0.373,0.832,0.832l0,0C162.642,267.853,162.27,268.225,161.81,268.225z"/>
						</g>
						<g>
							<path style="fill:#F2D06B;" d="M152.536,270.889h-4.46c-0.782,0-1.415-0.634-1.415-1.415v-13.85
								c0-0.782,0.633-1.415,1.415-1.415h4.46c0.781,0,1.415,0.633,1.415,1.415v13.85
								C153.951,270.255,153.317,270.889,152.536,270.889z"/>
							<path style="fill:#FFFFFF;" d="M151.822,258.237h-2.597c-0.46,0-0.832-0.373-0.832-0.832l0,0c0-0.46,0.373-0.832,0.832-0.832
								h2.597c0.46,0,0.832,0.373,0.832,0.832l0,0C152.654,257.865,152.281,258.237,151.822,258.237z"/>
							<path style="fill:#FFFFFF;" d="M151.822,261.567h-2.597c-0.46,0-0.832-0.373-0.832-0.832l0,0c0-0.46,0.373-0.832,0.832-0.832
								h2.597c0.46,0,0.832,0.373,0.832,0.832l0,0C152.654,261.194,152.281,261.567,151.822,261.567z"/>
							<path style="fill:#FFFFFF;" d="M151.822,264.896h-2.597c-0.46,0-0.832-0.373-0.832-0.832l0,0c0-0.46,0.373-0.832,0.832-0.832
								h2.597c0.46,0,0.832,0.373,0.832,0.832l0,0C152.654,264.523,152.281,264.896,151.822,264.896z"/>
							<path style="fill:#FFFFFF;" d="M151.822,268.225h-2.597c-0.46,0-0.832-0.373-0.832-0.832l0,0c0-0.46,0.373-0.832,0.832-0.832
								h2.597c0.46,0,0.832,0.373,0.832,0.832l0,0C152.654,267.853,152.281,268.225,151.822,268.225z"/>
						</g>
						<g>
							<path style="fill:#9A8DF2;" d="M142.548,270.889h-4.46c-0.781,0-1.415-0.634-1.415-1.415v-13.85
								c0-0.782,0.633-1.415,1.415-1.415h4.46c0.781,0,1.415,0.633,1.415,1.415v13.85
								C143.962,270.255,143.329,270.889,142.548,270.889z"/>
							<path style="fill:#FFFFFF;" d="M141.834,258.237h-2.597c-0.46,0-0.832-0.373-0.832-0.832l0,0c0-0.46,0.373-0.832,0.832-0.832
								h2.597c0.46,0,0.832,0.373,0.832,0.832l0,0C142.666,257.865,142.293,258.237,141.834,258.237z"/>
							<path style="fill:#FFFFFF;" d="M141.834,261.567h-2.597c-0.46,0-0.832-0.373-0.832-0.832l0,0c0-0.46,0.373-0.832,0.832-0.832
								h2.597c0.46,0,0.832,0.373,0.832,0.832l0,0C142.666,261.194,142.293,261.567,141.834,261.567z"/>
							<path style="fill:#FFFFFF;" d="M141.834,264.896h-2.597c-0.46,0-0.832-0.373-0.832-0.832l0,0c0-0.46,0.373-0.832,0.832-0.832
								h2.597c0.46,0,0.832,0.373,0.832,0.832l0,0C142.666,264.523,142.293,264.896,141.834,264.896z"/>
							<path style="fill:#FFFFFF;" d="M141.834,268.225h-2.597c-0.46,0-0.832-0.373-0.832-0.832l0,0c0-0.46,0.373-0.832,0.832-0.832
								h2.597c0.46,0,0.832,0.373,0.832,0.832l0,0C142.666,267.853,142.293,268.225,141.834,268.225z"/>
						</g>
					</g>
				</g>
			</g>
			<g>
				<g>
					<path style="fill:#FFCC99;" d="M67.331,272.284c1.281,4.508,4.468,8.199,7.712,11.581c4.281,4.463,8.825,8.674,13.6,12.605
						c6.035,4.969,9.463,6.925,13.145,7.335c2.523,0.281,5.898,0.004,18.006-7.046c4.449-2.591,10.276-6.212,16.88-10.987
						c-0.668-2.206-1.335-4.412-2.003-6.618c-10.12,3.292-20.24,6.584-30.36,9.876c-4.266-5.156-8.568-10.292-12.765-15.5
						c-3.609-4.477-7.79-8.787-12.725-11.797c-2.642-1.611-7.129-3.081-9.509-0.37C66.771,264.258,66.308,268.685,67.331,272.284z"
						/>
					<path style="fill:#C29E7A;" d="M102.99,295.394c0.025,0.346,0.132,0.772,0.471,0.846c0.2,0.043,0.41-0.069,0.534-0.232
						c0.124-0.163,0.178-0.368,0.215-0.569c0.394-2.115-0.712-4.392,0.063-6.4c-0.35,0.907-0.8,1.753-1.022,2.761
						C102.993,292.977,102.903,294.191,102.99,295.394z"/>
					<path style="fill:#C29E7A;" d="M103.423,298.922c0.562,0.124,1.101,0.406,1.465,0.851c0.365,0.445,0.535,1.063,0.379,1.617
						c-0.486-0.91-1.406-1.575-2.422-1.752c-1.055-0.184-2.032,0.174-2.861,0.806C99.962,299.114,102.544,298.728,103.423,298.922z"
						/>
				</g>
				<g>
					<path style="fill:#FFCC99;" d="M138.043,278.511c1.423,0.047,2.831,0.364,4.244,0.591c2.643,0.425,5.327,0.531,7.97,0.107
						c1.189-0.191,2.376-0.49,3.574-0.446c1.198,0.044,2.44,0.474,3.294,1.541c0.304,0.38,0.565,0.928,0.425,1.439
						c-0.116,0.422-0.477,0.668-0.827,0.718c-0.35,0.05-0.701-0.055-1.05-0.12c-1.694-0.32-3.412,0.277-5.013,1.048
						c-1.601,0.772-3.16,1.729-4.836,2.178c-1.737,0.466-3.313,0.548-5.099,0.544c-0.98-0.002-1.96-0.004-2.94-0.006
						c-0.304-0.001-2.426-0.255-2.548-0.005c0.276-0.558,0.026-1.313-0.345-1.773c-0.372-0.46-0.855-0.766-1.195-1.263
						c-0.91-1.329-0.363-3.04,0.697-3.784C135.522,278.488,136.78,278.469,138.043,278.511z"/>
					<path style="fill:#C29E7A;" d="M151.845,281.657c-1.23,0.131-2.316,0.829-3.35,1.507c-0.101,0.066-0.206,0.137-0.269,0.24
						c-0.063,0.104-0.069,0.252,0.018,0.336c0.131,0.127,0.347,0.031,0.503-0.065c1.034-0.639,2.186-1.083,3.378-1.32
						c0.602-0.12,1.215-0.186,1.828-0.198c0.467-0.009,1.02,0.123,1.469,0.021C154.276,281.908,153.034,281.53,151.845,281.657z"/>
				</g>
			</g>
			<g>
				<path style="fill:#FFCC99;" d="M146.113,245.235c0.529,0.536,1.273,0.853,2.026,0.861c0.753,0.009,1.504-0.291,2.045-0.814
					c0.366,0.387,0.896,0.612,1.429,0.607s1.058-0.242,1.416-0.637c0.615,0.305,1.255,0.615,1.941,0.634
					c0.686,0.019,1.434-0.341,1.638-0.996c0.152-0.487-0.023-1.019-0.278-1.461c-0.506-0.877-1.342-1.558-2.302-1.876
					c-0.961-0.319-2.038-0.272-2.967,0.128c-1.068-0.916-2.823-0.889-3.862,0.061c-0.446-0.42-1.086-0.625-1.693-0.543
					c-0.607,0.082-1.17,0.45-1.488,0.973c-0.651-0.671-1.792-0.704-2.586-0.211c-0.743,0.462-1.35,1.444-1.367,2.327
					c0.54,0.045,1.164-0.075,1.695,0.051c0.563,0.134,0.814,0.713,1.234,1.054c0.451,0.366,1.042,0.531,1.619,0.497
					C144.765,245.88,146.263,245.387,146.113,245.235z"/>
				<g>
					<path style="fill:#C29E7A;" d="M145.418,243.476c0.39,0.503,0.672,1.112,0.681,1.748c0.224-0.686,0.108-1.474-0.303-2.067
						c-0.272-0.392-0.67-0.693-1.116-0.86c-0.113-0.042-0.228-0.076-0.346-0.101c-0.091-0.019-0.214-0.072-0.17,0.057
						c0.032,0.092,0.213,0.189,0.286,0.251c0.11,0.093,0.218,0.187,0.324,0.284C145.006,243.001,145.225,243.227,145.418,243.476z"
						/>
					<path style="fill:#C29E7A;" d="M149.246,243.131c0.517,0.629,0.843,1.412,0.925,2.222c0.25-0.849-0.065-1.801-0.672-2.445
						c-0.548-0.581-1.442-1.068-2.25-1.13c0.309,0.187,0.68,0.275,0.993,0.472C148.622,242.488,148.962,242.786,149.246,243.131z"/>
					<path style="fill:#C29E7A;" d="M152.533,243.269c0.406,0.594,0.664,1.313,0.594,2.029c0.274-0.741,0.19-1.605-0.221-2.279
						c-0.359-0.588-1.124-1.214-1.848-1.222C151.613,242.214,152.138,242.69,152.533,243.269z"/>
				</g>
			</g>
		</g>
	</g>
	<g>
		<g>
			
				<line style="fill:none;stroke:#13DCF2;stroke-width:2;stroke-miterlimit:10;" x1="366.032" y1="256.876" x2="366.032" y2="203.975"/>
			<polyline style="fill:none;stroke:#13DCF2;stroke-width:2;stroke-miterlimit:10;" points="357.351,215.093 366.032,203.975 
				373.647,215.093 			"/>
		</g>
		<g>
			
				<line style="fill:none;stroke:#13DCF2;stroke-width:2;stroke-miterlimit:10;" x1="387.658" y1="205.486" x2="387.658" y2="256.876"/>
			<polyline style="fill:none;stroke:#13DCF2;stroke-width:2;stroke-miterlimit:10;" points="396.339,245.758 387.658,256.876 
				380.043,245.758 			"/>
		</g>
	</g>
	<g>
		<g>
			<path style="fill:none;stroke:#13DCF2;stroke-width:2;stroke-miterlimit:10;" d="M526.545,135.582h66.816
				c5.182,0,9.383,4.201,9.383,9.383v84.491"/>
			<polyline style="fill:none;stroke:#13DCF2;stroke-width:2;stroke-miterlimit:10;" points="535.274,128.561 526.545,135.582 
				535.274,142.859 			"/>
		</g>
		<g>
			<path style="fill:none;stroke:#13DCF2;stroke-width:2;stroke-miterlimit:10;" d="M620.881,242.163V130.284
				c0-5.182-4.201-9.383-9.383-9.383h-82.156"/>
			<polyline style="fill:none;stroke:#13DCF2;stroke-width:2;stroke-miterlimit:10;" points="627.902,233.434 620.881,242.163 
				613.604,233.434 			"/>
		</g>
	</g>
	<g>
		<g>
			<path style="fill:none;stroke:#13DCF2;stroke-width:2;stroke-miterlimit:10;" d="M222.194,147.884h-56.816
				c-5.182,0-9.383,4.201-9.383,9.383v49.491"/>
			<polyline style="fill:none;stroke:#13DCF2;stroke-width:2;stroke-miterlimit:10;" points="213.466,140.863 222.194,147.884 
				213.466,155.161 			"/>
		</g>
		<g>
			<path style="fill:none;stroke:#13DCF2;stroke-width:2;stroke-miterlimit:10;" d="M137.859,219.464v-76.878
				c0-5.182,4.201-9.383,9.383-9.383h74.953"/>
			<polyline style="fill:none;stroke:#13DCF2;stroke-width:2;stroke-miterlimit:10;" points="130.837,210.736 137.859,219.464 
				145.135,210.736 			"/>
		</g>
	</g>
	<g>
		<g>
			<path style="fill:#F2D06B;" d="M297.607,478.47c-4.561-12.443-14.477-22.82-26.701-27.94c-12.224-5.121-26.575-4.91-38.643,0.567
				c-2.782-9.145-13.281-14.491-22.774-13.365c-9.492,1.125-17.714,7.531-23.242,15.328c-5.528,7.798-8.765,16.947-11.935,25.965"/>
			<path style="fill:#F2D06B;" d="M572.303,476.824c-1.641-10.644-5.032-21.394-12.208-29.425
				c-7.176-8.031-18.768-12.758-29.04-9.523c-2.484-13.044-14.625-22.855-27.681-25.275c-13.056-2.42-26.625,1.509-38.194,8.026
				c-11.187,6.302-21.604,16.129-23.459,28.834c-10.376-3.911-22.342-3.389-32.338,1.411c-9.996,4.799-17.886,13.81-21.324,24.352"
				/>
		</g>
		<g>
			<g>
				<rect x="415.616" y="368.691" style="fill:#9A8DF2;" width="18.014" height="9.741"/>
				<rect x="415.616" y="432.81" style="fill:#9A8DF2;" width="18.014" height="9.741"/>
				<rect x="322.496" y="403.963" style="fill:#9A8DF2;" width="18.014" height="9.741"/>
			</g>
			<g>
				<g>
					<path style="fill:#5D30BF;" d="M409.911,276.39h-64.305c-5.101,0-9.237,4.135-9.237,9.237v171.14
						c0,5.102,4.136,9.237,9.237,9.237h64.305c5.101,0,9.237-4.135,9.237-9.237v-171.14
						C419.148,280.526,415.013,276.39,409.911,276.39z"/>
					<rect x="345.606" y="466.005" style="fill:#5D30BF;" width="9.963" height="8.761"/>
					<rect x="400.169" y="466.005" style="fill:#5D30BF;" width="9.963" height="8.761"/>
				</g>
				<g>
					<path style="fill:#FFFFFF;" d="M404.703,314.786h-55.717c-2.8,0-5.071-2.27-5.071-5.07v-11.792c0-2.8,2.27-5.07,5.071-5.07
						h55.717c2.8,0,5.071,2.27,5.071,5.07v11.792C409.774,312.516,407.504,314.786,404.703,314.786z"/>
					<g>
						<path style="fill:#F2D06B;" d="M405.151,303.82c0,2.395-1.942,4.337-4.337,4.337s-4.337-1.942-4.337-4.337
							c0-2.395,1.942-4.337,4.337-4.337S405.151,301.425,405.151,303.82z"/>
						<rect x="350.367" y="299.483" style="fill:#F2D06B;" width="41.959" height="2.298"/>
						<rect x="350.367" y="304.611" style="fill:#F2D06B;" width="41.959" height="2.298"/>
					</g>
				</g>
				<g>
					<path style="fill:#FFFFFF;" d="M404.703,349.824h-55.717c-2.8,0-5.071-2.27-5.071-5.071v-11.792c0-2.8,2.27-5.07,5.071-5.07
						h55.717c2.8,0,5.071,2.27,5.071,5.07v11.792C409.774,347.553,407.504,349.824,404.703,349.824z"/>
					<g>
						<path style="fill:#13DCF2;" d="M405.151,338.857c0,2.395-1.942,4.337-4.337,4.337s-4.337-1.942-4.337-4.337
							c0-2.395,1.942-4.337,4.337-4.337S405.151,336.462,405.151,338.857z"/>
						<rect x="350.367" y="334.52" style="fill:#13DCF2;" width="41.959" height="2.298"/>
						<rect x="350.367" y="339.648" style="fill:#13DCF2;" width="41.959" height="2.298"/>
					</g>
				</g>
				<g>
					<path style="fill:#FFFFFF;" d="M404.703,384.861h-55.717c-2.8,0-5.071-2.27-5.071-5.071v-11.792c0-2.8,2.27-5.071,5.071-5.071
						h55.717c2.8,0,5.071,2.27,5.071,5.071v11.792C409.774,382.591,407.504,384.861,404.703,384.861z"/>
					<g>
						<g>
							<path style="fill:#9A8DF2;" d="M405.151,374.857c0,2.395-1.942,4.337-4.337,4.337s-4.337-1.942-4.337-4.337
								c0-2.395,1.942-4.337,4.337-4.337S405.151,372.461,405.151,374.857z"/>
							<rect x="350.367" y="370.52" style="fill:#9A8DF2;" width="41.959" height="2.298"/>
							<rect x="350.367" y="375.648" style="fill:#9A8DF2;" width="41.959" height="2.298"/>
						</g>
					</g>
				</g>
				<g>
					<path style="fill:#FFFFFF;" d="M404.703,419.898h-55.717c-2.8,0-5.071-2.27-5.071-5.07v-11.792c0-2.8,2.27-5.071,5.071-5.071
						h55.717c2.8,0,5.071,2.27,5.071,5.071v11.792C409.774,417.628,407.504,419.898,404.703,419.898z"/>
					<g>
						<path style="fill:#F2D06B;" d="M405.151,408.932c0,2.395-1.942,4.337-4.337,4.337s-4.337-1.942-4.337-4.337
							c0-2.395,1.942-4.337,4.337-4.337S405.151,406.536,405.151,408.932z"/>
						<rect x="350.367" y="404.595" style="fill:#F2D06B;" width="41.959" height="2.298"/>
						<rect x="350.367" y="409.723" style="fill:#F2D06B;" width="41.959" height="2.298"/>
					</g>
				</g>
				<g>
					<path style="fill:#FFFFFF;" d="M404.703,450.987h-55.717c-2.8,0-5.071-2.27-5.071-5.07v-11.792c0-2.8,2.27-5.071,5.071-5.071
						h55.717c2.8,0,5.071,2.27,5.071,5.071v11.792C409.774,448.717,407.504,450.987,404.703,450.987z"/>
					<g>
						<g>
							<path style="fill:#9A8DF2;" d="M405.151,439.719c0,2.395-1.942,4.337-4.337,4.337s-4.337-1.942-4.337-4.337
								c0-2.395,1.942-4.337,4.337-4.337S405.151,437.324,405.151,439.719z"/>
							<rect x="350.367" y="435.382" style="fill:#9A8DF2;" width="41.959" height="2.298"/>
							<rect x="350.367" y="440.511" style="fill:#9A8DF2;" width="41.959" height="2.298"/>
						</g>
					</g>
				</g>
			</g>
			<g>
				<g>
					<path style="fill:#46248F;" d="M318.314,360.039h-64.305c-5.101,0-9.237,4.135-9.237,9.237v87.492
						c0,5.102,4.136,9.237,9.237,9.237h64.305c5.102,0,9.237-4.135,9.237-9.237v-87.492
						C327.551,364.174,323.415,360.039,318.314,360.039z"/>
					<rect x="253.898" y="466.005" style="fill:#46248F;" width="9.963" height="8.761"/>
					<rect x="308.461" y="466.005" style="fill:#46248F;" width="9.963" height="8.761"/>
				</g>
				<g>
					<path style="fill:#FFFFFF;" d="M312.094,454.75h-53.458c-1.82,0-3.295-1.475-3.295-3.295v-79.47
						c0-1.82,1.475-3.295,3.295-3.295h53.458c1.82,0,3.295,1.475,3.295,3.295v79.47C315.389,453.275,313.914,454.75,312.094,454.75z
						"/>
					<g>
						<rect x="253.898" y="378.432" style="fill:#46248F;" width="63.715" height="2.037"/>
						<path style="fill:#46248F;" d="M295.364,383.435h-18.406c-2.369,0-4.289-1.92-4.289-4.289l0,0c0-2.369,1.92-4.289,4.289-4.289
							h18.406c2.369,0,4.289,1.92,4.289,4.289l0,0C299.653,381.514,297.733,383.435,295.364,383.435z"/>
					</g>
					<g>
						<rect x="253.898" y="411.003" style="fill:#46248F;" width="63.715" height="2.037"/>
						<path style="fill:#46248F;" d="M295.364,416.31h-18.406c-2.369,0-4.289-1.92-4.289-4.289l0,0c0-2.369,1.92-4.289,4.289-4.289
							h18.406c2.369,0,4.289,1.92,4.289,4.289l0,0C299.653,414.39,297.733,416.31,295.364,416.31z"/>
					</g>
					<g>
						<rect x="253.898" y="440.641" style="fill:#46248F;" width="63.715" height="2.037"/>
						<path style="fill:#46248F;" d="M295.364,445.949h-18.406c-2.369,0-4.289-1.92-4.289-4.289l0,0c0-2.369,1.92-4.289,4.289-4.289
							h18.406c2.369,0,4.289,1.92,4.289,4.289l0,0C299.653,444.029,297.733,445.949,295.364,445.949z"/>
					</g>
					<g>
						<path style="fill:#F2D06B;" d="M270.846,395.736c0,1.781-1.444,3.225-3.225,3.225c-1.781,0-3.225-1.444-3.225-3.225
							s1.444-3.225,3.225-3.225C269.402,392.511,270.846,393.955,270.846,395.736z"/>
						<path style="fill:#F2D06B;" d="M279.89,395.736c0,1.781-1.444,3.225-3.225,3.225s-3.225-1.444-3.225-3.225
							s1.444-3.225,3.225-3.225S279.89,393.955,279.89,395.736z"/>
						<path style="fill:#F2D06B;" d="M297.607,395.736c0,1.781-1.444,3.225-3.225,3.225c-1.781,0-3.225-1.444-3.225-3.225
							s1.444-3.225,3.225-3.225C296.164,392.511,297.607,393.955,297.607,395.736z"/>
						<path style="fill:#13DCF2;" d="M307.115,395.736c0,1.781-1.444,3.225-3.225,3.225c-1.781,0-3.225-1.444-3.225-3.225
							s1.444-3.225,3.225-3.225C305.671,392.511,307.115,393.955,307.115,395.736z"/>
						<path style="fill:#9A8DF2;" d="M288.934,395.736c0,1.781-1.444,3.225-3.225,3.225s-3.225-1.444-3.225-3.225
							s1.444-3.225,3.225-3.225S288.934,393.955,288.934,395.736z"/>
					</g>
					<g>
						<path style="fill:#9A8DF2;" d="M270.846,427.316c0,1.781-1.444,3.225-3.225,3.225c-1.781,0-3.225-1.444-3.225-3.225
							s1.444-3.225,3.225-3.225C269.402,424.092,270.846,425.535,270.846,427.316z"/>
						<path style="fill:#13DCF2;" d="M279.89,427.316c0,1.781-1.444,3.225-3.225,3.225s-3.225-1.444-3.225-3.225
							s1.444-3.225,3.225-3.225S279.89,425.535,279.89,427.316z"/>
						<path style="fill:#F2D06B;" d="M297.607,427.316c0,1.781-1.444,3.225-3.225,3.225c-1.781,0-3.225-1.444-3.225-3.225
							s1.444-3.225,3.225-3.225C296.164,424.092,297.607,425.535,297.607,427.316z"/>
						<path style="fill:#13DCF2;" d="M307.115,427.316c0,1.781-1.444,3.225-3.225,3.225c-1.781,0-3.225-1.444-3.225-3.225
							s1.444-3.225,3.225-3.225C305.671,424.092,307.115,425.535,307.115,427.316z"/>
						<path style="fill:#F2D06B;" d="M288.934,427.316c0,1.781-1.444,3.225-3.225,3.225s-3.225-1.444-3.225-3.225
							s1.444-3.225,3.225-3.225S288.934,425.535,288.934,427.316z"/>
					</g>
				</g>
			</g>
			<g>
				<g>
					<path style="fill:#46248F;" d="M502.536,320.793h-64.305c-5.101,0-9.237,4.135-9.237,9.237v126.738
						c0,5.102,4.136,9.237,9.237,9.237h64.305c5.102,0,9.237-4.135,9.237-9.237V330.03
						C511.773,324.928,507.638,320.793,502.536,320.793z"/>
					<rect x="438.12" y="466.005" style="fill:#46248F;" width="9.963" height="8.761"/>
					<rect x="492.684" y="466.005" style="fill:#46248F;" width="9.963" height="8.761"/>
				</g>
				<g>
					<path style="fill:#FFFFFF;" d="M452.632,455.352h-7.611c-2.566,0-4.646-2.08-4.646-4.646V339.166
						c0-2.566,2.08-4.646,4.646-4.646h7.611c2.566,0,4.646,2.08,4.646,4.646v111.541
						C457.277,453.272,455.198,455.352,452.632,455.352z"/>
					<path style="fill:#13DCF2;" d="M452.262,343.145c0,1.931-1.565,3.496-3.496,3.496s-3.496-1.565-3.496-3.496
						s1.565-3.496,3.496-3.496S452.262,341.214,452.262,343.145z"/>
				</g>
				<g>
					<path style="fill:#FFFFFF;" d="M475.316,455.352h-7.611c-2.566,0-4.646-2.08-4.646-4.646V339.166
						c0-2.566,2.08-4.646,4.646-4.646h7.611c2.566,0,4.646,2.08,4.646,4.646v111.541
						C479.962,453.272,477.882,455.352,475.316,455.352z"/>
					<path style="fill:#F2D06B;" d="M475.007,343.145c0,1.931-1.565,3.496-3.496,3.496c-1.931,0-3.496-1.565-3.496-3.496
						s1.565-3.496,3.496-3.496C473.442,339.648,475.007,341.214,475.007,343.145z"/>
				</g>
				<g>
					<path style="fill:#FFFFFF;" d="M498.001,455.352h-7.611c-2.566,0-4.646-2.08-4.646-4.646V339.166
						c0-2.566,2.08-4.646,4.646-4.646h7.611c2.566,0,4.646,2.08,4.646,4.646v111.541
						C502.647,453.272,500.567,455.352,498.001,455.352z"/>
					<path style="fill:#9A8DF2;" d="M498.433,343.145c0,1.931-1.565,3.496-3.496,3.496c-1.931,0-3.496-1.565-3.496-3.496
						s1.565-3.496,3.496-3.496C496.868,339.648,498.433,341.214,498.433,343.145z"/>
				</g>
			</g>
		</g>
		<path style="fill:#9A8DF2;" d="M723.383,480.383H26.617c-1.551,0-2.809-1.257-2.809-2.809l0,0c0-1.551,1.257-2.809,2.809-2.809
			h696.766c1.551,0,2.808,1.257,2.808,2.809l0,0C726.191,479.126,724.934,480.383,723.383,480.383z"/>
	</g>
	<g>
		<g>
			<g>
				<path style="fill:#46248F;" d="M328.236,104.882H205.985c-1.961,0-3.551-1.59-3.551-3.551V32.271
					c0-1.961,1.59-3.551,3.551-3.551h122.251c1.961,0,3.551,1.59,3.551,3.551v69.059
					C331.788,103.292,330.198,104.882,328.236,104.882z"/>
				<path style="fill:#FFFFFF;" d="M324.559,99.442H208.755c-0.654,0-1.184-0.53-1.184-1.184V42.925h118.171v55.333
					C325.743,98.912,325.213,99.442,324.559,99.442z"/>
				<path style="fill:#FFFFFF;" d="M292.573,38.24h-82.66c-1.294,0-2.342-1.049-2.342-2.342l0,0c0-1.294,1.049-2.342,2.342-2.342
					h82.66c1.294,0,2.342,1.049,2.342,2.342l0,0C294.916,37.192,293.867,38.24,292.573,38.24z"/>
				<g>
					<path style="fill:#13DCF2;" d="M310.707,35.898c0,1.294-1.049,2.342-2.342,2.342c-1.294,0-2.342-1.049-2.342-2.342
						c0-1.294,1.049-2.342,2.342-2.342C309.658,33.556,310.707,34.604,310.707,35.898z"/>
					<path style="fill:#F2D06B;" d="M318.546,35.898c0,1.294-1.049,2.342-2.342,2.342c-1.294,0-2.342-1.049-2.342-2.342
						c0-1.294,1.049-2.342,2.342-2.342C317.497,33.556,318.546,34.604,318.546,35.898z"/>
					<path style="fill:#9A8DF2;" d="M325.743,35.898c0,1.294-1.049,2.342-2.342,2.342s-2.342-1.049-2.342-2.342
						c0-1.294,1.049-2.342,2.342-2.342S325.743,34.604,325.743,35.898z"/>
				</g>
			</g>
			<g>
				<path style="fill:#9A8DF2;" d="M295.082,48.119h23.609c1.307,0,2.367,1.06,2.367,2.368V91.88c0,1.308-1.06,2.368-2.367,2.368
					h-18.998c-1.206,0-2.219-0.907-2.353-2.105l-4.611-41.393C292.573,49.346,293.671,48.119,295.082,48.119z"/>
				<path style="fill:#FFFFFF;" d="M296.925,54.434l1.146,9.16c0.148,1.185,1.155,2.074,2.349,2.074h14.432
					c1.307,0,2.367-1.06,2.367-2.368v-9.16c0-1.307-1.06-2.367-2.367-2.367h-15.578C297.85,51.773,296.748,53.021,296.925,54.434z"
					/>
				<path style="fill:#FFFFFF;" d="M299.038,71.137l1.727,17.63c0.119,1.212,1.138,2.137,2.356,2.137h12.335
					c1.307,0,2.367-1.06,2.367-2.367v-17.63c0-1.307-1.06-2.368-2.367-2.368h-14.062C299.995,68.539,298.901,69.745,299.038,71.137z
					"/>
			</g>
			<g>
				<path style="fill:#F2D06B;" d="M243.547,67.686h-27.708c-1.41,0-2.552,1.143-2.552,2.552v21.324c0,1.41,1.143,2.552,2.552,2.552
					h27.708c1.41,0,2.553-1.143,2.553-2.552V70.239C246.1,68.829,244.957,67.686,243.547,67.686z"/>
				<path style="fill:#FFFFFF;" d="M228.23,90.231h-9.911c-0.705,0-1.276-0.571-1.276-1.276v-16.37c0-0.705,0.571-1.276,1.276-1.276
					h9.911c0.705,0,1.276,0.571,1.276,1.276v16.37C229.506,89.66,228.934,90.231,228.23,90.231z"/>
				<path style="fill:#FFFFFF;" d="M241.256,79.661h-8.323c-0.705,0-1.276-0.571-1.276-1.276v-5.8c0-0.705,0.571-1.276,1.276-1.276
					h8.323c0.705,0,1.276,0.571,1.276,1.276v5.8C242.532,79.09,241.961,79.661,241.256,79.661z"/>
				<path style="fill:#FFFFFF;" d="M241.068,90.231h-8.323c-0.705,0-1.276-0.571-1.276-1.276v-5.8c0-0.705,0.571-1.276,1.276-1.276
					h8.323c0.705,0,1.276,0.571,1.276,1.276v5.8C242.345,89.66,241.773,90.231,241.068,90.231z"/>
			</g>
			<g>
				<path style="fill:#9A8DF2;" d="M243.547,46.913h-27.708c-1.41,0-2.552,1.143-2.552,2.553v12.925c0,1.41,1.143,2.553,2.552,2.553
					h27.708c1.41,0,2.553-1.143,2.553-2.553V49.466C246.1,48.056,244.957,46.913,243.547,46.913z"/>
				<path style="fill:#FFFFFF;" d="M239.712,60.084h-20.036c-1.307,0-2.367-1.06-2.367-2.368V54.14c0-1.307,1.06-2.367,2.367-2.367
					h20.036c1.307,0,2.367,1.06,2.367,2.367v3.576C242.079,59.024,241.019,60.084,239.712,60.084z"/>
			</g>
			<g>
				<path style="fill:#13DCF2;" d="M252.169,50.257l-1.716,41.393c-0.056,1.345,1.019,2.465,2.365,2.465H288.6
					c1.418,0,2.518-1.238,2.351-2.646l-4.913-41.393c-0.141-1.191-1.151-2.088-2.351-2.088h-29.152
					C253.266,47.987,252.222,48.988,252.169,50.257z"/>
				<path style="fill:#FFFFFF;" d="M257.159,54.071l-0.994,33.723c-0.039,1.334,1.032,2.437,2.367,2.437h6.528
					c1.307,0,2.367-1.06,2.367-2.367V54.14c0-1.307-1.06-2.367-2.367-2.367h-5.534C258.245,51.773,257.197,52.791,257.159,54.071z"
					/>
				<path style="fill:#FFFFFF;" d="M271.39,54.14v33.723c0,1.308,1.06,2.367,2.367,2.367h10.193c1.419,0,2.52-1.24,2.351-2.649
					l-4.042-33.723c-0.143-1.19-1.152-2.086-2.351-2.086h-6.152C272.45,51.773,271.39,52.833,271.39,54.14z"/>
			</g>
		</g>
		<g>
			<path style="fill:#F2D06B;" d="M250.438,185.01c-11.644-17.835-10.654-41.167,2.373-57.735
				c13.444-17.098,36.867-23.38,57.309-15.262c5.148-26.52,30.89-47.475,57.903-47.135c27.013,0.34,52.22,21.935,56.699,48.576
				c12.146-12.83,31.532-18.291,48.589-13.686c25.182,6.798,33.51,31.533,35.101,36.279c8.41,25.086-3.484,46.451-5.462,49.869"/>
			<g>
				<text transform="matrix(1 0 0 1 321.4287 152.1538)" style="fill:#FFFFFF; font-family:'OpenSans-Bold'; font-size:38.1037px;">.COM</text>
			</g>
		</g>
		<g>
			<g>
				<path style="fill:#46248F;" d="M546.247,245.758H423.996c-1.961,0-3.551-1.59-3.551-3.551v-69.059
					c0-1.961,1.59-3.551,3.551-3.551h122.251c1.961,0,3.551,1.59,3.551,3.551v69.059
					C549.799,244.168,548.209,245.758,546.247,245.758z"/>
				<path style="fill:#FFFFFF;" d="M542.57,240.318H426.766c-0.654,0-1.184-0.53-1.184-1.184v-55.333h118.171v55.333
					C543.754,239.788,543.224,240.318,542.57,240.318z"/>
				<path style="fill:#FFFFFF;" d="M510.585,179.117h-82.66c-1.294,0-2.342-1.049-2.342-2.342v0c0-1.294,1.049-2.342,2.342-2.342
					h82.66c1.294,0,2.342,1.049,2.342,2.342v0C512.927,178.068,511.878,179.117,510.585,179.117z"/>
				<g>
					<path style="fill:#13DCF2;" d="M529.342,176.774c0,1.294-1.049,2.342-2.342,2.342c-1.294,0-2.342-1.049-2.342-2.342
						c0-1.294,1.049-2.342,2.342-2.342C528.293,174.432,529.342,175.481,529.342,176.774z"/>
					<path style="fill:#F2D06B;" d="M536.538,176.774c0,1.294-1.049,2.342-2.342,2.342c-1.294,0-2.342-1.049-2.342-2.342
						c0-1.294,1.049-2.342,2.342-2.342C535.49,174.432,536.538,175.481,536.538,176.774z"/>
					<path style="fill:#9A8DF2;" d="M543.735,176.774c0,1.294-1.049,2.342-2.342,2.342c-1.294,0-2.342-1.049-2.342-2.342
						c0-1.294,1.049-2.342,2.342-2.342C542.687,174.432,543.735,175.481,543.735,176.774z"/>
				</g>
			</g>
			<g>
				<g>
					<path style="fill:#13DCF2;" d="M481.838,206.45l-1.331,22.143c-0.058,0.97,0.712,1.788,1.684,1.788h43.122
						c1.018,0,1.804-0.895,1.673-1.904l-2.873-22.143c-0.109-0.841-0.825-1.47-1.673-1.47h-38.918
						C482.629,204.865,481.891,205.56,481.838,206.45z"/>
					<path style="fill:#FFFFFF;" d="M498.888,213.207v6.755c0,0.821,0.88,1.342,1.6,0.946l7.566-4.161
						c0.821-0.452,0.716-1.664-0.17-1.968l-7.566-2.594C499.617,211.945,498.888,212.466,498.888,213.207z"/>
					<g>
						<polygon style="fill:#13DCF2;" points="490.716,198.338 495.402,201.416 501.198,199.93 496.511,196.852 						"/>
						<polygon style="fill:#FFFFFF;" points="496.511,196.852 501.198,199.93 506.993,198.444 502.307,195.366 						"/>
						<path style="fill:#13DCF2;" d="M482.317,200.491c-1.398,0.359-2.011,2.001-1.189,3.187c0.493,0.713,1.379,1.043,2.219,0.828
							l6.26-1.605l-4.686-3.077L482.317,200.491z"/>
						<polygon style="fill:#FFFFFF;" points="484.92,199.824 489.606,202.902 495.402,201.416 490.716,198.338 						"/>
						<path style="fill:#13DCF2;" d="M520.626,190.669l-6.516,1.671l4.686,3.078l2.859-0.733c0.61-0.156,1.116-0.582,1.375-1.157h0
							C523.744,191.943,522.309,190.238,520.626,190.669z"/>
						<polygon style="fill:#FFFFFF;" points="508.075,193.887 512.761,196.965 518.797,195.417 514.11,192.34 						"/>
						<polygon style="fill:#13DCF2;" points="502.307,195.366 506.993,198.444 512.761,196.965 508.075,193.887 						"/>
					</g>
				</g>
				<g>
					<path style="fill:#F2D06B;" d="M459.013,195.815h-23.838c-2.045,0-3.702-1.658-3.702-3.702v0c0-2.045,1.658-3.702,3.702-3.702
						h23.838c2.045,0,3.702,1.658,3.702,3.702v0C462.716,194.157,461.058,195.815,459.013,195.815z"/>
					<path style="fill:#FFFFFF;" d="M460.581,192.113c0,0.835-0.676,1.511-1.511,1.511s-1.511-0.677-1.511-1.511
						c0-0.835,0.677-1.511,1.511-1.511S460.581,191.278,460.581,192.113z"/>
				</g>
				<g>
					<path style="fill:#F2D06B;" d="M459.013,207.677h-23.838c-2.045,0-3.702-1.658-3.702-3.702l0,0
						c0-2.045,1.658-3.702,3.702-3.702h23.838c2.045,0,3.702,1.658,3.702,3.702l0,0C462.716,206.02,461.058,207.677,459.013,207.677
						z"/>
					<path style="fill:#FFFFFF;" d="M436.951,203.975c0,0.835-0.676,1.511-1.511,1.511s-1.511-0.677-1.511-1.511
						s0.677-1.511,1.511-1.511S436.951,203.14,436.951,203.975z"/>
					<path style="fill:#FFFFFF;" d="M442.731,203.975c0,0.835-0.677,1.511-1.511,1.511s-1.511-0.677-1.511-1.511
						s0.677-1.511,1.511-1.511S442.731,203.14,442.731,203.975z"/>
				</g>
				<g>
					<path style="fill:#9A8DF2;" d="M459.013,219.54h-23.838c-2.045,0-3.702-1.658-3.702-3.702l0,0c0-2.045,1.658-3.702,3.702-3.702
						h23.838c2.045,0,3.702,1.658,3.702,3.702l0,0C462.716,217.882,461.058,219.54,459.013,219.54z"/>
					<circle style="fill:#FFFFFF;" cx="435.44" cy="215.837" r="1.511"/>
					<path style="fill:#FFFFFF;" d="M460.902,215.837c0,0.835-0.677,1.511-1.511,1.511c-0.835,0-1.511-0.676-1.511-1.511
						s0.676-1.511,1.511-1.511C460.226,214.326,460.902,215.003,460.902,215.837z"/>
				</g>
				<g>
					<path style="fill:#13DCF2;" d="M459.013,231.402h-23.838c-2.045,0-3.702-1.658-3.702-3.702l0,0
						c0-2.045,1.658-3.702,3.702-3.702h23.838c2.045,0,3.702,1.658,3.702,3.702l0,0
						C462.716,229.745,461.058,231.402,459.013,231.402z"/>
					<path style="fill:#FFFFFF;" d="M460.581,227.7c0,0.834-0.676,1.511-1.511,1.511s-1.511-0.677-1.511-1.511
						c0-0.835,0.677-1.511,1.511-1.511S460.581,226.865,460.581,227.7z"/>
					<path style="fill:#FFFFFF;" d="M448.927,227.7c0,0.834-0.677,1.511-1.511,1.511c-0.835,0-1.511-0.677-1.511-1.511
						c0-0.835,0.676-1.511,1.511-1.511C448.25,226.189,448.927,226.865,448.927,227.7z"/>
				</g>
			</g>
		</g>
		<g>
			<g>
				<path style="fill:#46248F;" d="M527.972,87.343h-74.514c-1.961,0-3.551-1.59-3.551-3.551V42.84c0-1.961,1.59-3.551,3.551-3.551
					h74.514c1.961,0,3.551,1.59,3.551,3.551v40.952C531.524,85.753,529.934,87.343,527.972,87.343z"/>
				<path style="fill:#FFFFFF;" d="M523.079,81.784H458c-1.308,0-2.367-1.06-2.367-2.368V51.936h69.815v27.481
					C525.447,80.724,524.387,81.784,523.079,81.784z"/>
				<path style="fill:#FFFFFF;" d="M502.972,48.084H456.97c-1.062,0-1.923-0.861-1.923-1.923l0,0c0-1.062,0.861-1.923,1.923-1.923
					h46.002c1.062,0,1.923,0.861,1.923,1.923l0,0C504.895,47.222,504.034,48.084,502.972,48.084z"/>
				<g>
					<path style="fill:#13DCF2;" d="M513.419,46.127c0,1.081-0.876,1.957-1.957,1.957c-1.081,0-1.957-0.876-1.957-1.957
						c0-1.081,0.876-1.957,1.957-1.957C512.542,44.17,513.419,45.046,513.419,46.127z"/>
					<path style="fill:#F2D06B;" d="M519.968,46.127c0,1.081-0.876,1.957-1.957,1.957c-1.081,0-1.957-0.876-1.957-1.957
						c0-1.081,0.876-1.957,1.957-1.957C519.092,44.17,519.968,45.046,519.968,46.127z"/>
					<path style="fill:#9A8DF2;" d="M525.981,46.127c0,1.081-0.876,1.957-1.957,1.957c-1.081,0-1.957-0.876-1.957-1.957
						c0-1.081,0.876-1.957,1.957-1.957C525.105,44.17,525.981,45.046,525.981,46.127z"/>
				</g>
			</g>
			<path style="fill:#9A8DF2;" d="M470.196,67.145l2.978-9.787c-0.945-0.277-1.943-0.432-2.978-0.432
				c-5.853,0-10.597,4.744-10.597,10.597c0,5.853,4.744,10.597,10.597,10.597c5.852,0,10.597-4.744,10.597-10.597
				c0-0.127-0.015-0.251-0.019-0.378H470.196z"/>
			<path style="fill:#13DCF2;" d="M494.261,66.862l9.787,2.978c0.277-0.946,0.432-1.943,0.432-2.978
				c0-5.853-4.744-10.597-10.597-10.597s-10.597,4.744-10.597,10.597s4.744,10.597,10.597,10.597c0.128,0,0.251-0.015,0.378-0.019
				V66.862z"/>
			<g>
				<path style="fill:#F2D06B;" d="M519.062,59.825h-7.877c-0.751,0-1.36-0.609-1.36-1.36l0,0c0-0.751,0.609-1.36,1.36-1.36h7.877
					c0.751,0,1.36,0.609,1.36,1.36l0,0C520.422,59.216,519.813,59.825,519.062,59.825z"/>
				<path style="fill:#13DCF2;" d="M519.062,64.737h-7.877c-0.751,0-1.36-0.609-1.36-1.36l0,0c0-0.751,0.609-1.36,1.36-1.36h7.877
					c0.751,0,1.36,0.609,1.36,1.36l0,0C520.422,64.128,519.813,64.737,519.062,64.737z"/>
				<path style="fill:#F2D06B;" d="M519.062,70.045h-7.877c-0.751,0-1.36-0.609-1.36-1.36l0,0c0-0.751,0.609-1.36,1.36-1.36h7.877
					c0.751,0,1.36,0.609,1.36,1.36l0,0C520.422,69.436,519.813,70.045,519.062,70.045z"/>
				<path style="fill:#9A8DF2;" d="M519.062,75.352h-7.877c-0.751,0-1.36-0.609-1.36-1.36l0,0c0-0.751,0.609-1.36,1.36-1.36h7.877
					c0.751,0,1.36,0.609,1.36,1.36l0,0C520.422,74.743,519.813,75.352,519.062,75.352z"/>
			</g>
		</g>
		<g>
			<g>
				<path style="fill:#46248F;" d="M321.968,256.887h-88.256c-2.323,0-4.206-1.883-4.206-4.206v-48.504
					c0-2.323,1.883-4.206,4.206-4.206h88.256c2.323,0,4.206,1.883,4.206,4.206v48.504
					C326.174,255.004,324.291,256.887,321.968,256.887z"/>
				<path style="fill:#FFFFFF;" d="M317.91,252.374h-80.555c-1.651,0-2.99-1.339-2.99-2.99v-35.417H320.9v35.417
					C320.9,251.036,319.561,252.374,317.91,252.374z"/>
				<path style="fill:#FFFFFF;" d="M292.998,209.011h-56.929c-1.341,0-2.429-1.087-2.429-2.429v-0.092
					c0-1.341,1.087-2.429,2.429-2.429h56.929c1.341,0,2.429,1.087,2.429,2.429v0.092
					C295.427,207.924,294.339,209.011,292.998,209.011z"/>
				<g>
					<path style="fill:#13DCF2;" d="M305.991,206.493c0,1.391-1.086,2.518-2.426,2.518c-1.34,0-2.426-1.127-2.426-2.518
						c0-1.391,1.086-2.518,2.426-2.518C304.905,203.975,305.991,205.102,305.991,206.493z"/>
					<path style="fill:#F2D06B;" d="M314.109,206.493c0,1.391-1.086,2.518-2.426,2.518c-1.34,0-2.426-1.127-2.426-2.518
						c0-1.391,1.086-2.518,2.426-2.518C313.023,203.975,314.109,205.102,314.109,206.493z"/>
					<path style="fill:#9A8DF2;" d="M321.562,206.493c0,1.391-1.086,2.518-2.426,2.518c-1.34,0-2.426-1.127-2.426-2.518
						c0-1.391,1.086-2.518,2.426-2.518C320.476,203.975,321.562,205.102,321.562,206.493z"/>
				</g>
			</g>
			<g>
				<path style="fill:#F2D06B;" d="M285.551,222.779v19.067c0,1.063-0.836,1.938-1.898,1.986l-13.84,0.627
					c-1.121,0.051-2.062-0.836-2.077-1.958l-0.278-19.694c-0.016-1.109,0.879-2.016,1.988-2.016h14.118
					C284.661,220.792,285.551,221.682,285.551,222.779z"/>
				<path style="fill:#FFFFFF;" d="M277,229.21c0.011,0.209,1.882,0.509,2.104,0.543c0.72,0.11,1.512,0.198,2.237,0.102
					c-0.214-1.07-0.311-2.188-0.345-3.292c-0.546,0.076-6.582,0.561-6.582,0.338c0.326,2.083,0.699,4.158,1.119,6.224
					c-0.547-0.319-1.161-0.548-1.794-0.551c-0.633-0.003-1.285,0.245-1.678,0.741c-0.55,0.694-0.481,1.731-0.05,2.504
					c0.633,1.137,2.002,1.815,3.29,1.63c1.288-0.185,2.411-1.221,2.698-2.49c0.217-0.958-0.01-1.958-0.301-2.896
					C277.407,231.125,277.05,230.191,277,229.21z"/>
			</g>
			<g>
				<path style="fill:#9A8DF2;" d="M312.757,242.323v-19.067c0-1.063-0.836-1.938-1.898-1.986l-13.84-0.627
					c-1.121-0.051-2.062,0.836-2.078,1.958l-0.278,19.694c-0.016,1.109,0.879,2.016,1.987,2.016h14.118
					C311.867,244.311,312.757,243.421,312.757,242.323z"/>
				<path style="fill:#FFFFFF;" d="M309.184,232.779c-3.249,1.88-6.377,3.969-9.359,6.248c0.235-3.53,0.413-7.063,0.532-10.599
					C303.42,229.964,305.97,231.592,309.184,232.779z"/>
			</g>
			<g>
				<path style="fill:#13DCF2;" d="M241.981,222.419v19.301c0,0.999,0.786,1.821,1.783,1.866l14.078,0.638
					c1.053,0.048,1.937-0.785,1.952-1.84l0.282-19.939c0.015-1.042-0.826-1.894-1.868-1.894h-14.36
					C242.817,220.551,241.981,221.387,241.981,222.419z"/>
				<path style="fill:#FFFFFF;" d="M250.95,235.7c1.142-0.46,2.174-1.256,2.773-2.332c0.599-1.076,0.723-2.441,0.186-3.549
					s-1.776-1.878-2.998-1.729c0.127-0.862,0.255-1.725,0.382-2.587c-1.12,0.918-2.351,1.701-3.657,2.325
					c0.455,1.33,1.144,2.58,2.026,3.674c0.238-0.528,0.476-1.056,0.714-1.584c0.925,0.231,1.568,1.21,1.507,2.162
					c-0.061,0.951-0.757,1.805-1.644,2.155s-1.923,0.227-2.761-0.227c-0.019,0.546-0.039,1.093-0.056,1.64
					c-0.019,0.622,0.004,0.658,0.635,0.63C249.043,236.236,250.031,236.071,250.95,235.7z"/>
			</g>
		</g>
	</g>
	<g>
		<g>
			<g>
				<path style="fill:#AD7840;" d="M650.041,260.645c-8.012,7.025-14.872,15.247-21.695,23.431c-2.246-3.47-4.492-6.94-6.738-10.41
					c-0.322-0.498-0.65-0.992-0.981-1.485c-1.115-1.661-2.262-3.302-3.333-4.993c-0.847-1.338-1.89-2.729-2.472-4.207
					c-1.034-2.626-0.874-5.87-2.88-8.052c-0.685-0.745-1.678-1.299-2.678-1.15c-1.306,0.195-2.135,1.445-2.971,2.467
					c-0.966,1.182-2.214,2.351-2.256,3.877c-0.029,1.022,0.506,1.964,1.003,2.857c0.346,0.622,0.681,1.249,1.005,1.882
					c1.759,3.432,2.897,7.036,4.352,10.574c1.011,2.46,2.063,4.904,3.136,7.338c2.26,5.133,4.752,10.164,7.464,15.073
					c0.847,1.534,1.877,3.187,3.56,3.672c1.823,0.525,3.693-0.516,5.305-1.515c8.717-5.405,17.434-10.81,26.151-16.215"/>
				<path style="fill:#573C20;" d="M627.473,288.141c-0.373,1.337-0.661,2.752-0.343,4.103c0.06,0.256,0.187,0.548,0.446,0.594
					c0.301,0.053,0.528-0.263,0.653-0.542c0.59-1.316,0.763-2.789,0.707-4.23c-0.044-1.147-0.084-2.665-0.528-3.728
					c-0.189,0.378-0.181,0.897-0.266,1.318C627.973,286.497,627.703,287.316,627.473,288.141z"/>
				<path style="fill:#573C20;" d="M627.003,297.163c0.714,0.278,1.202,1.049,1.149,1.813c-0.35-0.574-0.988-0.947-1.655-1.031
					c-0.683-0.086-1.325,0.122-1.911,0.457c0.207-0.352,0.349-0.772,0.694-1.013C625.772,297.045,626.441,296.944,627.003,297.163z"
					/>
			</g>
			<g>
				<path style="fill:#F2D06B;" d="M635.704,273.653c-0.358,0.433-0.716,0.866-1.075,1.299c-0.288,0.348-0.579,0.702-0.753,1.118
					c-0.165,0.394-0.111,0.698-0.088,1.1c0.022,0.388-0.045,0.758-0.076,1.161c-0.063,0.805-0.001,1.616,0.085,2.417
					c0.52,4.849,1.953,9.598,4.203,13.925c0.127,0.243,0.281,0.507,0.543,0.589c0.289,0.09,0.59-0.077,0.847-0.237
					c3.021-1.886,6.043-3.772,9.064-5.658c0.552-0.345,1.128-0.714,1.44-1.285c0.415-0.76,0.27-1.689,0.128-2.543
					c-0.135-0.815-0.257-1.632-0.364-2.451c-0.537-4.087-0.761-8.242-0.586-12.363c0.032-0.768,0.254-1.446,0.245-2.222
					c-0.012-1.036-0.002-2.073,0.036-3.109c0.075-2.072,0.253-4.139,0.533-6.193c-2.329,1.858-4.664,3.722-6.765,5.834
					c-1.686,1.694-3.212,3.538-4.735,5.379C637.491,271.493,636.598,272.573,635.704,273.653z"/>
				<path style="fill:#B59C50;" d="M643.534,292.331c-1.311,1.035-2.744,1.917-4.259,2.619c0.799-8.715,3.095-17.291,6.758-25.239
					c-0.851,7.84-1.702,15.68-2.552,23.52"/>
			</g>
			<g>
				<g>
					<g>
						<path style="fill:#9A8DF2;" d="M594.697,246.157l8.624-0.911c0.679-0.072,1.334,0.274,1.657,0.876l9.092,16.928
							c0.272,0.507,0.266,1.117-0.015,1.618l-0.6,1.068c-0.215,0.383-0.573,0.667-0.995,0.79l-9.699,2.826
							c-0.826,0.241-1.701-0.182-2.026-0.979l-7.8-19.134c-0.182-0.445-0.164-0.947,0.049-1.378l0.383-0.777
							C593.622,246.567,594.124,246.217,594.697,246.157z"/>
						<g>
							<g>
								<path style="fill:#351B6B;" d="M594.807,245.574l9.42-1.745c0.714-0.132,1.426,0.235,1.732,0.894l8.416,18.105
									c0.411,0.883-0.062,1.925-0.997,2.198l-9.716,2.831c-0.775,0.226-1.596-0.164-1.91-0.907l-8.119-19.191
									C593.235,246.821,593.807,245.759,594.807,245.574z"/>
								<path style="fill:#FFFFFF;" d="M608.741,264.934c0,0.392-0.318,0.71-0.71,0.71c-0.392,0-0.71-0.318-0.71-0.71
									s0.318-0.71,0.71-0.71C608.423,264.223,608.741,264.541,608.741,264.934z"/>
							</g>
							<path style="fill:#FFFFFF;" d="M595.426,246.388l8.94-1.656c0.357-0.066,0.713,0.118,0.866,0.447l7.475,16.081
								c0.205,0.442-0.031,0.962-0.499,1.099l-9.18,2.675c-0.387,0.113-0.798-0.082-0.955-0.454l-7.235-17.1
								C594.641,247.012,594.927,246.481,595.426,246.388z"/>
						</g>
					</g>
					<path style="fill:#13DCF2;" d="M596.25,248.272l0.037,0.09c0.151,0.368,0.547,0.572,0.935,0.483l7.09-1.63
						c0.505-0.116,0.775-0.669,0.555-1.138l0,0c-0.161-0.344-0.538-0.531-0.909-0.451l-7.128,1.54
						C596.335,247.274,596.057,247.803,596.25,248.272z"/>
					<path style="fill:#F2D06B;" d="M601.891,258.951l1.222,3.367c0.168,0.463,0.664,0.719,1.139,0.587l5.678-1.58
						c0.573-0.16,0.857-0.804,0.588-1.335l-1.539-3.037c-0.196-0.388-0.632-0.591-1.055-0.492l-5.362,1.25
						C602.013,257.839,601.698,258.42,601.891,258.951z"/>
					<path style="fill:#9A8DF2;" d="M606.342,251.195l-3.25,0.916l1.532-2.376c-0.466-0.201-0.983-0.329-1.535-0.359
						c-2.14-0.114-3.953,1.26-4.049,3.068c-0.096,1.808,1.561,3.367,3.701,3.48c2.14,0.114,3.953-1.26,4.049-3.068
						C606.822,252.259,606.648,251.695,606.342,251.195z"/>
				</g>
				<path style="fill:#AD7840;" d="M614.285,254.814c0.805,1.286,1.235,2.775,1.377,4.278c0.072,0.761,0.075,1.531,0.011,2.293
					c-0.03,0.361-0.182,0.705-0.281,1.056c-0.107,0.38-0.344,0.849-0.364,1.241c0.013-0.24-0.414-0.779-0.531-0.999
					c-0.206-0.388-0.413-0.777-0.619-1.165c-0.363-0.683-0.799-1.353-1.03-2.092c-0.333-1.067-0.493-2.204-1.038-3.179
					c-0.651-1.164-1.861-1.687-2.685-2.69c-0.629-0.765-0.937-1.716-1.056-2.688c-0.116-0.95-0.275-1.988,0.179-2.874
					c0.141-0.276,0.396-0.56,0.702-0.511c0.277,0.044,0.435,0.331,0.558,0.584c0.614,1.263,1.385,2.45,2.288,3.525
					C612.653,252.614,613.576,253.681,614.285,254.814z"/>
				<g>
					<path style="fill:#AD7840;" d="M595.471,253.252c0.238-0.387,0.497-0.752,0.747-1.083c0.333-0.44,0.787-0.894,1.337-0.849
						c0.559,0.046,0.955,0.627,0.975,1.188c0.02,0.56-0.244,1.09-0.539,1.567c0.467-0.104,0.965,0.184,1.194,0.604
						c0.228,0.419,0.259,0.851,0.131,1.297c-0.074,0.258-0.168,0.51-0.279,0.754c-0.059,0.129-0.197,0.545-0.326,0.608
						c0.247-0.121,0.499-0.243,0.769-0.295c0.27-0.053,0.567-0.029,0.795,0.125c0.31,0.209,0.433,0.611,0.44,0.985
						c0.013,0.731-0.326,1.417-0.656,2.069c0.308-0.199,0.637-0.402,1.003-0.419c0.367-0.017,0.772,0.225,0.799,0.591
						c0.021,0.28-0.173,0.525-0.359,0.734c-0.553,0.624-1.14,1.23-1.551,1.956c-0.41,0.726-0.628,1.607-0.378,2.402
						c-0.645-0.178-1.294-0.538-1.746-1.039c-0.189-0.21-0.206-0.365-0.245-0.635c-0.011-0.08-0.098-1.081,0.008-1.06
						c-0.583-0.117-1.101-0.525-1.351-1.066c-0.25-0.54-0.226-1.199,0.062-1.72c-0.055,0.098-0.612-0.225-0.672-0.27
						c-0.205-0.153-0.373-0.37-0.486-0.599c-0.237-0.478,0.022-1.231,0.283-1.655c-0.125,0.204-0.553-0.226-0.612-0.306
						c-0.181-0.245-0.253-0.555-0.279-0.859C594.449,255.243,594.898,254.183,595.471,253.252z"/>
					<g>
						<path style="fill:#573C20;" d="M600.091,260.194c-0.67-0.168-1.403,0.128-1.863,0.643c-0.224,0.252-0.39,0.55-0.503,0.867
							c-0.095,0.266-0.231,0.666-0.177,0.949c0.317-0.53,0.593-1.032,1.045-1.469c0.22-0.213,0.459-0.405,0.715-0.573
							C599.444,260.521,599.927,260.153,600.091,260.194z"/>
						<path style="fill:#573C20;" d="M596.421,259.718c0.533-1.036,1.376-1.909,2.393-2.475c-0.652,0.084-1.249,0.454-1.675,0.956
							c-0.426,0.501-0.692,1.126-0.836,1.769"/>
						<path style="fill:#573C20;" d="M597.914,253.989c-0.809,0.08-1.522,0.63-1.943,1.325c-0.421,0.695-0.582,1.52-0.619,2.332
							c0-0.064,0.175-0.246,0.207-0.332c0.05-0.137,0.086-0.28,0.136-0.417c0.102-0.279,0.226-0.551,0.367-0.813
							c0.286-0.528,0.649-1.015,1.074-1.439C597.377,254.406,597.637,254.186,597.914,253.989z"/>
					</g>
				</g>
			</g>
		</g>
		<g>
			<path style="fill:#F2D06B;" d="M632.26,454.676c-3.131,3.751-7.378,6.559-12.055,7.971c-1.943,0.586-4.02,0.968-5.639,2.191
				c-2.287,1.727-3.145,4.715-3.865,7.49c-0.188,0.726-0.328,1.625,0.239,2.117c0.364,0.315,0.891,0.332,1.372,0.333
				c9.393,0.015,18.787,0.03,28.18,0.045c0.478,0.001,0.991-0.009,1.379-0.289c0.509-0.367,0.627-1.064,0.701-1.687
				c0.693-5.874,1.112-11.78,1.255-17.693"/>
			<g>
				<path style="fill:#281450;" d="M641.644,327.07c-6.03,37.734-10.133,91.681-12.29,129.833c5.203-0.608,9.898,0.136,14.989,0.864
					c1.213-2.498,0.696-4.989,1.032-7.621c0.442-3.458,2.062-6.955,3.141-10.258c2.367-7.242,4.735-14.483,7.102-21.725
					c0.813-2.486,1.628-5.181,0.808-7.665c-0.729-2.205-2.653-3.886-3.252-6.129c-0.54-2.019,0.079-4.146,0.693-6.143
					c3.723-12.11,7.446-24.22,11.169-36.33c3.406-11.079,5.573-22.182,8.468-33.412"/>
				<path style="fill:none;stroke:#46248F;stroke-miterlimit:10;" d="M639.211,455.85c3.317-12.866,4.576-26.102,9.247-38.705
					c2.611-7.348-1.005-7.878-4.375-12.813c4.777-19.634,14.93-38.54,21.567-57.877"/>
			</g>
			<path style="fill:none;stroke:#351B6B;stroke-width:0.5;stroke-linecap:round;stroke-linejoin:round;stroke-miterlimit:10;" d="
				M610.808,473.142c10.505,0.141,21.015-0.159,31.494-0.899"/>
			<g>
				<path style="fill:none;stroke:#351B6B;stroke-width:0.5;stroke-linecap:round;stroke-linejoin:round;stroke-miterlimit:10;" d="
					M624.877,456.794c-0.295-0.002-0.609,0.023-0.849,0.195c-0.387,0.278-0.435,0.88-0.184,1.284c0.251,0.405,0.727,0.625,1.2,0.685
					c0.472,0.06,0.95-0.018,1.421-0.087c1.623-0.24,3.307-0.38,4.884,0.077c1.576,0.456,3.036,1.623,3.424,3.217
					c0.116,0.479,0.07,1.097-0.373,1.311c-0.477,0.23-1.003-0.178-1.374-0.556c-1.351-1.371-2.702-2.742-4.053-4.113
					c-0.498-0.505-0.992-1.191-1.628-1.523C626.632,456.913,625.668,456.798,624.877,456.794z"/>
				<path style="fill:none;stroke:#351B6B;stroke-width:0.5;stroke-linecap:round;stroke-linejoin:round;stroke-miterlimit:10;" d="
					M624.589,460.111c1.667,0.421,3.248,1.179,4.621,2.214"/>
				<path style="fill:none;stroke:#351B6B;stroke-width:0.5;stroke-linecap:round;stroke-linejoin:round;stroke-miterlimit:10;" d="
					M621.951,461.313c1.621,0.626,3.174,1.427,4.625,2.384"/>
				<path style="fill:none;stroke:#351B6B;stroke-width:0.5;stroke-linecap:round;stroke-linejoin:round;stroke-miterlimit:10;" d="
					M619.33,461.809c1.531,0.884,2.988,1.896,4.352,3.021"/>
			</g>
		</g>
		<g>
			<path style="fill:#F2D06B;" d="M689.217,456.803c-0.355,1.124-1.09,2.103-1.972,2.885c-0.883,0.782-1.912,1.381-2.964,1.913
				c-1.786,0.904-3.66,1.633-5.587,2.174c-0.826,0.232-1.624,0.518-2.458,0.694c-0.753,0.159-1.594,0.32-2.207,0.819
				c-2.224,1.808-2.974,4.825-3.594,7.623c-0.162,0.733-0.27,1.636,0.314,2.107c0.375,0.302,0.902,0.3,1.383,0.284
				c7.925-0.275,15.85-0.543,23.775-0.814c1.267-0.043,2.662-0.263,3.922-0.13c0.895,0.094,1.9,0.332,2.626-0.413
				c0.55-0.564,0.555-1.449,0.51-2.236c-0.316-5.594-1.357-11.118-2.395-16.623"/>
			<g>
				<path style="fill:#351B6B;" d="M658.255,329.726c7.573,38.251,18.993,91.129,27.278,129.232
					c5.117-1.551,11.129-2.632,16.432-1.946c-0.968-9.839-1.569-19.711-2.098-29.582c-0.348-6.488,1.208-16.093-3.11-21.534
					c-1.136-1.432-2.714-2.473-3.799-3.944c-1.771-2.401-1.987-5.573-2.119-8.554c-0.54-12.194-0.765-24.402-0.646-36.607
					c0.111-11.436,1.53-22.904,0.411-34.279"/>
				<path style="fill:none;stroke:#46248F;stroke-miterlimit:10;" d="M684.489,337.537c1.07,9.412,0.886,19.237,1.56,28.762
					c0.725,10.245,1.575,20.482,2.549,30.707c0.304,3.189,0.666,6.514,2.404,9.205c1.06,1.64,2.582,2.956,3.546,4.655
					c1.27,2.237,1.452,4.907,1.606,7.474c0.761,12.727,1.521,25.454,2.282,38.181"/>
			</g>
			<path style="fill:none;stroke:#351B6B;stroke-width:0.5;stroke-linecap:round;stroke-linejoin:round;stroke-miterlimit:10;" d="
				M670.796,473.01c3.59,0.542,7.245,0.35,10.87,0.156c6.942-0.37,13.884-0.741,20.826-1.111"/>
			<g>
				<path style="fill:none;stroke:#351B6B;stroke-width:0.5;stroke-linecap:round;stroke-linejoin:round;stroke-miterlimit:10;" d="
					M683.237,459.017c-0.333-0.075-0.734-0.118-0.967,0.131c-0.307,0.327-0.06,0.884,0.301,1.15c0.893,0.657,2.13,0.363,3.222,0.169
					c1.381-0.246,2.799-0.283,4.19-0.109c0.876,0.109,1.781,0.32,2.448,0.899c0.317,0.275,0.575,0.645,0.622,1.063
					c0.047,0.418-0.161,0.878-0.549,1.039c-0.331,0.137-0.708,0.042-1.048-0.07c-1.468-0.487-2.79-1.271-3.914-2.325
					C686.427,459.914,684.705,459.349,683.237,459.017z"/>
				<path style="fill:none;stroke:#351B6B;stroke-width:0.5;stroke-linecap:round;stroke-linejoin:round;stroke-miterlimit:10;" d="
					M681.567,461.607c1.595,0.384,3.141,0.975,4.587,1.752"/>
				<path style="fill:none;stroke:#351B6B;stroke-width:0.5;stroke-linecap:round;stroke-linejoin:round;stroke-miterlimit:10;" d="
					M677.365,463.359c1.763,0.211,3.453,0.984,4.766,2.179"/>
				<path style="fill:none;stroke:#351B6B;stroke-width:0.5;stroke-linecap:round;stroke-linejoin:round;stroke-miterlimit:10;" d="
					M680.128,462.599c1.434,0.58,2.8,1.328,4.06,2.226"/>
			</g>
		</g>
		<g>
			<path style="fill:#F2D06B;" d="M691.887,298.439c0.139,3.336,0.261,6.672,0.367,10.009c0.168,5.297,0.294,10.595,0.378,15.894
				c0.042,2.649,0.073,5.299,0.094,7.949c0.004,0.516,0.068,6.917-0.038,6.924c-0.843,0.056-1.687,0.11-2.53,0.161
				c-10.544,0.633-21.116,0.807-31.675,0.522c-5.28-0.142-10.556-0.399-15.825-0.771c-2.139-0.151-3.565-0.138-3.439-2.615
				c0.134-2.637,0.325-5.273,0.509-7.907c0.73-10.483,1.684-20.95,2.858-31.392c0.748-6.646,1.585-13.28,2.512-19.9
				c0.702-5.013,0.341-12.24,3.332-16.443c0.785-1.103,1.975-1.784,3.147-2.381c9.37-4.767,21.427-6.6,31.003-1.576
				c2.218,1.164,4.379,2.041,5.816,4.347c1.394,2.237,1.636,5.044,1.827,7.721C690.922,278.789,691.477,288.61,691.887,298.439z"/>
			<path style="fill:#B59C50;" d="M691.748,296.48c-0.136-3.839-0.273-7.678-0.409-11.517c-0.011-0.303-0.03-0.63-0.22-0.867
				c-0.276-0.344-0.783-0.356-1.223-0.378c-2.493-0.123-4.617-1.492-6.052-3.474c0.029,2.841,1.221,5.613,2.443,8.134
				C687.712,291.319,689.554,294.058,691.748,296.48z"/>
			<path style="fill:#FFFFFF;" d="M670.134,300.699c-1.598-2.396-3.284-4.818-4.654-7.352c1.717-1.132,3.433-2.264,5.15-3.395
				c-4.729-1.364-9.392-2.479-14.121-3.843c-1.001,4.21-2.003,8.421-3.004,12.631c2.214-0.942,4.306-2.172,6.207-3.648
				c1.509,3.339,3.119,6.506,5.4,9.374C666.552,303.353,668.532,301.559,670.134,300.699z"/>
		</g>
		<g>
			<path style="fill:#AD7840;" d="M659.356,258.826c-0.086,0.727-0.143,1.555,0.348,2.098c0.446,0.493,1.183,0.566,1.848,0.581
				c3.391,0.074,6.794-0.534,9.95-1.775c0.998-0.393,2.04-0.911,2.536-1.861c0.315-0.603,0.367-1.303,0.413-1.981
				c0.472-6.937,0.944-13.888,0.695-20.837c-0.059-1.651-0.175-3.361-0.952-4.82c-0.777-1.458-2.396-2.597-4.022-2.3
				c-1.791,0.327-2.864,2.146-3.56,3.828c-1.56,3.768-2.442,7.816-2.59,11.892c-0.054,1.497-0.36,2.578-1.98,2.726
				c-1.557,0.143-1.31,0.851-1.493,2.388C660.152,252.119,659.754,255.472,659.356,258.826z"/>
			<path style="fill:#573C20;" d="M659.782,255.859c2.498-0.437,4.831-1.765,6.483-3.689c1.652-1.924,2.612-4.43,2.667-6.966
				c-1.76,2.301-4.856,3.499-7.707,2.98c-0.246,0.512-0.567,0.994-0.674,1.551c-0.13,0.678-0.243,1.359-0.343,2.042
				C660.01,253.131,659.868,254.493,659.782,255.859z"/>
		</g>
		<g>
			<path style="fill:#AD7840;" d="M649.158,240.125c-1.271,13.863,13.082,10.941,20.491,7.571
				c5.516-7.412,12.803-25.021,2.531-31.309C657.015,207.812,651.013,219.878,649.158,240.125z"/>
			<path style="fill:#351B6B;" d="M689.635,223.556c1.824-1.548,2.563-4.253,1.78-6.513c-0.783-2.26-3.037-3.929-5.428-4.017
				c0.718-2.208-0.071-4.718-1.672-6.387c-2.031-2.118-5.477-2.717-8.103-1.409c0.438-2.949-2.091-5.787-5.017-6.36
				c-2.926-0.574-5.969,0.709-8.207,2.679c-1.907-2.096-5.133-2.871-7.784-1.87c-2.651,1.001-4.559,3.716-4.604,6.549
				c-2.608-0.31-5.319,1.389-6.177,3.872c-0.858,2.482,0.224,5.492,2.467,6.86c-1.679,1.559-1.931,4.419-0.551,6.248
				c0.909,1.205,2.441,1.849,3.933,1.814c0.704-0.017,1.494-0.173,2.099-0.554c0.351-0.221,1.434-1.424,1.004-1.923
				c1.093,1.268,2.697,2.207,4.367,2.092c1.67-0.116,3.272-1.537,3.211-3.21c0.279,1.577,1.672,3.135,3.32,3.197
				c1.572,0.058,3.063-0.997,3.758-2.407c-0.242,1.051,0.207,2.228,1.088,2.85c0.881,0.622,2.14,0.652,3.049,0.072
				c-1.403,1.404-2.437,3.08-2.735,5.083c-0.221,1.489,0.067,3.094,0.996,4.278c0.776,0.989,2.263,1.824,3.562,1.551
				c1.001-0.21,2.002-1.661,2.362-2.539c0.147,0.737,0.044,1.475-0.082,2.206c-0.115,0.667,0.031,1.193,0.034,1.866
				c0.003,0.638-0.107,1.277-0.318,1.879c-0.143,0.406-0.848,1.209-0.858,1.568c-0.063,2.355-0.127,4.71-0.19,7.065
				c1.601-0.954,2.644-2.781,2.651-4.645c1.51,0.883,3.499,0.8,5.003-0.093c1.504-0.893,2.511-2.526,2.772-4.256
				c0.262-1.73-0.187-3.533-1.109-5.02c1.503,0.578,3.286,0.197,4.544-0.808c1.258-1.005,2.009-2.564,2.207-4.162
				C691.225,227.364,690.966,224.822,689.635,223.556z"/>
			<g>
				<path style="fill:#AD7840;" d="M677.222,231.548c0.57-0.04,1.134,0.18,1.607,0.502c1.14,0.778,1.8,2.142,1.917,3.517
					c0.117,1.375-0.262,2.757-0.868,3.996c-0.479,0.98-1.116,1.905-1.988,2.559c-0.872,0.654-2.004,1.012-3.073,0.799
					c-0.399-0.079-0.807-0.255-1.026-0.598c-0.167-0.262-0.202-0.584-0.225-0.894c-0.2-2.722,0.024-6.12,1.593-8.486
					C675.621,232.245,676.353,231.609,677.222,231.548z"/>
				<path style="fill:#573C20;" d="M675.403,237.772c-0.011,0.838,0.269,1.761,0.993,2.183c0.367,0.213,0.928,0.221,1.127-0.154
					c0.111-0.209,0.069-0.469-0.033-0.683c-0.102-0.214-0.256-0.397-0.378-0.599c-0.307-0.508-0.372-1.139-0.228-1.71
					c0.074-0.295,0.203-0.578,0.386-0.822c0.198-0.266,0.523-0.397,0.719-0.645c0.338-0.427-0.235-0.685-0.642-0.668
					c-0.572,0.023-1.063,0.61-1.348,1.056C675.612,236.333,675.412,237.057,675.403,237.772z"/>
			</g>
			<g>
				<g>
					<path style="fill:#351B6B;" d="M660.922,234.363c0.029,0.23,0.089,0.461,0.22,0.652c0.131,0.191,0.341,0.338,0.573,0.348
						c0.277,0.012,0.529-0.167,0.706-0.381c0.405-0.489,0.52-1.153,0.556-1.786c0.015-0.263,0.018-0.533-0.062-0.783
						c-0.08-0.251-0.257-0.484-0.506-0.569C661.275,231.455,660.838,233.698,660.922,234.363z"/>
					
						<path style="fill:none;stroke:#351B6B;stroke-width:0.5;stroke-linecap:round;stroke-linejoin:round;stroke-miterlimit:10;" d="
						M660.67,229.15c0.716-0.479,1.679-0.561,2.466-0.21c0.786,0.35,1.369,1.122,1.492,1.974"/>
				</g>
				<g>
					<path style="fill:#351B6B;" d="M652.177,232.826c0.029,0.23,0.089,0.461,0.22,0.652c0.131,0.191,0.341,0.337,0.573,0.348
						c0.277,0.012,0.529-0.167,0.706-0.381c0.405-0.489,0.52-1.153,0.556-1.786c0.015-0.263,0.018-0.533-0.062-0.784
						c-0.08-0.251-0.257-0.484-0.507-0.569C652.531,229.918,652.093,232.161,652.177,232.826z"/>
					
						<path style="fill:none;stroke:#351B6B;stroke-width:0.5;stroke-linecap:round;stroke-linejoin:round;stroke-miterlimit:10;" d="
						M656.011,228.346c-0.431-0.58-1.11-0.97-1.828-1.051s-1.467,0.149-2.016,0.619"/>
				</g>
				<path style="fill:#FFFFFF;" d="M654.442,243.491c1.313,0.426,2.763,0.415,4.069-0.032c1.306-0.446,2.46-1.325,3.238-2.465
					c0.206-0.301,0.392-0.666,0.291-1.017c-2.102,0.941-4.657,0.794-6.638-0.382C655.401,240.963,655.081,242.282,654.442,243.491z"
					/>
				<path style="fill:#AD5418;" d="M655.066,234.631c-0.484,0.368-1.014,0.686-1.426,1.133c-0.412,0.448-0.697,1.07-0.556,1.662
					c0.102,0.431,0.424,0.793,0.816,0.999c0.889,0.468,2.047,0.134,2.75-0.584c0.703-0.717,1.02-1.733,1.144-2.73
					c0.094-0.754,0.091-1.516,0.088-2.276c-0.001-0.237-0.003-0.48-0.088-0.701c-0.112-0.292-0.484-0.604-0.805-0.391
					c-0.238,0.158-0.207,0.576-0.289,0.825C656.42,233.411,655.76,234.104,655.066,234.631z"/>
			</g>
		</g>
		<g>
			<g>
				<path style="fill:#AD7840;" d="M717.346,283.652c1.581,1.31,3.24,2.731,3.852,4.691c0.742,2.376-0.243,4.941-1.496,7.091
					c-5.4,9.271-15.485,14.686-22.703,22.624c0.42-0.462-4.009-5.324-4.552-5.718c-0.397-0.285,5.467-10.109,6.026-11.043
					c1.958-3.271,4.621-6.375,6.288-9.748c-3.443-1.727-6.885-3.453-10.328-5.18c-1.721-0.863-3.443-1.727-5.164-2.59
					c-1.375-0.69-2.717-1.188-3.656-2.452c-0.687-0.924-0.977-2.076-1.245-3.195c-1.327-5.542-2.829-11.392,0.485-16.545
					c0.338-0.526,0.761-1.061,1.365-1.218c0.715-0.185,1.439,0.213,2.062,0.61c1.985,1.264,3.878,2.666,5.768,4.067
					c3.942,2.921,7.859,5.819,11.628,8.94C709.566,277.208,713.456,280.43,717.346,283.652z"/>
				<path style="fill:#573C20;" d="M708.251,290.742c0.774,0.07,1.574,0.333,2.072,0.929c0.101,0.12,0.189,0.258,0.212,0.413
					c0.023,0.155-0.035,0.33-0.171,0.409c-0.19,0.11-0.427-0.003-0.62-0.107c-1.609-0.862-3.216-0.907-4.97-0.787
					C705.794,290.94,707.042,290.633,708.251,290.742z"/>
				<path style="fill:#573C20;" d="M716.627,290.904c0.256,0.882,0.962,1.62,1.831,1.916c-0.624-0.571-0.963-1.41-1.034-2.253
					c-0.073-0.864,0.151-1.648,0.376-2.468c-0.409,0.251-0.906,0.508-1.086,0.961C716.484,289.639,716.454,290.307,716.627,290.904z
					"/>
			</g>
			<path style="fill:#F2D06B;" d="M706.31,273.758c0.208,0.174,0.421,0.357,0.534,0.604c0.272,0.598-0.144,1.266-0.527,1.801
				c-3.047,4.252-5.166,9.164-6.167,14.298c-4.12-0.97-8.097-2.544-11.765-4.655c-1.096-0.631-2.176-1.318-3.061-2.221
				c-2.471-2.52-3.07-6.294-3.329-9.814c-0.198-2.687-0.268-5.421,0.365-8.04c0.429-1.774,1.203-3.495,2.377-4.903
				c0.391-0.469,1.331-1.693,1.995-1.726c0.735-0.036,2.133,1.346,2.733,1.764c3.721,2.592,7.367,5.291,10.932,8.092
				C702.393,270.525,704.364,272.126,706.31,273.758z"/>
			<g>
				<path style="fill:#AD7840;" d="M689.554,324.849c-0.059,0.884-0.084,1.817,0.325,2.602c0.368,0.708,1.039,1.2,1.688,1.666
					c1.405,1.01,2.931,2.062,4.662,2.083c1.722,0.021,3.267-0.984,4.692-1.95c0.497-0.337,1.062-0.847,0.89-1.423
					c-0.16-0.533-0.852-0.688-1.404-0.609c-0.551,0.079-1.114,0.294-1.648,0.138c0.152-0.417,0.282-0.887,0.107-1.294
					c-0.176-0.408-0.799-0.619-1.072-0.269c0.234-0.401,0.196-0.943-0.092-1.307c-0.287-0.364-0.806-0.527-1.25-0.394
					c0.38-1.832,0.68-3.695,0.617-5.565c-0.063-1.87-0.506-3.759-1.514-5.335c-0.443-0.692-1.23-1.692-2.163-1.636
					c-0.835,0.049-1.265,0.966-1.533,1.64c-0.918,2.304-1.414,4.875-1.808,7.314C689.817,321.947,689.652,323.396,689.554,324.849z"
					/>
				<path style="fill:#573C20;" d="M695.533,327.48c0.702,0.341,1.499,0.69,2.237,0.433c0.43-0.15,0.831-0.501,1.277-0.408
					c-0.662-0.244-1.394-0.294-2.083-0.142c-0.164,0.036-0.333,0.084-0.498,0.051c-0.165-0.034-0.322-0.182-0.296-0.348
					c0.032-0.205,0.282-0.276,0.481-0.335c0.481-0.142,0.905-0.465,1.171-0.89c-0.543-0.046-1.101,0.129-1.519,0.478
					c0.372-0.696,0.408-1.533,0.128-2.267C696.411,325.279,696.239,326.438,695.533,327.48z"/>
			</g>
		</g>
	</g>
</g>
</svg>
