<?xml version="1.0" encoding="utf-8"?>
<!-- Generator: Adobe Illustrator 27.5.0, SVG Export Plug-In . SVG Version: 6.00 Build 0)  -->
<svg version="1.1" id="Layer_1" xmlns="http://www.w3.org/2000/svg" xmlns:xlink="http://www.w3.org/1999/xlink" x="0px" y="0px"
	 viewBox="0 0 100 100" style="enable-background:new 0 0 100 100;" xml:space="preserve">
<rect x="0" y="0" style="fill:#FFFFFF;" width="100" height="100"/>
<g>
	<g>
		<path style="fill:#F0F7FD;" d="M75.32,71.744c3.649-0.409,7.344-1.534,10.01-4.099c1.42-1.366,1.807-2.5,2.27-4.278
			c0.525-2.019,2.296-3.485,3.483-5.162c1.644-2.324,2.679-4.794,3.244-7.554c0.445-2.17,0.266-4.368,0.016-6.548
			c-0.203-1.773-0.031-3.869-0.382-5.57c-0.652-3.165-4.681-5.996-7.539-7.099c-1.599-0.617-3.212-0.503-4.806-0.906
			c-1.682-0.426-3.61-1.414-5.04-2.368c-3.523-2.35-6.524-5.301-10.419-7.14c-3.68-1.737-7.891-2.283-11.927-1.923
			c-3.249,0.29-6.532,1.219-9.314,2.842c-1.725,1.007-3.092,2.542-4.833,3.531c-1.575,0.895-3.518,1.023-5.275,1.372
			c-1.135,0.226-2.275,0.414-3.417,0.598c-2.631,0.423-5.276,0.819-7.906,1.576c-4.556,1.31-7.951,3.638-10.79,7.355
			c-2.644,3.461-2.937,6.786-2.875,10.895c0.028,1.856-1.296,3.661-2.027,5.412c-0.857,2.054-1.496,4.184-1.678,6.401
			c-0.361,4.409,0.386,8.367,3.904,11.393c3.455,2.972,7.206,1.333,11.361,1.355c4.138,0.023,7.329,2.268,10.974,3.846
			c5.092,2.205,10.371,3.311,15.985,2.913c2.481-0.176,4.807-0.509,7.03-1.64c1.786-0.909,3.28-2.233,5.128-3.037
			C65.266,71.835,70.27,72.31,75.32,71.744z"/>
		<g>
			<path style="fill:#D9EBF9;" d="M89.51,65.386c-1.692,0-3.384,0-5.076,0c-14.808,0-29.615,0-44.423,0
				c-10.457,0-21.123,0.129-31.49-0.007c-0.075-1.013-0.121-2.472,0.346-3.447c0.773-1.611,2.18-2.868,3.442-4.127
				c2.336-2.331,4.843-2.844,8.226-2.767c-2.161-2.332-0.313-6.556,1.423-8.56c2.151-2.484,5.294-3.499,8.461-2.608
				c0.483-7.857,8.929-11.636,16.746-10.936c3.675,0.329,6.847,1.441,9.005,4.42c1.259,1.737,1.499,4.195,2.734,5.753
				c2.04-4.065,8.633-0.842,11.031,1.282c3.353,2.97,3.288,6.486,3.62,10.423c3.264-2.708,6.759-3.116,10.135,0.498
				c1.31,1.403,2.265,3.121,2.76,4.925c0.454,1.658,0.057,3.085,1.419,4.382c0.196,0.187,0.104,0.401,0.41,0.576
				C89.047,65.631,88.923,64.85,89.51,65.386z"/>
			<g>
				<path style="fill:#A1CDF0;" d="M89.51,65.336c-6.754,0-13.507,0-20.26,0c-6.758,0-13.515,0-20.273,0
					c-6.704,0-13.408,0.004-20.112,0.031c-3.352,0.013-6.703,0.026-10.055,0.024c-1.668-0.001-3.336-0.005-5.003-0.014
					c-0.817-0.005-1.634-0.01-2.451-0.017c-0.833-0.007-1.69,0.041-2.52-0.027c-0.202-0.017-0.269-0.002-0.283-0.226
					c-0.008-0.135-0.015-0.271-0.02-0.406c-0.013-0.353-0.013-0.707,0.008-1.06c0.045-0.729,0.198-1.4,0.553-2.041
					c0.711-1.284,1.783-2.315,2.819-3.335c0.928-0.913,1.875-1.751,3.07-2.299c1.134-0.52,2.37-0.759,3.608-0.844
					c0.646-0.044,1.294-0.049,1.942-0.035c0.045,0.001,0.063-0.054,0.035-0.085c-1.634-1.818-0.912-4.555,0.095-6.497
					c1.118-2.155,2.961-3.922,5.33-4.601c1.446-0.415,2.965-0.381,4.41,0.014c0.033,0.009,0.061-0.016,0.063-0.048
					c0.158-2.376,1.093-4.603,2.715-6.352c1.595-1.72,3.702-2.905,5.914-3.639c2.358-0.783,4.875-1.082,7.353-0.947
					c2.649,0.145,5.401,0.719,7.575,2.319c1.318,0.969,2.351,2.249,2.98,3.76c0.577,1.385,0.923,2.914,1.855,4.121
					c0.021,0.027,0.067,0.037,0.086,0c1.473-2.855,5.14-1.951,7.49-0.88c2.89,1.317,5.343,3.432,6.273,6.566
					c0.576,1.94,0.628,3.99,0.795,5.994c0.004,0.045,0.051,0.064,0.085,0.035c1.273-1.046,2.774-1.932,4.447-2.084
					c1.628-0.148,3.166,0.476,4.428,1.476c1.45,1.149,2.603,2.691,3.353,4.378c0.352,0.792,0.628,1.624,0.758,2.482
					c0.107,0.706,0.128,1.434,0.349,2.118c0.121,0.373,0.301,0.723,0.542,1.033c0.139,0.179,0.315,0.326,0.433,0.517
					c0.082,0.132,0.12,0.275,0.234,0.385c0.148,0.143,0.424,0.257,0.634,0.225c0.318-0.048,0.385-0.231,0.705,0.043
					c0.049,0.042,0.12-0.029,0.071-0.071c-0.128-0.109-0.267-0.228-0.445-0.205c-0.278,0.035-0.365,0.221-0.692,0.06
					c-0.228-0.112-0.301-0.335-0.428-0.531c-0.081-0.126-0.212-0.224-0.311-0.336c-0.319-0.365-0.544-0.788-0.68-1.253
					c-0.226-0.771-0.226-1.587-0.378-2.372c-0.16-0.826-0.461-1.633-0.82-2.392c-1.358-2.873-4.197-5.912-7.646-5.666
					c-1.743,0.125-3.303,1.035-4.626,2.122c0.028,0.012,0.057,0.024,0.085,0.035c-0.239-2.868-0.277-5.913-1.877-8.422
					c-1.311-2.056-3.436-3.472-5.651-4.404c-1.856-0.781-4.47-1.493-6.237-0.121c-0.177,0.137-0.339,0.292-0.484,0.463
					c-0.077,0.091-0.15,0.186-0.218,0.284c-0.042,0.061-0.181,0.378-0.235,0.387c-0.124,0.021-0.465-0.694-0.519-0.798
					c-0.205-0.391-0.373-0.8-0.531-1.212c-0.553-1.445-0.998-2.892-1.988-4.112c-1.887-2.329-4.672-3.456-7.577-3.864
					c-2.761-0.387-5.605-0.246-8.298,0.492c-2.444,0.67-4.806,1.849-6.606,3.659c-0.882,0.887-1.616,1.922-2.131,3.064
					c-0.252,0.558-0.452,1.139-0.598,1.733c-0.075,0.306-0.136,0.615-0.183,0.926c-0.03,0.2-0.01,0.841-0.168,0.9
					c-0.099,0.037-0.469-0.111-0.569-0.131c-0.151-0.029-0.302-0.055-0.455-0.076c-0.414-0.057-0.831-0.084-1.249-0.078
					c-0.738,0.011-1.475,0.125-2.18,0.339c-1.466,0.445-2.775,1.319-3.8,2.454c-0.875,0.969-1.549,2.135-2.008,3.355
					c-0.455,1.211-0.727,2.59-0.391,3.867c0.154,0.583,0.443,1.108,0.846,1.556c0.012-0.028,0.023-0.057,0.035-0.085
					c-2.202-0.045-4.452,0.155-6.384,1.304c-1.046,0.621-1.885,1.481-2.742,2.332c-0.911,0.903-1.817,1.849-2.432,2.986
					c-0.625,1.155-0.596,2.495-0.505,3.77c0.002,0.027,0.021,0.05,0.05,0.05c10.443,0.135,20.888,0.008,31.331,0.007
					c10.607-0.002,21.213,0,31.82,0c5.946,0,11.891,0,17.837,0C89.575,65.436,89.575,65.336,89.51,65.336z"/>
			</g>
		</g>
		<g>
			<path style="fill:#B4D7F3;" d="M38.202,65.426c-0.463,0-0.925,0-1.388,0c-4.048,0-8.097,0-12.145,0
				c-2.859,0-5.775,0.035-8.609-0.002c-0.02-0.273-0.033-0.666,0.095-0.928c0.211-0.434,0.596-0.772,0.941-1.112
				c0.639-0.628,1.324-0.766,2.249-0.745c-0.591-0.628-0.085-1.765,0.389-2.305c0.588-0.669,1.448-0.942,2.313-0.702
				c0.132-2.116,2.441-3.133,4.578-2.945c1.005,0.089,1.872,0.388,2.462,1.19c0.344,0.468,0.41,1.13,0.747,1.549
				c0.558-1.095,2.36-0.227,3.016,0.345c0.917,0.8,0.899,1.747,0.99,2.807c0.892-0.729,1.848-0.839,2.771,0.134
				c0.358,0.378,0.619,0.84,0.755,1.326c0.124,0.446,0.016,0.831,0.388,1.18c0.054,0.05,0.028,0.108,0.112,0.155
				C38.075,65.492,38.041,65.282,38.202,65.426z"/>
			<g>
				<path style="fill:#A1CDF0;" d="M38.202,65.376c-2.892,0-5.783,0-8.675,0c-2.883,0-5.765,0.001-8.648,0.011
					c-1.606,0.006-3.213,0.008-4.819-0.013c0.017,0.017,0.033,0.033,0.05,0.05c-0.022-0.309-0.04-0.651,0.104-0.935
					c0.152-0.302,0.389-0.552,0.628-0.787c0.222-0.219,0.44-0.447,0.704-0.617c0.236-0.152,0.498-0.257,0.772-0.318
					c0.337-0.074,0.684-0.085,1.027-0.078c0.045,0.001,0.064-0.055,0.035-0.085c-0.435-0.477-0.234-1.204,0.035-1.712
					c0.306-0.578,0.808-1.045,1.448-1.22c0.385-0.105,0.787-0.095,1.17,0.008c0.033,0.009,0.061-0.016,0.063-0.048
					c0.043-0.635,0.299-1.228,0.738-1.691c0.437-0.462,1.012-0.776,1.613-0.97c0.642-0.207,1.324-0.285,1.997-0.247
					c0.712,0.04,1.451,0.193,2.038,0.619c0.347,0.251,0.624,0.586,0.793,0.98c0.165,0.384,0.261,0.805,0.523,1.139
					c0.02,0.025,0.065,0.016,0.078-0.01c0.392-0.749,1.37-0.504,1.99-0.228c0.785,0.35,1.459,0.913,1.71,1.763
					c0.153,0.515,0.167,1.059,0.212,1.591c0.004,0.045,0.051,0.063,0.085,0.035c0.341-0.276,0.744-0.51,1.189-0.55
					c0.436-0.039,0.847,0.123,1.188,0.388c0.399,0.311,0.716,0.732,0.92,1.194c0.094,0.213,0.165,0.437,0.198,0.668
					c0.027,0.19,0.035,0.385,0.1,0.567c0.035,0.096,0.083,0.184,0.146,0.264c0.042,0.053,0.097,0.097,0.129,0.156
					c0.017,0.032,0.027,0.063,0.055,0.089c0.051,0.048,0.138,0.082,0.209,0.07c0.076-0.013,0.084-0.059,0.158,0.002
					c0.049,0.041,0.12-0.029,0.071-0.071c-0.042-0.036-0.089-0.073-0.147-0.066c-0.057,0.006-0.085,0.046-0.146,0.03
					c-0.066-0.017-0.083-0.067-0.116-0.116c-0.027-0.04-0.058-0.072-0.091-0.107c-0.088-0.096-0.151-0.21-0.188-0.335
					c-0.058-0.197-0.061-0.405-0.097-0.606c-0.041-0.23-0.125-0.453-0.224-0.664c-0.375-0.798-1.167-1.624-2.118-1.567
					c-0.491,0.03-0.93,0.28-1.304,0.583c0.028,0.012,0.057,0.024,0.085,0.035c-0.043-0.511-0.059-1.031-0.191-1.529
					c-0.132-0.5-0.399-0.942-0.785-1.288c-0.279-0.25-0.609-0.446-0.948-0.602c-0.364-0.168-0.764-0.302-1.169-0.308
					c-0.423-0.007-0.805,0.165-1.006,0.549c0.026-0.003,0.052-0.007,0.079-0.01c-0.251-0.321-0.344-0.734-0.501-1.103
					c-0.151-0.355-0.383-0.66-0.678-0.908c-0.57-0.479-1.304-0.672-2.032-0.74c-1.314-0.123-2.8,0.182-3.781,1.116
					c-0.522,0.497-0.832,1.157-0.881,1.876c0.021-0.016,0.042-0.032,0.063-0.048c-0.72-0.194-1.478-0.045-2.06,0.425
					c-0.504,0.407-0.88,1.052-0.96,1.697c-0.043,0.351,0.026,0.702,0.269,0.969c0.012-0.028,0.024-0.057,0.035-0.085
					c-0.61-0.013-1.234,0.043-1.77,0.36c-0.28,0.165-0.506,0.392-0.737,0.617c-0.251,0.245-0.502,0.5-0.675,0.809
					c-0.181,0.322-0.178,0.691-0.152,1.049c0.002,0.027,0.021,0.05,0.05,0.05c2.855,0.036,5.711,0.002,8.566,0.002
					c2.9,0,5.799,0,8.699,0c1.626,0,3.251,0,4.877,0C38.266,65.476,38.266,65.376,38.202,65.376z"/>
			</g>
		</g>
		<g>
			<g>
				<path style="fill:#B4D7F3;" d="M13.252,45.876c-0.052,0-0.103-0.02-0.143-0.06c-0.147-0.149-0.275-0.33-0.38-0.539
					c-0.05-0.099-0.01-0.219,0.088-0.269c0.098-0.05,0.219-0.01,0.269,0.088c0.087,0.172,0.19,0.319,0.308,0.439
					c0.077,0.079,0.077,0.205-0.002,0.283C13.354,45.857,13.303,45.876,13.252,45.876z"/>
			</g>
			<g>
				<path style="fill:#B4D7F3;" d="M75.675,44.923c-0.058,0-0.116-0.026-0.156-0.075c-0.069-0.086-0.056-0.212,0.03-0.281
					c0.299-0.241,0.59-0.51,0.865-0.802c0.076-0.08,0.202-0.084,0.283-0.008c0.08,0.076,0.084,0.202,0.008,0.283
					c-0.288,0.305-0.592,0.587-0.905,0.839C75.764,44.908,75.719,44.923,75.675,44.923z M12.584,44.231
					c-0.099,0-0.185-0.074-0.198-0.175c-0.034-0.27-0.051-0.567-0.051-0.882c0-0.116,0.002-0.235,0.007-0.356
					c0.004-0.11,0.097-0.197,0.207-0.192c0.11,0.004,0.196,0.097,0.192,0.208c-0.004,0.113-0.007,0.227-0.007,0.341
					c0,0.298,0.016,0.578,0.048,0.832c0.014,0.11-0.064,0.21-0.173,0.223C12.601,44.23,12.593,44.231,12.584,44.231z M77.331,43.175
					c-0.041,0-0.082-0.013-0.118-0.039c-0.089-0.065-0.109-0.19-0.043-0.279c0.235-0.321,0.449-0.656,0.635-0.995
					c0.053-0.097,0.175-0.132,0.272-0.079c0.097,0.053,0.132,0.175,0.079,0.272c-0.195,0.354-0.418,0.703-0.663,1.039
					C77.453,43.146,77.393,43.175,77.331,43.175z M12.65,41.824c-0.009,0-0.018-0.001-0.027-0.002
					c-0.109-0.015-0.186-0.116-0.171-0.225c0.041-0.303,0.094-0.62,0.157-0.942c0.017-0.087,0.035-0.174,0.053-0.261
					c0.023-0.108,0.129-0.177,0.237-0.154c0.108,0.023,0.177,0.129,0.154,0.237c-0.018,0.085-0.035,0.17-0.052,0.255
					c-0.061,0.315-0.113,0.624-0.153,0.92C12.834,41.751,12.749,41.824,12.65,41.824z M78.487,41.064
					c-0.025,0-0.05-0.005-0.074-0.014c-0.103-0.041-0.153-0.157-0.112-0.26c0.15-0.374,0.29-0.752,0.416-1.122
					c0.035-0.104,0.149-0.16,0.254-0.125c0.105,0.036,0.16,0.149,0.125,0.254c-0.128,0.376-0.271,0.76-0.423,1.141
					C78.642,41.016,78.567,41.064,78.487,41.064z M13.146,39.463c-0.018,0-0.036-0.002-0.054-0.008
					c-0.106-0.03-0.168-0.14-0.138-0.247c0.109-0.386,0.233-0.777,0.369-1.163c0.037-0.104,0.151-0.159,0.255-0.122
					c0.104,0.037,0.159,0.151,0.122,0.255c-0.133,0.378-0.254,0.761-0.361,1.138C13.314,39.406,13.234,39.463,13.146,39.463z
					 M79.264,38.78c-0.018,0-0.036-0.002-0.054-0.007c-0.106-0.03-0.169-0.14-0.139-0.246c0.108-0.387,0.204-0.777,0.286-1.16
					c0.023-0.108,0.129-0.177,0.237-0.154c0.108,0.023,0.177,0.129,0.154,0.237c-0.083,0.39-0.182,0.789-0.292,1.184
					C79.432,38.722,79.352,38.78,79.264,38.78z M13.946,37.187c-0.026,0-0.052-0.005-0.078-0.016
					c-0.102-0.043-0.149-0.16-0.107-0.262c0.157-0.373,0.328-0.746,0.507-1.108c0.049-0.099,0.169-0.14,0.268-0.091
					c0.099,0.049,0.14,0.169,0.091,0.268c-0.176,0.355-0.343,0.721-0.497,1.086C14.099,37.141,14.024,37.187,13.946,37.187z
					 M79.766,36.42c-0.009,0-0.019-0.001-0.029-0.002c-0.109-0.016-0.185-0.117-0.169-0.226c0.057-0.397,0.1-0.795,0.127-1.185
					c0.008-0.11,0.104-0.194,0.213-0.186c0.11,0.008,0.193,0.103,0.186,0.213c-0.028,0.399-0.072,0.808-0.13,1.214
					C79.949,36.348,79.864,36.42,79.766,36.42z M15.016,35.025c-0.034,0-0.068-0.008-0.099-0.027
					c-0.096-0.055-0.129-0.177-0.074-0.273c0.203-0.354,0.418-0.704,0.639-1.039c0.061-0.092,0.185-0.118,0.277-0.057
					c0.092,0.061,0.118,0.185,0.057,0.277c-0.216,0.328-0.427,0.67-0.626,1.017C15.153,34.989,15.086,35.025,15.016,35.025z
					 M79.931,34.015c-0.11,0-0.199-0.088-0.2-0.198c-0.004-0.398-0.024-0.798-0.06-1.188c-0.01-0.11,0.071-0.207,0.181-0.218
					c0.109-0.011,0.207,0.071,0.217,0.181c0.037,0.402,0.058,0.813,0.061,1.222c0.001,0.111-0.088,0.201-0.198,0.202
					C79.932,34.015,79.932,34.015,79.931,34.015z M16.348,33.013c-0.042,0-0.085-0.013-0.121-0.041
					c-0.088-0.067-0.105-0.193-0.038-0.28c0.184-0.241,0.375-0.478,0.568-0.704c0.068-0.08,0.138-0.16,0.208-0.239
					c0.073-0.083,0.2-0.09,0.282-0.017c0.083,0.073,0.091,0.199,0.017,0.282c-0.069,0.077-0.136,0.155-0.203,0.234
					c-0.188,0.22-0.374,0.451-0.554,0.687C16.468,32.986,16.408,33.013,16.348,33.013z M30.338,32.971
					c-0.011,0-0.022-0.001-0.033-0.003c-0.446-0.074-0.84-0.267-1.17-0.575c-0.081-0.075-0.085-0.202-0.01-0.283
					c0.075-0.081,0.202-0.085,0.283-0.01c0.271,0.253,0.595,0.412,0.962,0.473c0.109,0.018,0.183,0.121,0.165,0.23
					C30.519,32.902,30.434,32.971,30.338,32.971z M31.533,32.89c-0.088,0-0.169-0.059-0.193-0.149
					c-0.028-0.107,0.035-0.216,0.142-0.245l0.04-0.011c0.347-0.096,0.686-0.246,1.007-0.446c0.094-0.058,0.217-0.03,0.276,0.064
					c0.058,0.094,0.03,0.217-0.064,0.276c-0.354,0.221-0.728,0.387-1.113,0.493l-0.044,0.012
					C31.567,32.888,31.55,32.89,31.533,32.89z M33.559,31.638c-0.048,0-0.096-0.017-0.135-0.052
					c-0.082-0.075-0.088-0.201-0.013-0.283c0.263-0.289,0.482-0.607,0.649-0.946c0.049-0.099,0.169-0.14,0.268-0.091
					c0.099,0.049,0.14,0.169,0.091,0.268c-0.184,0.372-0.424,0.722-0.712,1.038C33.667,31.616,33.613,31.638,33.559,31.638z
					 M79.708,31.614c-0.095,0-0.179-0.068-0.197-0.164c-0.07-0.389-0.158-0.779-0.262-1.16c-0.029-0.106,0.034-0.216,0.14-0.246
					c0.107-0.029,0.217,0.034,0.246,0.14c0.107,0.392,0.198,0.794,0.27,1.194c0.02,0.109-0.053,0.213-0.161,0.232
					C79.732,31.613,79.72,31.614,79.708,31.614z M28.613,31.449c-0.079,0-0.154-0.047-0.186-0.125
					c-0.148-0.368-0.247-0.779-0.295-1.223c-0.012-0.11,0.068-0.208,0.177-0.22c0.11-0.011,0.208,0.068,0.22,0.177
					c0.044,0.408,0.134,0.783,0.269,1.117c0.041,0.103-0.008,0.219-0.111,0.26C28.663,31.444,28.638,31.449,28.613,31.449z
					 M17.944,31.205c-0.052,0-0.103-0.02-0.142-0.059c-0.078-0.078-0.077-0.205,0.001-0.283c0.285-0.282,0.586-0.561,0.894-0.829
					c0.083-0.073,0.21-0.064,0.282,0.019c0.073,0.083,0.064,0.21-0.019,0.282c-0.301,0.263-0.596,0.536-0.875,0.812
					C18.045,31.186,17.995,31.205,17.944,31.205z M19.762,29.62c-0.06,0-0.119-0.027-0.159-0.078
					c-0.067-0.087-0.051-0.213,0.037-0.281c0.319-0.246,0.652-0.486,0.987-0.714c0.091-0.062,0.216-0.038,0.278,0.053
					c0.062,0.091,0.038,0.216-0.053,0.278c-0.329,0.224-0.655,0.459-0.968,0.7C19.847,29.607,19.804,29.62,19.762,29.62z
					 M34.598,29.499c-0.009,0-0.018-0.001-0.028-0.002c-0.109-0.015-0.186-0.116-0.171-0.226c0.02-0.145,0.03-0.292,0.03-0.436
					c0-0.233-0.027-0.465-0.079-0.689c-0.025-0.108,0.042-0.215,0.149-0.24c0.108-0.025,0.215,0.042,0.24,0.149
					c0.06,0.254,0.09,0.517,0.09,0.781c0,0.162-0.011,0.328-0.034,0.491C34.782,29.427,34.697,29.499,34.598,29.499z M79.065,29.291
					c-0.08,0-0.155-0.048-0.186-0.127c-0.141-0.359-0.308-0.721-0.495-1.077c-0.051-0.098-0.014-0.219,0.084-0.27
					c0.098-0.051,0.219-0.014,0.27,0.084c0.194,0.368,0.366,0.744,0.513,1.116c0.04,0.103-0.01,0.219-0.113,0.259
					C79.114,29.287,79.089,29.291,79.065,29.291z M28.335,29.074c-0.007,0-0.015,0-0.022-0.001c-0.11-0.012-0.189-0.111-0.177-0.221
					c0.047-0.431,0.139-0.841,0.274-1.22c0.037-0.104,0.151-0.158,0.255-0.122c0.104,0.037,0.158,0.151,0.121,0.256
					c-0.124,0.35-0.21,0.73-0.253,1.13C28.522,28.998,28.435,29.074,28.335,29.074z M21.757,28.264
					c-0.068,0-0.134-0.035-0.172-0.097c-0.057-0.095-0.026-0.218,0.069-0.274c0.348-0.208,0.706-0.407,1.064-0.594
					c0.098-0.051,0.219-0.013,0.27,0.085c0.051,0.098,0.013,0.219-0.085,0.27c-0.352,0.183-0.703,0.379-1.044,0.583
					C21.828,28.255,21.792,28.264,21.757,28.264z M34.062,27.203c-0.064,0-0.126-0.03-0.165-0.087
					c-0.211-0.307-0.482-0.57-0.805-0.781c-0.092-0.061-0.118-0.184-0.058-0.277c0.06-0.092,0.184-0.118,0.277-0.058
					c0.366,0.24,0.674,0.539,0.915,0.889c0.063,0.091,0.04,0.215-0.051,0.278C34.141,27.191,34.102,27.203,34.062,27.203z
					 M77.947,27.155c-0.065,0-0.129-0.032-0.167-0.09c-0.213-0.325-0.447-0.649-0.696-0.966c-0.068-0.087-0.053-0.212,0.033-0.281
					c0.087-0.068,0.213-0.053,0.281,0.034c0.256,0.325,0.497,0.659,0.716,0.993c0.061,0.092,0.035,0.216-0.057,0.277
					C78.023,27.144,77.985,27.155,77.947,27.155z M23.898,27.15c-0.076,0-0.149-0.044-0.183-0.118c-0.045-0.101,0-0.219,0.101-0.264
					c0.372-0.166,0.751-0.322,1.128-0.463c0.104-0.039,0.219,0.014,0.257,0.117c0.039,0.103-0.014,0.219-0.117,0.257
					c-0.369,0.138-0.741,0.291-1.106,0.454C23.953,27.145,23.926,27.15,23.898,27.15z M29.111,26.809
					c-0.033,0-0.067-0.008-0.098-0.026c-0.096-0.054-0.13-0.176-0.076-0.272c0.161-0.285,0.341-0.568,0.538-0.844
					c-0.302,0.022-0.615,0.056-0.935,0.103c-0.11,0.016-0.211-0.06-0.227-0.169c-0.016-0.109,0.06-0.211,0.169-0.227
					c0.421-0.062,0.831-0.103,1.22-0.122c0.11-0.006,0.204,0.08,0.209,0.19c0,0.005,0,0.01,0,0.015
					c0.071,0.069,0.081,0.182,0.02,0.263c-0.24,0.32-0.458,0.652-0.646,0.987C29.249,26.772,29.181,26.809,29.111,26.809z
					 M26.158,26.305c-0.086,0-0.165-0.056-0.191-0.142c-0.032-0.106,0.028-0.217,0.133-0.249c0.181-0.055,0.365-0.108,0.545-0.156
					c0.209-0.056,0.422-0.109,0.635-0.158c0.108-0.024,0.215,0.043,0.239,0.151c0.024,0.108-0.043,0.215-0.151,0.239
					c-0.207,0.047-0.416,0.099-0.62,0.154c-0.177,0.048-0.356,0.099-0.533,0.153C26.197,26.302,26.178,26.305,26.158,26.305z
					 M32.105,25.878c-0.018,0-0.037-0.003-0.055-0.008c-0.346-0.1-0.733-0.168-1.148-0.203c-0.11-0.009-0.192-0.106-0.183-0.216
					c0.009-0.11,0.106-0.191,0.216-0.183c0.441,0.037,0.854,0.11,1.225,0.217c0.106,0.031,0.167,0.141,0.137,0.247
					C32.272,25.82,32.192,25.878,32.105,25.878z M76.457,25.257c-0.054,0-0.108-0.022-0.147-0.065
					c-0.265-0.287-0.547-0.573-0.839-0.848c-0.08-0.076-0.084-0.202-0.008-0.283c0.076-0.08,0.202-0.084,0.283-0.008
					c0.299,0.282,0.588,0.574,0.859,0.869c0.075,0.081,0.07,0.208-0.012,0.283C76.554,25.239,76.505,25.257,76.457,25.257z
					 M30.55,24.879c-0.049,0-0.099-0.018-0.137-0.055c-0.08-0.076-0.084-0.202-0.008-0.283c0.272-0.288,0.57-0.574,0.884-0.848
					c0.083-0.073,0.21-0.064,0.282,0.019c0.073,0.083,0.064,0.209-0.019,0.282c-0.305,0.266-0.594,0.543-0.857,0.822
					C30.656,24.858,30.603,24.879,30.55,24.879z M74.702,23.6c-0.045,0-0.09-0.015-0.127-0.046
					c-0.304-0.251-0.621-0.497-0.944-0.731c-0.09-0.065-0.109-0.19-0.045-0.279c0.065-0.089,0.19-0.109,0.279-0.044
					c0.33,0.239,0.654,0.49,0.964,0.746c0.085,0.07,0.097,0.196,0.027,0.282C74.817,23.575,74.76,23.6,74.702,23.6z M32.362,23.289
					c-0.061,0-0.122-0.028-0.161-0.081c-0.066-0.089-0.047-0.214,0.042-0.28c0.317-0.234,0.656-0.466,1.007-0.69
					c0.093-0.059,0.217-0.032,0.276,0.061c0.059,0.093,0.032,0.217-0.061,0.276c-0.344,0.219-0.675,0.445-0.985,0.674
					C32.445,23.277,32.403,23.289,32.362,23.289z M72.75,22.183c-0.037,0-0.074-0.01-0.107-0.031
					c-0.336-0.214-0.682-0.419-1.028-0.609c-0.097-0.053-0.132-0.175-0.079-0.272s0.175-0.132,0.272-0.079
					c0.353,0.195,0.706,0.404,1.049,0.622c0.093,0.059,0.121,0.183,0.062,0.276C72.881,22.15,72.816,22.183,72.75,22.183z
					 M34.395,21.99c-0.07,0-0.138-0.037-0.175-0.103c-0.054-0.097-0.019-0.218,0.077-0.272c0.345-0.192,0.708-0.382,1.079-0.564
					c0.099-0.049,0.219-0.008,0.268,0.091c0.049,0.099,0.008,0.219-0.091,0.268c-0.365,0.179-0.722,0.366-1.061,0.555
					C34.462,21.982,34.428,21.99,34.395,21.99z M70.636,21.019c-0.029,0-0.058-0.006-0.085-0.019
					c-0.125-0.059-0.25-0.115-0.375-0.17c-0.238-0.105-0.481-0.209-0.723-0.309c-0.102-0.042-0.151-0.159-0.108-0.261
					c0.042-0.102,0.159-0.151,0.261-0.108c0.244,0.101,0.49,0.206,0.731,0.312c0.128,0.056,0.255,0.114,0.383,0.174
					c0.1,0.047,0.143,0.166,0.096,0.266C70.783,20.977,70.711,21.019,70.636,21.019z M36.561,20.923c-0.077,0-0.15-0.045-0.183-0.12
					c-0.044-0.101,0.002-0.219,0.103-0.263c0.362-0.158,0.74-0.315,1.123-0.465c0.103-0.04,0.219,0.01,0.259,0.113
					c0.04,0.103-0.01,0.219-0.113,0.259c-0.378,0.148-0.751,0.303-1.108,0.459C36.615,20.918,36.588,20.923,36.561,20.923z
					 M68.407,20.094c-0.023,0-0.047-0.004-0.07-0.013c-0.371-0.139-0.752-0.275-1.131-0.403c-0.105-0.035-0.161-0.149-0.125-0.253
					c0.035-0.105,0.149-0.161,0.253-0.125c0.384,0.13,0.768,0.267,1.143,0.407c0.103,0.039,0.156,0.154,0.117,0.257
					C68.564,20.044,68.488,20.094,68.407,20.094z M38.809,20.041c-0.083,0-0.16-0.051-0.189-0.134
					c-0.037-0.104,0.018-0.218,0.122-0.255c0.373-0.132,0.76-0.261,1.151-0.385c0.105-0.033,0.218,0.025,0.251,0.13
					c0.033,0.105-0.025,0.218-0.13,0.251c-0.387,0.123-0.77,0.251-1.139,0.381C38.853,20.037,38.831,20.041,38.809,20.041z
					 M66.121,19.32c-0.019,0-0.039-0.003-0.058-0.009c-0.38-0.115-0.768-0.226-1.155-0.33c-0.107-0.029-0.17-0.139-0.141-0.245
					c0.029-0.107,0.138-0.17,0.245-0.141c0.39,0.105,0.783,0.217,1.167,0.334c0.106,0.032,0.165,0.144,0.133,0.249
					C66.286,19.265,66.206,19.32,66.121,19.32z M41.11,19.308c-0.087,0-0.167-0.057-0.192-0.145
					c-0.03-0.106,0.031-0.217,0.137-0.247c0.382-0.11,0.776-0.217,1.17-0.319c0.107-0.028,0.216,0.037,0.244,0.144
					c0.028,0.107-0.037,0.216-0.144,0.244c-0.391,0.101-0.781,0.207-1.16,0.316C41.147,19.306,41.128,19.308,41.11,19.308z
					 M43.447,18.704c-0.091,0-0.173-0.063-0.195-0.155c-0.025-0.108,0.042-0.215,0.15-0.24c0.39-0.09,0.789-0.176,1.185-0.256
					c0.108-0.022,0.214,0.048,0.236,0.156c0.022,0.108-0.048,0.214-0.156,0.236c-0.392,0.079-0.787,0.165-1.174,0.254
					C43.477,18.702,43.462,18.704,43.447,18.704z M63.79,18.692c-0.015,0-0.031-0.002-0.046-0.006
					c-0.386-0.091-0.78-0.179-1.173-0.26c-0.108-0.022-0.178-0.128-0.155-0.236c0.022-0.108,0.128-0.178,0.236-0.156
					c0.396,0.082,0.794,0.17,1.184,0.263c0.107,0.025,0.174,0.133,0.148,0.241C63.963,18.63,63.881,18.692,63.79,18.692z
					 M45.813,18.226c-0.095,0-0.18-0.069-0.197-0.166c-0.019-0.109,0.054-0.212,0.163-0.231c0.395-0.069,0.797-0.134,1.197-0.192
					c0.109-0.016,0.211,0.059,0.227,0.169c0.016,0.109-0.059,0.211-0.169,0.227c-0.396,0.058-0.795,0.122-1.186,0.191
					C45.836,18.225,45.824,18.226,45.813,18.226z M61.426,18.205c-0.011,0-0.023-0.001-0.035-0.003
					c-0.391-0.069-0.79-0.134-1.186-0.192c-0.109-0.016-0.185-0.118-0.169-0.227c0.016-0.109,0.118-0.185,0.227-0.169
					c0.399,0.059,0.802,0.124,1.197,0.193c0.109,0.019,0.181,0.123,0.162,0.232C61.606,18.136,61.521,18.205,61.426,18.205z
					 M48.201,17.874c-0.1,0-0.186-0.074-0.198-0.176c-0.013-0.11,0.065-0.209,0.175-0.222c0.4-0.048,0.805-0.092,1.205-0.129
					c0.11-0.01,0.208,0.07,0.218,0.18c0.01,0.11-0.07,0.208-0.18,0.218c-0.397,0.037-0.799,0.08-1.195,0.128
					C48.216,17.873,48.208,17.874,48.201,17.874z M59.038,17.853c-0.008,0-0.016,0-0.024-0.001
					c-0.396-0.047-0.798-0.089-1.195-0.125c-0.11-0.01-0.191-0.107-0.181-0.217c0.01-0.11,0.105-0.191,0.217-0.181
					c0.401,0.037,0.807,0.079,1.206,0.126c0.11,0.013,0.188,0.112,0.175,0.222C59.224,17.778,59.138,17.853,59.038,17.853z
					 M50.603,17.648c-0.104,0-0.192-0.081-0.199-0.187c-0.007-0.11,0.076-0.206,0.186-0.213c0.402-0.027,0.809-0.05,1.21-0.066
					c0.113-0.006,0.203,0.081,0.208,0.192c0.005,0.11-0.081,0.204-0.192,0.208c-0.397,0.017-0.801,0.039-1.2,0.066
					C50.612,17.648,50.608,17.648,50.603,17.648z M56.634,17.634c-0.004,0-0.009,0-0.013,0c-0.397-0.025-0.801-0.046-1.2-0.061
					c-0.11-0.004-0.197-0.097-0.192-0.207c0.004-0.11,0.092-0.196,0.207-0.192c0.403,0.015,0.81,0.035,1.211,0.061
					c0.11,0.007,0.194,0.102,0.187,0.212C56.827,17.553,56.739,17.634,56.634,17.634z M53.015,17.547
					c-0.109,0-0.198-0.087-0.2-0.197c-0.002-0.111,0.086-0.201,0.197-0.203c0.404-0.006,0.808-0.007,1.212-0.003
					c0.111,0.001,0.199,0.092,0.198,0.202c-0.001,0.11-0.09,0.198-0.2,0.198c-0.001,0-0.001,0-0.002,0
					c-0.401-0.004-0.801-0.003-1.202,0.003C53.017,17.547,53.016,17.547,53.015,17.547z"/>
			</g>
			<g>
				<path style="fill:#B4D7F3;" d="M74.138,45.876c-0.077,0-0.15-0.044-0.183-0.119c-0.045-0.101,0.001-0.219,0.102-0.264
					c0.172-0.076,0.346-0.164,0.518-0.261c0.096-0.054,0.218-0.02,0.273,0.076c0.054,0.096,0.02,0.218-0.076,0.272
					c-0.183,0.104-0.37,0.197-0.553,0.278C74.192,45.871,74.165,45.876,74.138,45.876z"/>
			</g>
		</g>
		<g>
			<g>
				<path style="fill:#B4D7F3;" d="M17.214,69.743c-0.088,0-0.169-0.059-0.193-0.148c-0.053-0.199-0.096-0.403-0.129-0.607
					c-0.017-0.109,0.057-0.212,0.166-0.229c0.108-0.018,0.212,0.057,0.229,0.166c0.03,0.191,0.071,0.381,0.12,0.567
					c0.029,0.107-0.035,0.216-0.141,0.245C17.249,69.741,17.231,69.743,17.214,69.743z"/>
			</g>
			<g>
				<path style="fill:#B4D7F3;" d="M28.937,76.649c-0.2,0-0.396-0.009-0.583-0.027c-0.11-0.01-0.191-0.108-0.18-0.218
					c0.01-0.11,0.109-0.19,0.218-0.18c0.351,0.034,0.733,0.033,1.134-0.001c0.111-0.009,0.207,0.073,0.216,0.182
					c0.009,0.11-0.072,0.207-0.182,0.216C29.347,76.64,29.137,76.649,28.937,76.649z M30.699,76.446
					c-0.092,0-0.175-0.064-0.195-0.158c-0.023-0.108,0.046-0.214,0.154-0.238c0.359-0.077,0.733-0.177,1.113-0.298
					c0.105-0.033,0.218,0.025,0.251,0.13c0.033,0.105-0.025,0.218-0.13,0.251c-0.392,0.124-0.779,0.228-1.15,0.307
					C30.728,76.444,30.713,76.446,30.699,76.446z M27.232,76.37c-0.023,0-0.047-0.004-0.07-0.013
					c-0.399-0.149-0.759-0.357-1.067-0.618c-0.084-0.071-0.095-0.197-0.024-0.282c0.071-0.084,0.198-0.095,0.282-0.024
					c0.273,0.231,0.593,0.416,0.949,0.549c0.104,0.038,0.156,0.154,0.118,0.257C27.39,76.321,27.313,76.37,27.232,76.37z
					 M32.933,75.745c-0.079,0-0.154-0.047-0.185-0.125c-0.042-0.102,0.008-0.219,0.11-0.261c0.351-0.142,0.707-0.301,1.058-0.472
					c0.099-0.049,0.219-0.007,0.267,0.092c0.048,0.099,0.007,0.219-0.092,0.267c-0.359,0.175-0.723,0.337-1.082,0.483
					C32.983,75.74,32.958,75.745,32.933,75.745z M25.482,74.89c-0.069,0-0.136-0.036-0.173-0.1C25.14,74.497,25,74.168,24.892,73.81
					c-0.016-0.053-0.03-0.107-0.042-0.162c-0.023-0.108,0.046-0.214,0.154-0.237c0.108-0.023,0.214,0.046,0.237,0.154
					c0.009,0.043,0.02,0.087,0.033,0.13c0.058,0.194,0.127,0.378,0.205,0.551c0.029-0.026,0.066-0.044,0.107-0.049
					c0.382-0.05,0.757-0.128,1.115-0.233c0.106-0.031,0.217,0.03,0.248,0.136c0.031,0.106-0.03,0.217-0.136,0.248
					c-0.372,0.109-0.762,0.19-1.158,0.243c0.053,0.095,0.02,0.216-0.074,0.271C25.55,74.881,25.516,74.89,25.482,74.89z
					 M35.039,74.72c-0.069,0-0.137-0.036-0.174-0.101c-0.055-0.096-0.022-0.218,0.074-0.273c0.344-0.197,0.675-0.402,0.983-0.61
					c0.092-0.062,0.216-0.037,0.278,0.054c0.062,0.092,0.037,0.216-0.054,0.278c-0.317,0.213-0.656,0.424-1.008,0.625
					C35.107,74.711,35.073,74.72,35.039,74.72z M24.444,74.663c-0.001,0-0.002,0-0.003,0c-0.396-0.005-0.798-0.037-1.194-0.096
					c-0.109-0.016-0.185-0.118-0.168-0.227c0.016-0.109,0.118-0.184,0.227-0.168c0.378,0.056,0.762,0.087,1.14,0.092
					c0.11,0.001,0.199,0.092,0.197,0.203C24.643,74.575,24.553,74.663,24.444,74.663z M22.133,74.321
					c-0.018,0-0.037-0.003-0.055-0.008c-0.386-0.111-0.765-0.249-1.126-0.409c-0.101-0.045-0.147-0.163-0.102-0.264
					c0.045-0.101,0.163-0.147,0.264-0.102c0.344,0.153,0.706,0.284,1.075,0.39c0.106,0.031,0.167,0.141,0.137,0.247
					C22.3,74.264,22.22,74.321,22.133,74.321z M27.824,73.887c-0.061,0-0.121-0.027-0.16-0.08c-0.066-0.088-0.049-0.214,0.039-0.28
					c0.298-0.225,0.486-0.521,0.528-0.834c0.015-0.11,0.115-0.186,0.225-0.172c0.11,0.015,0.186,0.115,0.172,0.225
					c-0.056,0.42-0.299,0.811-0.684,1.1C27.908,73.874,27.866,73.887,27.824,73.887z M20,73.372c-0.037,0-0.073-0.01-0.107-0.031
					c-0.344-0.217-0.668-0.46-0.962-0.72c-0.083-0.073-0.09-0.2-0.017-0.282c0.073-0.083,0.2-0.09,0.282-0.017
					c0.278,0.246,0.584,0.476,0.91,0.682c0.093,0.059,0.121,0.182,0.062,0.276C20.131,73.339,20.066,73.372,20,73.372z
					 M25.156,72.658c-0.025,0-0.05-0.005-0.075-0.015c-0.103-0.041-0.152-0.158-0.111-0.26c0.162-0.403,0.438-0.759,0.775-1.003
					c0.09-0.064,0.215-0.044,0.279,0.045c0.065,0.09,0.044,0.215-0.045,0.279c-0.277,0.2-0.504,0.494-0.638,0.827
					C25.31,72.611,25.235,72.658,25.156,72.658z M28.027,71.871c-0.048,0-0.095-0.017-0.133-0.051
					c-0.188-0.169-0.439-0.291-0.745-0.363c-0.067-0.016-0.135-0.027-0.202-0.033c-0.11-0.009-0.192-0.106-0.182-0.216
					c0.01-0.11,0.107-0.193,0.216-0.182c0.087,0.007,0.174,0.021,0.259,0.042c0.372,0.088,0.682,0.241,0.92,0.454
					c0.082,0.074,0.089,0.2,0.015,0.282C28.137,71.849,28.082,71.871,28.027,71.871z M18.26,71.821
					c-0.059,0-0.118-0.026-0.157-0.077c-0.252-0.321-0.471-0.664-0.65-1.019c-0.05-0.099-0.01-0.219,0.088-0.269
					c0.099-0.049,0.219-0.01,0.269,0.088c0.167,0.332,0.372,0.652,0.608,0.952c0.068,0.087,0.053,0.213-0.034,0.281
					C18.347,71.807,18.304,71.821,18.26,71.821z"/>
			</g>
			<g>
				<path style="fill:#B4D7F3;" d="M36.983,73.396c-0.057,0-0.114-0.024-0.154-0.072c-0.071-0.085-0.059-0.211,0.025-0.282
					c0.161-0.135,0.307-0.266,0.431-0.391c0.078-0.078,0.205-0.078,0.283,0.001c0.078,0.078,0.078,0.205-0.001,0.283
					c-0.133,0.133-0.287,0.272-0.457,0.414C37.074,73.381,37.028,73.396,36.983,73.396z"/>
			</g>
		</g>
		<g>
			<g>
				<path style="fill:#B4D7F3;" d="M81.301,42.295c-0.068,0-0.134-0.035-0.172-0.097c-0.057-0.095-0.026-0.218,0.069-0.274
					c0.173-0.104,0.358-0.201,0.549-0.29c0.1-0.046,0.219-0.003,0.266,0.097c0.047,0.1,0.003,0.219-0.097,0.266
					c-0.178,0.083-0.35,0.174-0.512,0.27C81.371,42.286,81.336,42.295,81.301,42.295z"/>
			</g>
			<g>
				<path style="fill:#B4D7F3;" d="M93.933,48.754c-0.012,0-0.024-0.001-0.036-0.003c-0.109-0.02-0.181-0.124-0.161-0.232
					c0.038-0.211,0.057-0.431,0.057-0.656c0-0.151-0.009-0.306-0.026-0.462c-0.012-0.11,0.067-0.209,0.177-0.221
					c0.108-0.012,0.209,0.067,0.221,0.177c0.019,0.17,0.028,0.34,0.028,0.506c0,0.248-0.021,0.493-0.064,0.727
					C94.112,48.686,94.028,48.754,93.933,48.754z M93.703,46.431c-0.083,0-0.161-0.052-0.189-0.135
					c-0.119-0.347-0.276-0.699-0.466-1.045c-0.053-0.097-0.018-0.218,0.079-0.272c0.097-0.053,0.218-0.018,0.272,0.079
					c0.201,0.366,0.367,0.739,0.494,1.108c0.036,0.104-0.02,0.218-0.124,0.254C93.747,46.428,93.725,46.431,93.703,46.431z
					 M92.58,44.367c-0.06,0-0.12-0.027-0.16-0.079c-0.232-0.307-0.488-0.598-0.758-0.866c-0.078-0.078-0.079-0.204-0.001-0.283
					c0.078-0.079,0.204-0.079,0.283-0.001c0.284,0.281,0.551,0.587,0.795,0.908c0.067,0.088,0.049,0.213-0.038,0.28
					C92.664,44.353,92.622,44.367,92.58,44.367z M90.904,42.716c-0.04,0-0.081-0.012-0.117-0.038
					c-0.329-0.237-0.66-0.427-0.983-0.567c-0.101-0.044-0.148-0.161-0.104-0.263c0.044-0.101,0.161-0.148,0.263-0.104
					c0.349,0.151,0.705,0.356,1.058,0.609c0.09,0.064,0.11,0.189,0.046,0.279C91.028,42.687,90.967,42.716,90.904,42.716z
					 M88.771,41.741c-0.018,0-0.036-0.002-0.055-0.008c-0.363-0.103-0.743-0.189-1.13-0.257c-0.109-0.019-0.182-0.123-0.162-0.231
					c0.019-0.109,0.123-0.181,0.231-0.162c0.4,0.07,0.794,0.159,1.17,0.266c0.106,0.03,0.168,0.14,0.138,0.247
					C88.938,41.683,88.858,41.741,88.771,41.741z M82.939,41.615c-0.088,0-0.169-0.059-0.193-0.148
					c-0.029-0.107,0.034-0.216,0.141-0.245c0.374-0.101,0.771-0.18,1.183-0.234c0.109-0.014,0.21,0.063,0.224,0.172
					c0.015,0.109-0.063,0.21-0.172,0.224c-0.394,0.052-0.774,0.127-1.13,0.224C82.974,41.613,82.957,41.615,82.939,41.615z
					 M86.45,41.332c-0.005,0-0.01,0-0.016-0.001c-0.388-0.03-0.776-0.042-1.159-0.034c-0.107,0.003-0.202-0.085-0.204-0.196
					c-0.002-0.11,0.085-0.202,0.196-0.204c0.396-0.008,0.797,0.004,1.198,0.035c0.11,0.009,0.192,0.105,0.184,0.215
					C86.641,41.253,86.554,41.332,86.45,41.332z"/>
			</g>
			<g>
				<path style="fill:#B4D7F3;" d="M93.196,50.353c-0.044,0-0.089-0.015-0.126-0.045c-0.086-0.07-0.099-0.196-0.029-0.281
					c0.12-0.149,0.228-0.306,0.32-0.468c0.054-0.096,0.176-0.13,0.273-0.075c0.096,0.054,0.13,0.176,0.075,0.273
					c-0.103,0.181-0.223,0.357-0.357,0.523C93.312,50.328,93.254,50.353,93.196,50.353z"/>
			</g>
		</g>
		<g>
			<g>
				<path style="fill:#B4D7F3;" d="M61.823,70.411c-0.055,0-0.109-0.022-0.148-0.065c-0.151-0.167-0.278-0.344-0.376-0.527
					c-0.052-0.097-0.016-0.218,0.081-0.271c0.097-0.052,0.219-0.016,0.271,0.081c0.083,0.154,0.191,0.305,0.32,0.447
					c0.074,0.082,0.068,0.208-0.014,0.283C61.919,70.393,61.871,70.411,61.823,70.411z"/>
			</g>
			<g>
				<path style="fill:#B4D7F3;" d="M69.361,72.497c-0.109,0-0.198-0.088-0.2-0.197c-0.002-0.111,0.086-0.201,0.197-0.203
					c0.369-0.006,0.75-0.023,1.13-0.051c0.11-0.007,0.206,0.075,0.214,0.185c0.008,0.11-0.075,0.206-0.185,0.214
					c-0.388,0.028-0.776,0.046-1.153,0.052C69.363,72.497,69.362,72.497,69.361,72.497z M68.219,72.477c-0.004,0-0.008,0-0.011,0
					l-0.085-0.005c-0.343-0.021-0.701-0.054-1.066-0.098c-0.11-0.013-0.188-0.113-0.175-0.223c0.013-0.11,0.115-0.188,0.223-0.175
					c0.357,0.043,0.708,0.076,1.043,0.096l0.082,0.005c0.11,0.006,0.195,0.1,0.189,0.211C68.413,72.394,68.325,72.477,68.219,72.477
					z M71.64,72.33c-0.099,0-0.185-0.073-0.198-0.174c-0.014-0.11,0.063-0.21,0.172-0.224c0.381-0.05,0.756-0.111,1.116-0.181
					c0.108-0.021,0.214,0.049,0.235,0.158c0.021,0.108-0.05,0.213-0.158,0.235c-0.368,0.072-0.752,0.134-1.14,0.185
					C71.657,72.33,71.648,72.33,71.64,72.33z M65.951,72.202c-0.012,0-0.024-0.001-0.037-0.003c-0.395-0.073-0.775-0.158-1.13-0.253
					c-0.107-0.028-0.17-0.138-0.142-0.245c0.028-0.107,0.138-0.17,0.245-0.142c0.345,0.092,0.715,0.174,1.1,0.246
					c0.109,0.02,0.18,0.125,0.16,0.233C66.13,72.135,66.045,72.202,65.951,72.202z M73.881,71.889c-0.088,0-0.169-0.059-0.193-0.147
					c-0.029-0.107,0.034-0.216,0.14-0.246c0.376-0.103,0.736-0.219,1.07-0.344c0.103-0.039,0.219,0.013,0.258,0.117
					c0.039,0.103-0.013,0.219-0.117,0.258c-0.345,0.13-0.717,0.249-1.105,0.355C73.916,71.887,73.899,71.889,73.881,71.889z
					 M63.748,71.605c-0.024,0-0.048-0.004-0.072-0.013c-0.396-0.152-0.753-0.321-1.061-0.504c-0.095-0.056-0.127-0.179-0.07-0.274
					c0.056-0.095,0.179-0.126,0.274-0.07c0.289,0.171,0.626,0.331,1.001,0.475c0.103,0.04,0.155,0.155,0.115,0.258
					C63.904,71.556,63.828,71.605,63.748,71.605z M76.012,71.075c-0.072,0-0.141-0.039-0.177-0.107
					c-0.052-0.098-0.014-0.219,0.084-0.27c0.346-0.183,0.659-0.383,0.931-0.595c0.087-0.068,0.213-0.053,0.281,0.035
					c0.068,0.087,0.052,0.213-0.035,0.281c-0.291,0.227-0.624,0.44-0.991,0.634C76.075,71.067,76.044,71.075,76.012,71.075z"/>
			</g>
			<g>
				<path style="fill:#B4D7F3;" d="M77.778,69.66c-0.043,0-0.085-0.013-0.122-0.041c-0.088-0.067-0.104-0.193-0.037-0.28
					c0.117-0.153,0.22-0.313,0.307-0.476c0.052-0.098,0.173-0.134,0.27-0.083c0.098,0.052,0.135,0.173,0.083,0.27
					c-0.097,0.183-0.212,0.362-0.343,0.532C77.897,69.633,77.838,69.66,77.778,69.66z"/>
			</g>
		</g>
		<g>
			<path style="fill:#001C31;" d="M87.028,70.367c0.542-0.613,1.106-1.205,1.692-1.776c0.046-0.045-0.025-0.116-0.071-0.071
				c-0.585,0.571-1.15,1.163-1.692,1.776C86.915,70.344,86.985,70.415,87.028,70.367L87.028,70.367z"/>
		</g>
		<g>
			<path style="fill:#001C31;" d="M89.267,73.789c0.312,0.419,0.638,0.827,0.978,1.223c0.042,0.049,0.112-0.022,0.071-0.071
				c-0.335-0.389-0.656-0.791-0.962-1.203C89.316,73.688,89.229,73.738,89.267,73.789L89.267,73.789z"/>
		</g>
		<g>
			<path style="fill:#001C31;" d="M89.282,73.892c0.05,0.326,0.129,0.646,0.237,0.958c0.021,0.061,0.118,0.035,0.097-0.027
				c-0.107-0.312-0.186-0.632-0.237-0.958C89.368,73.802,89.272,73.829,89.282,73.892L89.282,73.892z"/>
		</g>
	</g>
	<g>
		<path style="fill:#F7A98F;" d="M84.066,79.038c0,0,0.203,3.015,0.272,3.132c0.069,0.117,1.076-0.075,1.076-0.075
			s0.468-3.088,0.479-3.146C85.904,78.892,84.066,79.038,84.066,79.038z"/>
		<path style="fill:#F7A98F;" d="M89.168,78.755c0,0,0.203,3.015,0.272,3.132c0.069,0.117,1.076-0.075,1.076-0.075
			s0.468-3.088,0.479-3.146C91.005,78.608,89.168,78.755,89.168,78.755z"/>
		<path style="fill:#A1CDF0;" d="M84.245,81.944c0.004,0.061-0.189,1.044-0.194,1.237c-0.005,0.194-0.005,0.194-0.005,0.194
			S87,83.176,87.12,83.093c0.12-0.083-0.103-0.423-0.221-0.519c-0.117-0.096-1.045-0.264-1.232-0.387
			c-0.187-0.124-0.168-0.479-0.209-0.502c-0.041-0.022-0.85,0.146-1.142,0.108L84.245,81.944z"/>
		<path style="fill:#A1CDF0;" d="M89.346,81.661c0.004,0.061-0.189,1.044-0.194,1.237c-0.005,0.194-0.005,0.194-0.005,0.194
			s2.955-0.199,3.074-0.282c0.12-0.083-0.103-0.423-0.22-0.519c-0.117-0.096-1.045-0.264-1.232-0.387
			c-0.187-0.124-0.168-0.479-0.209-0.502c-0.041-0.022-0.849,0.146-1.142,0.108L89.346,81.661z"/>
		<path style="fill:#6CAEE3;" d="M83.908,83.56c0,0,0.161-0.644,0.2-0.607c0.046,0.044,0.175,0.077,0.275,0.142
			c0.137,0.089,0.3,0.128,0.462,0.112c0.63-0.063,2.175-0.219,2.241-0.255c0.083-0.045,0.141,0.295,0.141,0.295
			s-1.786,0.276-1.957,0.23c-0.171-0.046-0.443-0.035-0.519,0.056C84.675,83.623,83.963,83.749,83.908,83.56z"/>
		<path style="fill:#6CAEE3;" d="M89.009,83.276c0,0,0.161-0.644,0.2-0.607c0.046,0.044,0.175,0.077,0.275,0.142
			c0.137,0.089,0.3,0.128,0.462,0.112c0.63-0.063,2.175-0.219,2.241-0.255c0.083-0.045,0.141,0.295,0.141,0.295
			s-1.786,0.276-1.957,0.23c-0.171-0.046-0.443-0.035-0.519,0.056C89.776,83.34,89.064,83.466,89.009,83.276z"/>
		<path style="fill:#016FC2;" d="M91.584,81.176l-3.006,0.448c0,0,0.082-3.24,0.082-4.391c0-1.151,0.576-3.07,0.703-3.39
			c0.128-0.32-2.366-3.518-2.366-3.518s-0.483,10.883-0.547,11.075c-0.064,0.192-2.942,0.448-2.942,0.448
			c-0.128-0.448-0.605-7.429-0.477-8.197c0.09-0.537-0.26-2.171-0.609-3.563c-0.15-0.597-0.299-1.15-0.415-1.553
			c-0.384-1.343-0.256-3.581-0.256-3.581l6.907,0.192c0,0,0.993,1.387,2.008,2.964c1.03,1.599,1.701,4.418,1.765,5.159
			C92.562,74.738,91.584,81.176,91.584,81.176z"/>
		<path style="fill:#015392;" d="M90.669,68.108c-1.182,0.242-4.567,0.963-6.549,1.641c-0.688,0.235-1.247,0.327-1.696,0.338
			c-0.15-0.597-0.299-1.15-0.415-1.553c-0.384-1.343-0.256-3.581-0.256-3.581l6.907,0.192C88.66,65.144,89.653,66.531,90.669,68.108
			z"/>
		<path style="fill:#FADB91;" d="M93.414,59.985l-0.128,1.749c0,0-1.036,0.639-2.051,1.182c-0.684,0.364-1.357,0.686-1.701,0.737
			c-0.829,0.124-1.174-0.476-1.193-0.51c-0.001-0.001-0.001-0.001-0.001-0.001s0.043,0.469,0.256,1.108
			c0.213,0.64,1.407,2.558,1.407,2.899c0,0.341-2.558,0.938-4.008,0.938c-1.449,0-3.667,0.725-3.922,0.768
			c-0.256,0.043-0.64-3.155-0.64-3.965c0-0.81-0.213-2.942-0.213-2.942s-3.624,0.085-3.923-0.085
			c-0.298-0.171-0.384-1.834-0.17-2.174c0.213-0.341,2.643-4.051,3.326-4.349c0.682-0.299,2.175-0.341,2.175-0.341
			s0.682-0.213,1.833-0.298c1.151-0.086,2.857-0.214,3.368,0.725c0.512,0.938,1.706,5.116,1.834,5.287
			C89.79,60.88,93.414,59.985,93.414,59.985z"/>
		<path style="fill:#F9A94B;" d="M91.235,62.916c-0.684,0.364-1.357,0.686-1.701,0.737c-0.829,0.124-1.174-0.476-1.193-0.51
			c-0.001-0.001-0.001-0.001-0.001-0.001s-0.171-0.725-0.085-2.089c0.085-1.364-0.384-3.411-0.384-3.411
			c0.81,0.597,0.938,3.794,1.236,4.562C89.317,62.739,90.527,62.88,91.235,62.916z"/>
		<g>
			<path style="fill:#D92C09;" d="M80.219,55.556c0.007,0,0.014,0,0.021,0c0.023,0.001,0.042,0.003,0.051,0.005
				c0.071,0.012,0.141,0.033,0.207,0.062c0.275,0.12,0.493,0.348,0.663,0.589c0.172,0.244,0.305,0.514,0.416,0.791
				c0.023,0.059,0.12,0.033,0.096-0.027c-0.173-0.434-0.4-0.873-0.751-1.19c-0.164-0.148-0.364-0.277-0.584-0.318
				c-0.039-0.007-0.08-0.014-0.12-0.012C80.155,55.46,80.154,55.56,80.219,55.556L80.219,55.556z"/>
		</g>
		<g>
			<path style="fill:#D92C09;" d="M81.59,58.491c-0.296,0.302-0.598,0.609-0.855,0.946c-0.045,0.059-0.116,0.138-0.119,0.217
				c-0.002,0.064,0.098,0.064,0.1,0c0,0.011,0.003-0.011,0.004-0.013c0.002-0.005,0.014-0.028,0.021-0.039
				c0.021-0.035,0.045-0.068,0.07-0.101c0.071-0.094,0.149-0.184,0.227-0.272c0.164-0.186,0.334-0.367,0.506-0.546
				c0.039-0.041,0.078-0.081,0.118-0.121C81.706,58.516,81.635,58.445,81.59,58.491L81.59,58.491z"/>
		</g>
		<g>
			<path style="fill:#D92C09;" d="M78.204,59.534c0.303-0.024,0.608-0.032,0.912-0.03c0.26,0.002,0.52,0.012,0.778,0.039
				c0.229,0.025,0.462,0.061,0.678,0.144c0.15,0.058,0.327,0.161,0.322,0.34c-0.002,0.064,0.098,0.064,0.1,0
				c0.005-0.175-0.122-0.302-0.267-0.379c-0.2-0.106-0.432-0.151-0.654-0.183c-0.5-0.072-1.011-0.072-1.515-0.052
				c-0.118,0.005-0.237,0.011-0.354,0.02C78.14,59.439,78.14,59.54,78.204,59.534L78.204,59.534z"/>
		</g>
		<g>
			<path style="fill:#D92C09;" d="M78.638,59.138c0.269,0.106,0.537,0.212,0.806,0.318c0.039,0.015,0.078,0.031,0.116,0.046
				c0.06,0.024,0.086-0.073,0.026-0.096c-0.269-0.106-0.537-0.212-0.806-0.318c-0.039-0.015-0.078-0.031-0.116-0.046
				C78.605,59.018,78.579,59.115,78.638,59.138L78.638,59.138z"/>
		</g>
		<g>
			<path style="fill:#D92C09;" d="M87.621,57.003c0.21,0.676,0.376,1.376,0.471,2.077c0.061,0.447,0.071,0.9,0.08,1.351
				c0.009,0.48,0.011,0.959,0.023,1.439c0.011,0.427,0.016,0.865,0.098,1.285c0.012,0.063,0.109,0.036,0.096-0.027
				c-0.072-0.368-0.079-0.751-0.091-1.125c-0.014-0.481-0.016-0.962-0.024-1.443c-0.007-0.446-0.013-0.896-0.065-1.34
				c-0.056-0.482-0.155-0.959-0.27-1.43c-0.067-0.273-0.139-0.546-0.222-0.815C87.698,56.916,87.602,56.942,87.621,57.003
				L87.621,57.003z"/>
		</g>
		<g>
			<path style="fill:#D92C09;" d="M89.627,60.675c-0.116,0.118-0.218,0.255-0.308,0.393c-0.164,0.253-0.298,0.547-0.301,0.854
				c-0.002,0.142,0.031,0.281,0.084,0.412c0.02,0.05,0.057,0.143,0.128,0.124c0.057-0.015,0.071-0.092,0.082-0.14
				c0.021-0.094,0.033-0.19,0.048-0.286c0.021-0.135,0.045-0.27,0.081-0.402c0.031-0.111,0.069-0.232,0.148-0.32
				c0.043-0.048-0.028-0.119-0.071-0.071c-0.136,0.152-0.183,0.374-0.22,0.569c-0.034,0.176-0.04,0.366-0.096,0.536
				c-0.004,0.012-0.01,0.012-0.01,0.022c0,0.004,0,0,0,0c-0.002-0.001,0.012-0.007,0.02-0.008c0.003,0,0.022,0.007,0.021,0.008
				c-0.002,0.001-0.008-0.012-0.007-0.007c-0.001-0.004-0.013-0.023-0.018-0.033c-0.053-0.107-0.084-0.232-0.09-0.351
				c-0.013-0.289,0.107-0.57,0.256-0.811c0.092-0.15,0.199-0.296,0.323-0.422C89.743,60.7,89.673,60.629,89.627,60.675
				L89.627,60.675z"/>
		</g>
		<g>
			<path style="fill:#D92C09;" d="M84.619,65.389c0.517-0.544,0.982-1.136,1.389-1.766c0.405-0.627,0.752-1.292,1.036-1.983
				c0.162-0.394,0.302-0.796,0.421-1.205c0.018-0.062-0.078-0.088-0.096-0.027c-0.209,0.716-0.483,1.411-0.821,2.075
				c-0.335,0.659-0.73,1.287-1.179,1.873c-0.256,0.335-0.531,0.655-0.821,0.961C84.504,65.365,84.575,65.436,84.619,65.389
				L84.619,65.389z"/>
		</g>
		<g>
			<path style="fill:#D92C09;" d="M87.45,57.93c-0.002-0.001-0.005-0.003-0.008-0.004c0.008,0.01,0.015,0.02,0.023,0.03
				c-0.036-0.001-0.053,0.013-0.049,0.04c-0.003,0.016-0.006,0.032-0.009,0.048c-0.004,0.024-0.009,0.048-0.013,0.071
				c-0.01,0.055-0.021,0.111-0.031,0.166c-0.021,0.111-0.044,0.221-0.067,0.331c-0.045,0.213-0.094,0.425-0.146,0.636
				c-0.106,0.43-0.228,0.856-0.363,1.278c-0.02,0.061,0.077,0.088,0.096,0.027c0.262-0.817,0.47-1.65,0.623-2.494
				c0.011-0.059,0.024-0.18-0.073-0.171c-0.064,0.006-0.095,0.097-0.034,0.129C87.456,58.046,87.507,57.96,87.45,57.93L87.45,57.93z
				"/>
		</g>
		<path style="fill:#016FC2;" d="M95.491,61.525l-2.441,0.878c-0.045,0.016-0.077-0.008-0.072-0.053l0.638-5.849
			c0.005-0.045,0.046-0.096,0.09-0.112l2.441-0.878c0.045-0.016,0.077,0.008,0.072,0.053l-0.126,1.157l-0.512,4.692
			C95.577,61.458,95.536,61.509,95.491,61.525z"/>
		<path style="fill:#F7A98F;" d="M81.893,61.386c-0.081-0.038-0.184-0.058-0.327-0.062c-0.032-0.001-0.485,0.015-0.468,0.04
			c-0.292-0.42-0.153-0.954-0.16-1.335c0.308,0.065,0.666,0.002,0.983,0.017c0.343,0.016,0.579,0.086,0.895,0.214
			c0.356,0.145,0.704,0.38,0.953,0.672c0.075,0.088,0.318,0.375,0.062,0.316c-0.166-0.038-0.273-0.247-0.452-0.292
			c0.066,0.23,0.229,0.41,0.318,0.624c0.09,0.215,0.069,0.501,0.035,0.727c-0.049,0.325-0.089,0.518-0.445,0.552
			c-0.036,0.003-0.063-0.037-0.081-0.035c-0.036,0.004-0.076,0.075-0.105,0.07c-0.091-0.015-0.099-0.035-0.165-0.106
			c-0.103-0.112-0.191-0.26-0.281-0.383c-0.138-0.189-0.269-0.389-0.392-0.588C82.127,61.597,82.049,61.458,81.893,61.386z"/>
		<path style="fill:#F7A98F;" d="M94.938,58.702c-0.014,0.005-0.027,0.012-0.038,0.023c-0.027,0.027-0.038,0.2-0.003,0.198
			c-0.177,0.007-0.198,0.276-0.066,0.35c-0.159,0.018-0.137,0.234-0.033,0.299c-0.329,0.107,0.316,0.667,0.417,0.74
			c0.139,0.1,0.311,0.205,0.469,0.271c0.127,0.053,0.143,0.054,0.232-0.044c0.278-0.304,0.263-0.773,0.217-1.15
			c-0.022-0.181-0.058-0.358-0.065-0.54c-0.005-0.125,0.032-0.358-0.064-0.457c-0.129,0.132-0.294,0.464-0.194,0.633
			c-0.115,0.004-0.197,0.023-0.304-0.034c-0.14-0.074-0.247-0.213-0.398-0.266C95.061,58.708,94.992,58.685,94.938,58.702z"/>
		<g>
			<path style="fill:#7C4415;" d="M83.272,61.629c0.108,0.183,0.212,0.373,0.256,0.583c0.018,0.087,0.025,0.176,0.023,0.265
				c-0.002,0.08,0.006,0.298-0.118,0.285c0.014,0.008,0.029,0.016,0.043,0.025c-0.05-0.103-0.041-0.223-0.053-0.334
				c-0.01-0.091-0.025-0.181-0.055-0.267c-0.061-0.177-0.173-0.329-0.276-0.483c-0.036-0.053-0.123-0.003-0.086,0.05
				c0.094,0.139,0.199,0.279,0.259,0.438c0.029,0.078,0.047,0.16,0.057,0.243c0.011,0.093,0.009,0.188,0.027,0.28
				c0.008,0.04,0.019,0.097,0.046,0.129c0.024,0.028,0.07,0.024,0.103,0.014c0.084-0.027,0.129-0.118,0.14-0.199
				c0.023-0.165,0.02-0.334-0.018-0.496c-0.049-0.208-0.152-0.4-0.26-0.583C83.326,61.523,83.239,61.573,83.272,61.629
				L83.272,61.629z"/>
		</g>
		<g>
			<path style="fill:#7C4415;" d="M82.738,61.95c0.075,0.11,0.138,0.226,0.196,0.346c0.063,0.129,0.14,0.255,0.192,0.388
				c0.031,0.08,0.037,0.195,0.134,0.226c0.116,0.037,0.225-0.052,0.235-0.166c0.006-0.064-0.094-0.064-0.1,0
				c-0.004,0.046-0.049,0.081-0.095,0.073c-0.032-0.005-0.04-0.034-0.048-0.061c-0.03-0.099-0.07-0.189-0.118-0.281
				c-0.103-0.193-0.187-0.394-0.311-0.575C82.788,61.846,82.701,61.896,82.738,61.95L82.738,61.95z"/>
		</g>
		<g>
			<path style="fill:#6CAEE3;" d="M96.146,55.679c-0.558,0.198-1.114,0.398-1.668,0.607c-0.147,0.056-0.294,0.111-0.439,0.171
				c-0.069,0.028-0.172,0.054-0.228,0.108c-0.027,0.026-0.024,0.065-0.028,0.1c-0.008,0.068-0.016,0.136-0.023,0.204
				c-0.066,0.604-0.13,1.209-0.194,1.814c-0.082,0.772-0.163,1.544-0.244,2.316c-0.031,0.292-0.061,0.584-0.092,0.876
				c-0.015,0.145-0.036,0.291-0.046,0.436c-0.001,0.007-0.001,0.013-0.002,0.02c-0.007,0.064,0.093,0.063,0.1,0
				c0.037-0.357,0.075-0.715,0.112-1.072c0.078-0.749,0.157-1.497,0.236-2.246c0.069-0.653,0.138-1.306,0.208-1.959
				c0.016-0.143,0.03-0.286,0.048-0.429c0.001-0.006-0.008,0.007,0-0.002c0.002-0.002-0.01,0.019-0.015,0.019
				c0.019,0,0.06-0.032,0.078-0.04c0.111-0.051,0.226-0.094,0.341-0.139c0.609-0.236,1.225-0.455,1.84-0.674
				c0.013-0.005,0.027-0.009,0.04-0.014C96.233,55.754,96.207,55.657,96.146,55.679L96.146,55.679z"/>
		</g>
		<g>
			<path style="fill:#7C4415;" d="M94.779,59.686c0.006-0.013-0.01,0.007-0.003,0.002c0.005-0.003-0.012,0.006-0.001,0.001
				c0.007-0.003-0.005,0.001-0.006,0.001c0.002,0,0.006-0.001,0.008,0c0.002,0,0.014,0.001,0.005,0
				c-0.009-0.001,0.006,0.001,0.008,0.002c0.011,0.003,0.021,0.006,0.031,0.009c0.017,0.006,0.011,0.004,0.026,0.011
				c0.014,0.006,0.027,0.013,0.041,0.021c0.027,0.014,0.053,0.03,0.079,0.046c0.059,0.037,0.116,0.076,0.172,0.117
				c0.048,0.035,0.094,0.07,0.134,0.101c0.023,0.018,0.046,0.036,0.068,0.054c0.021,0.017,0.05,0.02,0.071,0
				c0.018-0.018,0.021-0.054,0-0.071c-0.071-0.059-0.145-0.115-0.22-0.17c-0.108-0.079-0.225-0.167-0.354-0.209
				c-0.049-0.016-0.118-0.021-0.145,0.034C94.664,59.693,94.751,59.743,94.779,59.686L94.779,59.686z"/>
		</g>
		<g>
			<path style="fill:#7C4415;" d="M95.516,59.663c-0.128-0.086-0.259-0.167-0.393-0.243c-0.086-0.048-0.176-0.097-0.27-0.128
				c-0.076-0.025-0.17-0.024-0.194,0.071c-0.023,0.091,0.033,0.201,0.08,0.277c0.034,0.055,0.12,0.005,0.086-0.05
				c-0.033-0.053-0.071-0.122-0.071-0.186c0-0.014,0.002-0.023,0.008-0.027c0.009-0.006-0.003,0.001,0.006-0.002
				c-0.014,0.004,0.001,0.001,0.008,0.001c0.012,0-0.003-0.001,0.005,0.001c0.007,0.001,0.014,0.003,0.021,0.005
				c0.017,0.004,0.033,0.01,0.049,0.016c0.169,0.064,0.331,0.171,0.485,0.268c0.043,0.028,0.086,0.055,0.129,0.084
				C95.519,59.785,95.569,59.699,95.516,59.663L95.516,59.663z"/>
		</g>
		<g>
			<path style="fill:#7C4415;" d="M95.596,59.32c-0.142-0.078-0.287-0.153-0.434-0.222c-0.091-0.043-0.185-0.087-0.282-0.116
				c-0.078-0.023-0.166-0.021-0.185,0.078c-0.018,0.097,0.027,0.207,0.067,0.294c0.027,0.058,0.113,0.008,0.086-0.05
				c-0.001-0.002-0.002-0.004-0.003-0.006c-0.005-0.011,0.003,0.007-0.003-0.006c-0.008-0.019-0.015-0.037-0.021-0.056
				c-0.015-0.042-0.029-0.088-0.03-0.133c0-0.006,0.001-0.02,0.001-0.022c0.002-0.008,0.003-0.014,0.003-0.012
				c0-0.004,0.002-0.002,0.003-0.002c-0.009-0.002-0.005,0,0.005,0.001c0.005,0,0.015,0.002,0.005,0
				c0.007,0.001,0.014,0.003,0.021,0.004c0.017,0.004,0.034,0.009,0.051,0.015c0.181,0.06,0.353,0.154,0.522,0.242
				c0.048,0.025,0.096,0.051,0.144,0.077C95.602,59.437,95.652,59.351,95.596,59.32L95.596,59.32z"/>
		</g>
		<g>
			<path style="fill:#7C4415;" d="M95.694,59.069c0.026,0.007,0.052,0.016,0.078,0.026c0.006,0.002,0.013,0.005,0.019,0.008
				c-0.004-0.002-0.003-0.001,0.002,0.001c0.003,0.001,0.006,0.003,0.009,0.004c0.012,0.006,0.025,0.012,0.037,0.018
				c0.049,0.025,0.095,0.054,0.139,0.088c0.021,0.016,0.057,0.004,0.068-0.018c0.014-0.027,0.004-0.051-0.018-0.068
				c-0.092-0.071-0.197-0.123-0.308-0.155c-0.025-0.007-0.056,0.009-0.062,0.035C95.653,59.034,95.667,59.061,95.694,59.069
				L95.694,59.069z"/>
		</g>
		<g>
			<path style="fill:#001C31;" d="M85.645,51.747c0.21-0.165,0.557-1.076,0.558-1.359c0.001-0.43-0.314-0.627-0.458-0.963
				c0.156,0.364,0.154,0.379,0.101,0.765c0.063-0.505-0.225-0.914-0.742-1.05c-0.635-0.167-1.327,0.076-1.945,0.209
				c-0.502,0.108-0.604,0.536-0.731,1.012c-0.069,0.259-0.195,0.644-0.127,0.915c0.048,0.189,0.799,2.406,0.799,2.406
				c0.524-0.474,1.144-1.344,1.668-1.818c0.295-0.267,0.574-0.495,0.899-0.708C85.718,51.123,85.596,51.786,85.645,51.747z"/>
			<path style="fill:#F7A98F;" d="M82.872,52.056c0,0,0.186,2.389,0.051,2.597c-0.135,0.208-0.784,0.346-0.699,0.364
				c0.085,0.019,0.393,1.024,1.923,1.095c0.397,0.018,0.691-0.044,0.91-0.146c0.436-0.204,0.44-0.832,0.003-1.034
				c-0.132-0.061-0.245-0.152-0.292-0.288c-0.145-0.419-0.127-1.039-0.127-1.039L82.872,52.056z"/>
			<path style="fill:#F7A98F;" d="M84.022,50.348c-0.299,0.142-0.575,0.586-0.597,0.819c-0.022,0.233-0.113,0.51-0.317,0.495
				c-0.205-0.016-0.199-0.579-0.596-0.399c-0.396,0.18-0.105,1.285,0.477,1.205c0,0,0.105,0.737,0.442,0.96
				c0.337,0.223,0.948,0.685,1.468,0.621c0.519-0.064,0.843-0.587,0.819-1.692c-0.023-1.105,0.233-2-0.166-1.939
				C85.152,50.479,84.022,50.348,84.022,50.348z"/>
			<path style="fill:#FFFFFF;" d="M84.286,52.984c0,0,0.469,0.104,0.98,0.016c0,0,0.067,0.44-0.475,0.421
				C84.429,53.407,84.286,52.984,84.286,52.984z"/>
			<g>
				<path style="fill:#016FC2;" d="M82.74,49.795c0.118-0.08,0.243-0.158,0.385-0.187c0.136-0.027,0.281-0.004,0.405,0.057
					c0.257,0.126,0.401,0.397,0.409,0.677c0.002,0.064,0.102,0.064,0.1,0c-0.009-0.313-0.171-0.622-0.459-0.763
					c-0.135-0.066-0.287-0.095-0.437-0.074c-0.168,0.023-0.315,0.111-0.454,0.204C82.637,49.745,82.687,49.832,82.74,49.795
					L82.74,49.795z"/>
			</g>
			<g>
				<path style="fill:#016FC2;" d="M83.908,49.556c0.171,0.209,0.34,0.487,0.237,0.764c-0.022,0.06,0.074,0.086,0.096,0.027
					c0.116-0.312-0.07-0.626-0.262-0.861C83.938,49.435,83.868,49.506,83.908,49.556L83.908,49.556z"/>
			</g>
			<g>
				<path style="fill:#7C4415;" d="M85.074,52.731c0.15-0.092,0.229-0.268,0.205-0.441c-0.004-0.027-0.038-0.041-0.062-0.035
					c-0.029,0.008-0.039,0.035-0.035,0.062c-0.001-0.006,0,0.004,0,0.006c0,0.005,0.001,0.009,0.001,0.014
					c0,0.008,0.001,0.017,0,0.025c0,0.017-0.002,0.032-0.004,0.043c-0.003,0.017-0.007,0.035-0.013,0.052
					c-0.006,0.018-0.01,0.029-0.017,0.043c-0.03,0.061-0.073,0.111-0.129,0.145C84.968,52.678,85.019,52.764,85.074,52.731
					L85.074,52.731z"/>
			</g>
			<g>
				<path style="fill:#7C4415;" d="M82.832,52.076c0.125,0.388,0.141,0.823,0.385,1.164c0.217,0.303,0.53,0.561,0.868,0.719
					c0.184,0.086,0.386,0.146,0.591,0.132c0.064-0.004,0.064-0.104,0-0.1c-0.36,0.024-0.713-0.18-0.983-0.399
					c-0.136-0.111-0.265-0.236-0.371-0.377c-0.115-0.153-0.182-0.328-0.231-0.511c-0.058-0.217-0.094-0.44-0.163-0.654
					C82.909,51.989,82.812,52.015,82.832,52.076L82.832,52.076z"/>
			</g>
			<g>
				<path style="fill:#016FC2;" d="M85.713,49.508c0.188,0.27,0.156,0.64-0.007,0.913c-0.033,0.055,0.053,0.106,0.086,0.05
					c0.18-0.302,0.214-0.716,0.007-1.014C85.763,49.405,85.676,49.455,85.713,49.508L85.713,49.508z"/>
			</g>
			<g>
				<path style="fill:#001C31;" d="M83.898,51.572c0.057-0.032,0.116-0.059,0.178-0.078c0.059-0.018,0.127-0.036,0.189-0.029
					c0.113,0.012,0.216,0.095,0.306,0.158c0.053,0.037,0.103-0.05,0.05-0.086c-0.107-0.074-0.222-0.159-0.356-0.171
					c-0.069-0.006-0.144,0.012-0.209,0.031c-0.073,0.022-0.143,0.053-0.209,0.09C83.791,51.517,83.841,51.604,83.898,51.572
					L83.898,51.572z"/>
			</g>
			<g>
				<path style="fill:#001C31;" d="M85.239,51.562c0.118-0.117,0.381-0.192,0.501-0.037c0.017,0.021,0.053,0.017,0.071,0
					c0.021-0.021,0.017-0.049,0-0.071c-0.071-0.092-0.196-0.122-0.307-0.112c-0.124,0.011-0.246,0.061-0.335,0.15
					C85.122,51.536,85.193,51.607,85.239,51.562L85.239,51.562z"/>
			</g>
			<g>
				<path style="fill:#001C31;" d="M83.96,51.137c0.159-0.078,0.353-0.073,0.509,0.01c0.057,0.03,0.107-0.056,0.05-0.086
					c-0.189-0.101-0.417-0.104-0.61-0.01C83.852,51.079,83.903,51.165,83.96,51.137L83.96,51.137z"/>
			</g>
			<g>
				<path style="fill:#001C31;" d="M85.277,51.173c0.08-0.044,0.17-0.066,0.262-0.063c0.037,0.001,0.073,0.004,0.108,0.01
					c0.017,0.003,0.035,0.007,0.052,0.012c0.015,0.005,0.017,0.004,0.032,0.016c0.021,0.016,0.056,0.003,0.068-0.018
					c0.015-0.026,0.004-0.052-0.018-0.068c-0.03-0.023-0.072-0.031-0.108-0.038c-0.044-0.008-0.09-0.012-0.135-0.014
					c-0.109-0.004-0.217,0.025-0.312,0.077C85.17,51.117,85.221,51.203,85.277,51.173L85.277,51.173z"/>
			</g>
			<path style="fill:#001C31;" d="M84.423,51.659c-0.025,0.111-0.135,0.182-0.246,0.157c-0.112-0.025-0.182-0.135-0.157-0.246
				c0.025-0.111,0.135-0.182,0.246-0.157C84.377,51.437,84.447,51.547,84.423,51.659z"/>
			<path style="fill:#001C31;" d="M85.706,51.637c-0.025,0.111-0.135,0.182-0.247,0.157c-0.111-0.025-0.182-0.135-0.157-0.246
				c0.025-0.111,0.135-0.182,0.247-0.157C85.66,51.416,85.73,51.526,85.706,51.637z"/>
		</g>
	</g>
	<g>
		<path style="fill:#F7A98F;" d="M65.32,47.984c0,0-0.292,1.961-0.216,2.297c0.076,0.336,0.893,0.898,0.984,0.87
			c0.091-0.029,0.837-1.183,0.837-1.183l1.138-2.797L65.32,47.984z"/>
		<path style="fill:#F7A98F;" d="M69.747,48.461c0,0-0.075,1.981,0.038,2.307c0.112,0.326,0.986,0.795,1.073,0.756
			c0.087-0.038,0.702-1.268,0.702-1.268l0.297-2.99L69.747,48.461z"/>
		<path style="fill:#016FC2;" d="M64.731,50.588c-0.01,0.01-0.024,0.032-0.04,0.064c-0.105,0.208-0.314,0.817-0.305,0.874
			c0.011,0.066,0.933,0.646,1.006,0.593c0.073-0.053,0.154-0.018,0.154-0.018l0.114,0.234c0,0,1.122,0.546,1.764,0.714
			c0.642,0.168,0.838,0.026,0.89-0.03c0.052-0.056,0.057-0.358,0.057-0.358s-0.473-0.011-0.894-0.078
			c-0.421-0.067-1.382-0.674-1.809-1.11C65.242,51.037,64.731,50.588,64.731,50.588z"/>
		<path style="fill:#6CAEE3;" d="M65.104,49.741c-0.14,0.064-0.434,1.096-0.466,1.156c-0.031,0.06,1.325,1.162,1.695,1.415
			c0.37,0.253,1.798,0.503,1.934,0.46c0.136-0.043,0.2-0.443,0.125-0.649c-0.075-0.206-1.341-1.337-1.345-1.446
			c-0.002-0.042,0.005-0.152,0.013-0.272c0.021-0.301-0.246-0.55-0.542-0.493c-0.05,0.01-0.097,0.027-0.135,0.054
			c-0.22,0.159-0.28,0.668-0.455,0.683C65.755,50.666,65.104,49.741,65.104,49.741z"/>
		<path style="fill:#016FC2;" d="M69.448,51.114c-0.009,0.011-0.02,0.035-0.032,0.068c-0.082,0.218-0.222,0.846-0.207,0.903
			c0.018,0.065,0.998,0.539,1.065,0.478c0.067-0.061,0.151-0.035,0.151-0.035l0.139,0.22c0,0,1.175,0.42,1.832,0.515
			s0.836-0.066,0.881-0.128c0.046-0.062,0.017-0.362,0.017-0.362s-0.472,0.041-0.897,0.021c-0.426-0.021-1.448-0.518-1.92-0.904
			C70.006,51.504,69.448,51.114,69.448,51.114z"/>
		<path style="fill:#6CAEE3;" d="M69.726,50.231c-0.132,0.079-0.311,1.138-0.336,1.2c-0.024,0.063,1.445,1.009,1.84,1.22
			c0.395,0.211,1.842,0.303,1.973,0.245c0.131-0.058,0.15-0.462,0.053-0.659c-0.097-0.197-1.48-1.181-1.496-1.289
			c-0.006-0.041-0.012-0.151-0.017-0.272c-0.013-0.301-0.305-0.519-0.593-0.431c-0.049,0.015-0.093,0.037-0.128,0.069
			c-0.201,0.182-0.204,0.694-0.377,0.729C70.475,51.079,69.726,50.231,69.726,50.231z"/>
		<path style="fill:#FFFFFF;" d="M72.078,49.734c-0.782,0.231-2.819-0.192-2.819-0.192l0.113-3.216l0.051-1.454l-1.811,4.438
			c-0.383,0.165-2.558-0.409-2.558-0.409s0.084-2.35,0.585-3.857c0.5-1.507,0.849-2.066,0.691-2.092
			c-0.158-0.025-5.959,0.407-7.285,0.195c-0.452-0.072-0.884-0.951-0.791-1.94c0.093-0.989,0.403-1.911,0.403-1.911l0.322-1.406
			c0,0,2.188,0.091,2.382,0.09c0.132-0.001,5.202,0.938,8.483,1.688c1.552,0.355,2.703,0.668,2.741,0.82
			c0.041,0.164-0.008,1.326-0.089,2.776C72.345,45.993,72.078,49.734,72.078,49.734z"/>
		<path style="fill:#F0F7FD;" d="M72.497,43.265c-0.713,1.151-2.347,2.47-3.125,3.062l0.051-1.454c0,0,0.998-2.593,1.007-3.66
			c0.005-0.556-0.296-1.125-0.585-1.544c1.552,0.355,2.703,0.668,2.741,0.82C72.627,40.653,72.578,41.815,72.497,43.265z"/>
		<g>
			<path style="fill:#016FC2;" d="M69.472,44.886c0.144-0.592,0.309-1.182,0.502-1.76c0.065-0.195,0.133-0.388,0.211-0.578
				c0.069-0.17,0.16-0.33,0.217-0.504c0.136-0.408,0.153-0.856,0.14-1.283c-0.008-0.271-0.028-0.544-0.071-0.812
				c-0.01-0.063-0.107-0.036-0.096,0.027c0.035,0.217,0.053,0.445,0.063,0.668c0.02,0.42,0.012,0.855-0.099,1.264
				c-0.049,0.181-0.135,0.342-0.209,0.514c-0.077,0.181-0.145,0.365-0.209,0.551c-0.136,0.395-0.254,0.796-0.365,1.198
				c-0.063,0.229-0.124,0.459-0.181,0.69C69.36,44.922,69.456,44.949,69.472,44.886L69.472,44.886z"/>
		</g>
		<g>
			<path style="fill:#016FC2;" d="M66.373,42.979c0.09-0.15,0.187-0.297,0.285-0.441c0.187-0.273,0.387-0.543,0.621-0.778
				c0.103-0.104,0.22-0.214,0.358-0.27c0.059-0.024,0.033-0.121-0.027-0.096c-0.277,0.113-0.492,0.377-0.674,0.603
				c-0.197,0.243-0.376,0.5-0.545,0.764c-0.036,0.056-0.071,0.112-0.105,0.168C66.254,42.983,66.34,43.034,66.373,42.979
				L66.373,42.979z"/>
		</g>
		<g>
			<path style="fill:#016FC2;" d="M66.818,41.009c-0.091,0.163-0.16,0.342-0.214,0.519c-0.098,0.321-0.147,0.678-0.04,1.004
				c0.02,0.061,0.117,0.035,0.096-0.027c-0.103-0.314-0.051-0.656,0.045-0.965c0.051-0.165,0.115-0.329,0.199-0.48
				C66.936,41.003,66.849,40.952,66.818,41.009L66.818,41.009z"/>
		</g>
		<g>
			<path style="fill:#016FC2;" d="M59.501,38.671c-0.001-0.001,0.001-0.01,0,0.002c0.001-0.007,0.001,0.014,0,0.023
				c-0.001,0.026-0.007,0.053-0.013,0.08c-0.021,0.09-0.049,0.179-0.075,0.268c-0.076,0.261-0.144,0.524-0.179,0.793
				c-0.039,0.307-0.033,0.625,0.06,0.922c0.045,0.144,0.1,0.294,0.22,0.391c0.185,0.15,0.438,0.214,0.666,0.263
				c0.348,0.075,0.706,0.111,1.061,0.135c0.431,0.03,0.862,0.039,1.294,0.04c0.454,0,0.908-0.01,1.362-0.027
				c0.42-0.016,0.84-0.038,1.259-0.066c0.328-0.021,0.656-0.046,0.983-0.076c0.186-0.017,0.373-0.032,0.558-0.059
				c0.016-0.002,0.034-0.004,0.049-0.008c0.007-0.002,0.015-0.004,0.021-0.008c0.003-0.002,0.02-0.014,0.019-0.019
				c-0.002-0.009-0.066,0.033-0.066,0.013c0,0.002,0.011,0.01,0.012,0.012c0.015,0.027,0.041,0.052,0.059,0.077
				c0.029,0.041,0.058,0.083,0.086,0.125c0.054,0.081,0.107,0.163,0.162,0.243c0.026,0.039,0.063,0.116,0.121,0.088
				c-0.025-0.014-0.05-0.029-0.075-0.043c-0.002-0.02,0.003-0.012-0.002-0.001c-0.005,0.01-0.008,0.022-0.012,0.033
				c-0.015,0.041-0.031,0.082-0.046,0.123c-0.056,0.151-0.111,0.303-0.166,0.455c-0.18,0.501-0.353,1.006-0.518,1.512
				c-0.203,0.627-0.394,1.259-0.56,1.897c-0.153,0.59-0.291,1.188-0.36,1.794c-0.027,0.233-0.044,0.469-0.031,0.704
				c0.01,0.173,0.034,0.352,0.112,0.509c0.015,0.03,0.032,0.058,0.052,0.085c0.038,0.051,0.125,0.001,0.086-0.05
				c-0.091-0.121-0.124-0.277-0.141-0.427c-0.025-0.221-0.015-0.446,0.005-0.667c0.053-0.589,0.184-1.171,0.327-1.744
				c0.161-0.64,0.349-1.273,0.549-1.902c0.167-0.524,0.344-1.045,0.529-1.563c0.06-0.168,0.121-0.335,0.182-0.503
				c0.028-0.076,0.066-0.153,0.086-0.232c0.002-0.008,0.006-0.013,0.005-0.023c-0.003-0.039-0.039-0.061-0.075-0.043
				c0.004-0.002,0.008-0.003,0.011-0.005c0.013,0.002,0.026,0.003,0.039,0.005c0.01,0.004,0.003,0.001,0.003,0
				c-0.007-0.011-0.016-0.022-0.023-0.033c-0.024-0.035-0.048-0.07-0.071-0.106c-0.057-0.086-0.114-0.172-0.173-0.256
				c-0.032-0.045-0.07-0.121-0.122-0.148c-0.016-0.008-0.033-0.01-0.049-0.003c-0.021,0.009-0.035,0.037-0.008,0.006
				c0.008-0.01,0.014-0.002,0.002-0.002c-0.016,0-0.034,0.006-0.05,0.008c-0.006,0.001-0.011,0.001-0.017,0.002
				c0.017-0.002-0.007,0.001-0.012,0.001c-0.017,0.002-0.033,0.004-0.05,0.006c-0.092,0.011-0.185,0.02-0.277,0.029
				c-0.296,0.029-0.593,0.052-0.89,0.073c-0.399,0.028-0.798,0.052-1.197,0.07c-0.446,0.02-0.893,0.034-1.339,0.039
				c-0.439,0.005-0.877,0.001-1.316-0.019c-0.375-0.017-0.752-0.045-1.123-0.105c-0.257-0.042-0.531-0.093-0.762-0.218
				c-0.074-0.04-0.144-0.091-0.184-0.152c-0.069-0.107-0.11-0.24-0.14-0.364c-0.037-0.151-0.051-0.307-0.05-0.462
				c0.002-0.293,0.058-0.582,0.133-0.864c0.049-0.185,0.123-0.37,0.151-0.56c0.007-0.046,0.013-0.105-0.024-0.141
				C59.525,38.556,59.454,38.626,59.501,38.671L59.501,38.671z"/>
		</g>
		<path style="fill:#27A77E;" d="M63.474,28.755l-1.029,0.224c0,0-2.329,0.793-2.619,1.524c-0.29,0.731-0.931,5.551-1.165,6.204
			c-0.234,0.653-0.008,1.45-0.059,1.718c-0.276,1.457-0.316,2.504-0.316,2.504s3.305-2.025,3.837-2.113
			c0.532-0.088,5.62-0.31,5.62-0.31s1.224-2.524,1.334-2.939c0.11-0.414-1.157-3.294-1.681-4.069
			c-0.524-0.775-1.708-1.741-1.708-1.741L63.474,28.755z"/>
		<path style="fill:#F7A98F;" d="M69.077,35.567c0,0-1.226-0.973-2.078-0.505c-0.852,0.468-0.695,1.444-0.505,1.604
			s1.702,1.437,1.967,1.134C68.725,37.496,69.077,35.567,69.077,35.567z"/>
		<path style="fill:#F7A98F;" d="M67.955,37.654c-0.052,0.061-0.128,0.144-0.214,0.152c-0.05,0.005-0.097-0.032-0.149-0.029
			c-0.048,0.003-0.084,0.03-0.129,0.042c-0.078,0.02-0.071-0.054-0.127-0.07c-0.06-0.017-0.109,0.057-0.179,0.034
			c-0.033-0.011-0.04-0.038-0.066-0.051c-0.104-0.054-0.152-0.034-0.21-0.149c-0.118-0.233-0.128-0.444-0.147-0.699
			c-0.005-0.071-0.024-0.15-0.031-0.219c-0.071,0.011-0.121,0.132-0.158,0.187c-0.064,0.096-0.126,0.198-0.207,0.282
			c-0.037,0.039-0.117,0.126-0.157,0.054c-0.017-0.031,0.013-0.117,0.019-0.151c0.021-0.134,0.033-0.263,0.035-0.395
			c0.002-0.129,0-0.258,0.026-0.388c0.016-0.079,0.041-0.164,0.083-0.232c0.045-0.073,0.113-0.095,0.171-0.153
			c0.165-0.167,0.329-0.252,0.554-0.315c0.313-0.088,0.66-0.139,0.937,0.071c0.109,0.082,0.227,0.095,0.284,0.232
			c0.043,0.104,0.057,0.224,0.063,0.335c0.014,0.251-0.029,0.483-0.044,0.728C68.294,37.173,68.118,37.468,67.955,37.654z"/>
		<path style="fill:#001C31;" d="M70.114,33.401c-0.522,0.564-2.686,6.263-2.848,6.194c-0.162-0.069-4.813-0.683-4.813-0.683
			l-0.047,0.295c0,0,4.473,1.19,4.845,1.293c0.372,0.103,6.92,1.28,7.15,1.187c0.231-0.093,2.92-5.837,2.945-6.265
			C77.373,34.994,70.114,33.401,70.114,33.401z"/>
		<path style="fill:#F7A98F;" d="M60.35,36.675c0,0,2.413-0.78,2.519-0.633c0.106,0.146,0.251,0.861,0.251,0.861
			s0.685-0.236,1.627,0.088s3.803,1.601,3.803,1.601l-0.02,1.206c0,0-6.234-0.436-7.129-1.054
			C60.507,38.125,60.35,36.675,60.35,36.675z"/>
		<g>
			<path style="fill:#1D7D5F;" d="M59.268,33.681c0.024,0.275,0.05,0.55,0.078,0.824c0.052,0.509,0.108,1.019,0.183,1.525
				c0.029,0.194,0.059,0.39,0.106,0.581c0.018,0.072,0.043,0.238,0.132,0.262c0.033,0.009,0.076-0.006,0.109-0.013
				c0.061-0.013,0.121-0.028,0.182-0.043c0.197-0.049,0.393-0.101,0.589-0.153c0.516-0.138,1.03-0.279,1.544-0.422
				c0.331-0.092,0.663-0.179,0.992-0.277c0.072-0.022,0.067-0.076,0.062-0.141c-0.01-0.131-0.029-0.261-0.047-0.391
				c-0.062-0.454-0.134-0.908-0.206-1.361c-0.081-0.509-0.163-1.017-0.247-1.526c-0.052-0.319-0.106-0.638-0.156-0.957
				c-0.002-0.013-0.004-0.027-0.006-0.04c-0.003-0.022-0.001-0.001-0.001-0.008c-0.006-0.063-0.106-0.064-0.1,0
				c0.021,0.226,0.072,0.452,0.109,0.676c0.077,0.472,0.155,0.944,0.231,1.416c0.078,0.487,0.156,0.975,0.228,1.464
				c0.039,0.265,0.071,0.529,0.098,0.795c0.001,0.013-0.002,0.001,0.001-0.001c-0.003,0.003,0.021-0.033,0.031-0.028
				c-0.003-0.002-0.021,0.006-0.025,0.007c-0.043,0.012-0.086,0.025-0.129,0.037c-0.168,0.047-0.337,0.094-0.506,0.141
				c-0.497,0.138-0.994,0.276-1.491,0.41c-0.384,0.104-0.768,0.214-1.156,0.301c-0.021,0.005-0.041,0.009-0.062,0.013
				c-0.007,0.001-0.014,0.002-0.021,0.004c-0.002,0,0.004,0.006-0.004,0c0.003,0.002,0.018,0.004,0.015,0.004
				c0.001,0,0.001,0.002-0.002-0.004c-0.011-0.02-0.017-0.031-0.022-0.043c-0.054-0.141-0.078-0.297-0.104-0.445
				c-0.085-0.483-0.139-0.971-0.191-1.458c-0.039-0.363-0.075-0.727-0.107-1.091c-0.002-0.019-0.003-0.038-0.005-0.057
				C59.363,33.618,59.263,33.617,59.268,33.681L59.268,33.681z"/>
		</g>
		<g>
			<path style="fill:#1D7D5F;" d="M62.7,31.661c-0.005,0.326-0.009,0.652-0.014,0.978c-0.001,0.047-0.001,0.094-0.002,0.141
				c-0.001,0.064,0.099,0.064,0.1,0c0.005-0.326,0.009-0.652,0.014-0.978c0.001-0.047,0.001-0.094,0.002-0.141
				C62.801,31.597,62.701,31.597,62.7,31.661L62.7,31.661z"/>
		</g>
		<g>
			<path style="fill:#1D7D5F;" d="M66.47,32.278c0.071,0.395,0.109,0.799,0.122,1.199c0.011,0.332-0.002,0.661-0.052,0.989
				c-0.053,0.347-0.109,0.694-0.169,1.041c-0.028,0.165-0.057,0.329-0.087,0.494c0.032,0.009,0.064,0.018,0.096,0.027
				c0.044-0.282,0.133-0.565,0.254-0.823c0.093-0.198,0.212-0.391,0.378-0.536c0.212-0.185,0.527-0.273,0.805-0.278
				c0.145-0.003,0.319,0.015,0.443,0.09c0.055,0.033,0.106-0.053,0.05-0.086c-0.112-0.067-0.255-0.091-0.383-0.101
				c-0.292-0.021-0.625,0.056-0.871,0.216c-0.38,0.248-0.574,0.722-0.693,1.142c-0.033,0.114-0.062,0.231-0.08,0.349
				c-0.01,0.063,0.085,0.09,0.096,0.027c0.087-0.47,0.164-0.943,0.238-1.415c0.053-0.34,0.083-0.675,0.077-1.02
				c-0.006-0.295-0.028-0.589-0.063-0.882c-0.018-0.153-0.038-0.307-0.066-0.458C66.555,32.188,66.459,32.215,66.47,32.278
				L66.47,32.278z"/>
		</g>
		<g>
			<path style="fill:#016FC2;" d="M77.361,35.373c-0.171-0.043-0.341-0.086-0.511-0.129c-0.429-0.108-0.858-0.215-1.287-0.323
				c-0.558-0.139-1.116-0.278-1.675-0.416c-0.562-0.138-1.125-0.276-1.688-0.411c-0.441-0.106-0.882-0.211-1.325-0.308
				c-0.134-0.029-0.268-0.059-0.402-0.084c-0.056-0.011-0.14-0.04-0.198-0.022c-0.061,0.019-0.1,0.134-0.126,0.184
				c-0.079,0.153-0.155,0.309-0.229,0.465c-0.233,0.484-0.459,0.972-0.685,1.46c-0.24,0.519-0.479,1.039-0.716,1.558
				c-0.14,0.307-0.28,0.614-0.42,0.922c-0.007,0.015-0.014,0.03-0.02,0.045c-0.026,0.058,0.06,0.109,0.086,0.05
				c0.098-0.215,0.196-0.43,0.294-0.645c0.223-0.488,0.446-0.975,0.67-1.462c0.238-0.516,0.477-1.032,0.72-1.545
				c0.092-0.194,0.184-0.388,0.279-0.581c0.055-0.112,0.109-0.226,0.172-0.334c0.007-0.011,0.015-0.022,0.021-0.033
				c-0.001,0.001-0.011,0.006-0.016,0.011c-0.009,0.008-0.015-0.001-0.003,0.001c0.005,0.001,0.01,0,0.014,0.001
				c0.006,0.001,0.011,0.001,0.017,0.002c0.021,0.002-0.002,0,0.013,0.002c0.105,0.016,0.21,0.038,0.314,0.06
				c0.398,0.084,0.793,0.178,1.189,0.272c0.544,0.129,1.086,0.261,1.629,0.394c0.567,0.139,1.133,0.279,1.699,0.42
				c0.466,0.116,0.932,0.233,1.398,0.35c0.243,0.061,0.485,0.122,0.728,0.183c0.011,0.003,0.022,0.005,0.033,0.008
				C77.397,35.486,77.423,35.389,77.361,35.373L77.361,35.373z"/>
		</g>
		<path style="fill:#F7A98F;" d="M68.396,38.799c0.037-0.093,0.083-0.185,0.137-0.276c0.239-0.402,0.562-0.428,0.996-0.502
			c0.161-0.027,0.618-0.204,0.708-0.047c0.121,0.21-0.281,0.407-0.424,0.486c0.213,0.029,1.476,0.051,1.019,0.518
			c0.154,0.161,0.002,0.377-0.193,0.397c0.034,0.129-0.02,0.237-0.128,0.297c0.208,0.607-1.27,0.318-1.527,0.299
			C68.262,39.918,68.173,39.353,68.396,38.799z"/>
		<g>
			<path style="fill:#7C4415;" d="M69.763,38.961c0.211-0.013,0.423-0.016,0.635-0.008c0.099,0.004,0.201,0.005,0.299,0.02
				c0.078,0.012,0.166,0.049,0.145,0.145c-0.045,0.2-0.34,0.155-0.488,0.152c-0.215-0.004-0.43-0.009-0.645-0.013
				c-0.064-0.001-0.064,0.099,0,0.1c0.2,0.004,0.4,0.008,0.6,0.012c0.165,0.003,0.376,0.037,0.52-0.066
				c0.105-0.075,0.163-0.236,0.069-0.342c-0.101-0.114-0.306-0.098-0.443-0.105c-0.23-0.011-0.461-0.009-0.691,0.005
				C69.699,38.864,69.698,38.965,69.763,38.961L69.763,38.961z"/>
		</g>
		<g>
			<path style="fill:#7C4415;" d="M69.654,39.699c0.138,0.01,0.276,0.016,0.414,0.019c0.109,0.002,0.22,0.011,0.329,0.007
				c0.093-0.003,0.186-0.027,0.247-0.102c0.074-0.093,0.07-0.214,0.014-0.313c-0.031-0.056-0.118-0.006-0.086,0.05
				c0.045,0.08,0.039,0.188-0.049,0.237c-0.068,0.038-0.155,0.029-0.23,0.025c-0.213-0.011-0.425-0.009-0.638-0.024
				C69.59,39.594,69.59,39.694,69.654,39.699L69.654,39.699z"/>
		</g>
		<g>
			<path style="fill:#7C4415;" d="M69.093,38.546c0.288-0.031,0.577-0.046,0.866-0.043c0.064,0.001,0.064-0.099,0-0.1
				c-0.289-0.003-0.578,0.012-0.866,0.043C69.03,38.453,69.029,38.553,69.093,38.546L69.093,38.546z"/>
		</g>
		<g>
			<g>
				<path style="fill:#1D7D5F;" d="M64.789,30.194c0.049,0.255,0.08,0.514,0.105,0.772c0.055,0.565,0.072,1.136,0.024,1.701
					c-0.03,0.351-0.086,0.7-0.185,1.039c-0.018,0.062,0.078,0.088,0.097,0.027c0.176-0.603,0.223-1.241,0.215-1.867
					c-0.006-0.478-0.046-0.957-0.115-1.43c-0.013-0.09-0.027-0.18-0.044-0.269C64.873,30.105,64.776,30.131,64.789,30.194
					L64.789,30.194z"/>
			</g>
			<path style="fill:#7C4415;" d="M64.419,24.273c-0.501,0.152-0.744,0.827-0.829,1.24c-0.085,0.413,0.174,2.624,0.258,2.674
				c0.085,0.051,3.309-1.214,3.432-1.287c0.123-0.073,0.615-0.829,0.557-1.394C67.78,24.941,66.738,23.569,64.419,24.273z"/>
			<path style="fill:#1D7D5F;" d="M63.913,27.901c0,0-1.318,0.939-1.393,1.057c-0.075,0.118-0.004,0.722,0.356,1.485
				c0.36,0.762,1.173,1.245,1.29,1.208c0.117-0.037,0.686-1.04,0.758-1.028c0.072,0.011,0.403,0.843,0.502,0.803
				c0.099-0.04,0.513-1.235,0.491-1.331c-0.022-0.096-0.841-1.117-0.784-1.127C65.19,28.958,63.913,27.901,63.913,27.901z"/>
			<path style="fill:#F7A98F;" d="M64.176,27.183c0,0-0.611,1.386-0.82,1.649c-0.209,0.263,1.057,1.857,1.537,1.637
				c0.48-0.22,0.149-0.699,0.182-0.787c0.033-0.087,0.229-0.965,0.229-0.965L64.176,27.183z"/>
			<path style="fill:#F7A98F;" d="M65.023,25.946c-0.15,0.124-0.31,0.544-0.351,0.686c-0.041,0.142-0.113,0.241-0.182,0.212
				c-0.069-0.03-0.043-0.545-0.417-0.641c-0.374-0.097-0.422,0.433-0.323,0.857c0.099,0.424,0.379,0.308,0.398,0.381
				c0.087,0.33,0.177,1.009,0.275,1.21c0.098,0.201,1.026,0.887,1.312,0.84c0.286-0.047,1.036-0.446,1.284-1.538
				c0.249-1.091,0.477-1.592,0.32-1.766c-0.158-0.174-0.4,0.066-0.97-0.081C65.8,25.959,65.173,25.822,65.023,25.946z"/>
			<g>
				<path style="fill:#7C4415;" d="M64.066,27.149c0.03,0.119,0.031,0.24,0.034,0.361c0.003,0.108,0.013,0.214,0.03,0.32
					c0.02,0.119,0.046,0.237,0.071,0.355c0.022,0.104,0.035,0.211,0.068,0.312c0.061,0.19,0.212,0.332,0.36,0.459
					c0.157,0.135,0.328,0.252,0.511,0.349c0.057,0.03,0.107-0.056,0.05-0.086c-0.182-0.097-0.352-0.212-0.507-0.348
					c-0.148-0.13-0.288-0.267-0.335-0.464c-0.049-0.206-0.092-0.418-0.125-0.627c-0.034-0.218-0.006-0.443-0.061-0.657
					C64.147,27.06,64.05,27.086,64.066,27.149L64.066,27.149z"/>
			</g>
			<g>
				<path style="fill:#7C4415;" d="M66.134,28.277c0.076-0.002,0.148-0.033,0.205-0.084c0.057-0.051,0.092-0.121,0.102-0.197
					c0.003-0.026-0.025-0.051-0.05-0.05c-0.03,0.001-0.046,0.022-0.05,0.05c0.002-0.014,0-0.002,0,0.001
					c-0.001,0.003-0.001,0.007-0.002,0.011c-0.002,0.008-0.004,0.015-0.006,0.022c-0.001,0.003-0.002,0.007-0.004,0.01
					c-0.001,0.002-0.001,0.003-0.002,0.005c0.002-0.006,0.003-0.007,0.001-0.004c-0.003,0.006-0.006,0.013-0.01,0.019
					c-0.004,0.007-0.008,0.014-0.012,0.02c-0.002,0.003-0.004,0.006-0.006,0.009c-0.006,0.008,0.006-0.007-0.001,0.001
					c-0.01,0.011-0.019,0.022-0.03,0.031c-0.003,0.002-0.006,0.005-0.008,0.007c-0.001,0.001-0.003,0.002-0.004,0.003
					c-0.003,0.002-0.002,0.001,0.003-0.002c-0.003-0.001-0.015,0.01-0.018,0.012c-0.012,0.007-0.025,0.016-0.038,0.02
					c0.012-0.004,0.001-0.001-0.001,0c-0.003,0.001-0.007,0.003-0.01,0.004c-0.007,0.002-0.014,0.004-0.021,0.006
					c-0.004,0.001-0.008,0.002-0.012,0.003c-0.002,0-0.004,0.001-0.005,0.001c0.007-0.001,0.008-0.001,0.004,0
					c-0.008,0.001-0.016,0.001-0.023,0.001c-0.026,0.001-0.051,0.023-0.05,0.05C66.086,28.254,66.106,28.278,66.134,28.277
					L66.134,28.277z"/>
			</g>
			<g>
				<path style="fill:#5D3310;" d="M64.296,24.667c-0.065,0.227,0.02,0.494,0.12,0.7c0.103,0.212,0.257,0.394,0.444,0.536
					c0.051,0.039,0.101-0.048,0.05-0.086c-0.169-0.128-0.305-0.294-0.4-0.483c-0.092-0.184-0.178-0.434-0.118-0.639
					C64.41,24.632,64.314,24.605,64.296,24.667L64.296,24.667z"/>
			</g>
			<g>
				<path style="fill:#5D3310;" d="M64.087,24.72c-0.032,0.193,0.01,0.394,0.123,0.554c0.016,0.022,0.044,0.032,0.068,0.018
					c0.022-0.013,0.034-0.046,0.018-0.068c-0.097-0.137-0.141-0.31-0.113-0.477c0.005-0.027-0.007-0.054-0.035-0.062
					C64.124,24.678,64.091,24.693,64.087,24.72L64.087,24.72z"/>
			</g>
			<g>
				<path style="fill:#5D3310;" d="M66.842,26.215c0.39-0.03,0.752-0.242,0.966-0.57c0.035-0.054-0.051-0.104-0.086-0.051
					c-0.194,0.296-0.526,0.494-0.88,0.521C66.778,26.12,66.777,26.22,66.842,26.215L66.842,26.215z"/>
			</g>
			<path style="fill:#FFFFFF;" d="M65.412,28.296c0,0,0.582,0.345,0.943,0.331c0,0-0.191,0.385-0.608,0.225
				C65.554,28.777,65.432,28.425,65.412,28.296z"/>
			<g>
				<path style="fill:#001C31;" d="M65.346,26.926c0.224-0.089,0.489-0.048,0.671,0.112c0.048,0.042,0.119-0.028,0.071-0.071
					c-0.207-0.182-0.511-0.24-0.768-0.137C65.26,26.853,65.286,26.95,65.346,26.926L65.346,26.926z"/>
			</g>
			<g>
				<path style="fill:#001C31;" d="M66.837,27.296c0.051-0.025,0.115-0.027,0.174-0.01c0.031,0.009,0.052,0.02,0.082,0.04
					c0.001,0.001,0.003,0.002,0.004,0.003c-0.003-0.002-0.003-0.002,0,0c0.003,0.003,0.007,0.005,0.01,0.008
					c0.006,0.006,0.012,0.012,0.018,0.018c0.013,0.014,0.016,0.017,0.026,0.035c0.034,0.055,0.12,0.004,0.086-0.051
					c-0.092-0.15-0.294-0.206-0.451-0.13c-0.024,0.012-0.031,0.046-0.018,0.068C66.783,27.303,66.813,27.308,66.837,27.296
					L66.837,27.296z"/>
			</g>
			<g>
				<path style="fill:#001C31;" d="M65.566,26.407c0.23-0.041,0.482,0.056,0.623,0.243c0.016,0.022,0.043,0.032,0.068,0.018
					c0.021-0.012,0.034-0.047,0.018-0.068c-0.17-0.226-0.457-0.339-0.736-0.289C65.476,26.322,65.503,26.418,65.566,26.407
					L65.566,26.407z"/>
			</g>
			<g>
				<path style="fill:#001C31;" d="M67.011,26.802c0.051-0.025,0.115-0.027,0.174-0.01c0.031,0.009,0.052,0.02,0.082,0.041
					c0.001,0.001,0.003,0.002,0.004,0.003c-0.003-0.002-0.003-0.002,0,0c0.003,0.003,0.007,0.006,0.01,0.008
					c0.006,0.006,0.013,0.011,0.018,0.018c0.013,0.014,0.016,0.018,0.026,0.035c0.034,0.055,0.12,0.004,0.086-0.05
					c-0.092-0.15-0.294-0.206-0.451-0.13c-0.024,0.012-0.031,0.046-0.018,0.068C66.957,26.809,66.987,26.813,67.011,26.802
					L67.011,26.802z"/>
			</g>
			<path style="fill:#001C31;" d="M65.949,27.114c-0.02,0.126-0.139,0.212-0.265,0.192c-0.126-0.02-0.212-0.139-0.192-0.265
				c0.02-0.126,0.139-0.212,0.265-0.192C65.883,26.869,65.969,26.988,65.949,27.114z"/>
			<path style="fill:#001C31;" d="M67.174,27.494c-0.02,0.126-0.139,0.212-0.265,0.192c-0.126-0.02-0.212-0.139-0.192-0.265
				c0.02-0.126,0.139-0.212,0.265-0.192C67.108,27.249,67.194,27.368,67.174,27.494z"/>
		</g>
		<g>
			<path style="fill:#7C4415;" d="M66.658,35.678c-0.142,0.072-0.262,0.186-0.336,0.328c-0.088,0.168-0.105,0.359-0.13,0.543
				c-0.014,0.103-0.028,0.205-0.042,0.308c-0.013,0.098-0.038,0.202-0.04,0.301c-0.001,0.062,0.042,0.109,0.105,0.104
				c0.072-0.005,0.125-0.064,0.171-0.113c0.142-0.151,0.248-0.331,0.353-0.509c-0.031-0.008-0.062-0.017-0.093-0.025
				c0.01,0.233,0.038,0.465,0.084,0.693c0.022,0.11,0.043,0.228,0.084,0.333c0.03,0.075,0.104,0.146,0.191,0.118
				c0.085-0.027,0.118-0.138,0.133-0.216c0.021-0.111,0.025-0.226,0.033-0.339c0.018-0.247,0.027-0.495,0.028-0.743
				c0-0.064-0.1-0.065-0.1,0c-0.001,0.195-0.007,0.39-0.018,0.585c-0.006,0.097-0.012,0.195-0.02,0.292
				c-0.008,0.095-0.008,0.203-0.055,0.288c-0.069,0.125-0.123-0.102-0.135-0.149c-0.023-0.092-0.043-0.184-0.061-0.277
				c-0.036-0.193-0.057-0.389-0.065-0.586c-0.002-0.049-0.067-0.069-0.093-0.025c-0.096,0.164-0.193,0.331-0.322,0.472
				c-0.027,0.03-0.056,0.067-0.09,0.087c-0.009,0.006-0.02,0.011-0.031,0.013c0.002-0.006,0.002-0.012,0.003-0.019
				c-0.005-0.024,0.008-0.063,0.012-0.088c0.014-0.103,0.028-0.205,0.041-0.307c0.027-0.197,0.038-0.405,0.102-0.594
				c0.058-0.172,0.18-0.308,0.341-0.39C66.766,35.735,66.716,35.649,66.658,35.678L66.658,35.678z"/>
		</g>
		<g>
			<path style="fill:#7C4415;" d="M66.998,37.73c0.057,0.091,0.174,0.117,0.271,0.075c0.126-0.055,0.186-0.197,0.225-0.319
				c0.049-0.15,0.067-0.308,0.087-0.464c0.023-0.174,0.046-0.347,0.069-0.521c0.008-0.064-0.092-0.063-0.1,0
				c-0.035,0.26-0.059,0.524-0.109,0.782c-0.022,0.115-0.052,0.237-0.115,0.337c-0.045,0.073-0.177,0.167-0.243,0.06
				C67.05,37.625,66.964,37.675,66.998,37.73L66.998,37.73z"/>
		</g>
		<g>
			<path style="fill:#7C4415;" d="M67.258,37.733c0.046,0.125,0.181,0.169,0.303,0.131c0.132-0.041,0.237-0.146,0.311-0.259
				c0.085-0.128,0.131-0.278,0.166-0.426c0.041-0.171,0.076-0.344,0.114-0.515c0.014-0.063-0.083-0.09-0.096-0.027
				c-0.03,0.137-0.06,0.274-0.09,0.411c-0.028,0.127-0.056,0.256-0.109,0.375c-0.044,0.1-0.105,0.195-0.19,0.266
				c-0.074,0.062-0.26,0.155-0.312,0.016C67.333,37.647,67.236,37.672,67.258,37.733L67.258,37.733z"/>
		</g>
		<g>
			<path style="fill:#7C4415;" d="M67.599,37.831c0.198,0.097,0.392-0.061,0.497-0.22c0.131-0.198,0.202-0.448,0.25-0.678
				c0.051-0.246,0.079-0.51,0.051-0.76c-0.023-0.209-0.11-0.397-0.271-0.535c-0.166-0.142-0.383-0.221-0.602-0.199
				c-0.063,0.006-0.064,0.106,0,0.1c0.347-0.034,0.682,0.204,0.758,0.545c0.047,0.213,0.027,0.451-0.004,0.665
				c-0.031,0.211-0.087,0.419-0.167,0.617c-0.042,0.104-0.096,0.207-0.175,0.288c-0.071,0.073-0.185,0.142-0.287,0.092
				C67.592,37.716,67.541,37.802,67.599,37.831L67.599,37.831z"/>
		</g>
		<g>
			<path style="fill:#7C4415;" d="M66.528,35.891c0.054-0.355,0.345-0.608,0.685-0.685c0.382-0.086,0.77,0.039,1.099,0.23
				c0.056,0.032,0.106-0.054,0.05-0.086c-0.36-0.208-0.782-0.337-1.197-0.236c-0.362,0.089-0.677,0.371-0.734,0.75
				C66.422,35.927,66.519,35.954,66.528,35.891L66.528,35.891z"/>
		</g>
	</g>
	<g>
		<path style="fill:#D92C09;" d="M10.217,75.066c0,0-1.876,2.004-1.833,2.345c0.043,0.341,0.043,0.341,0.043,0.341
			s1.791,0.256,2.388-0.554c0.597-0.81,0.895-1.833,0.895-1.833v1.961h0.256c0,0,0.682-2.814,0.469-3.24
			C12.221,73.659,10.217,75.066,10.217,75.066z"/>
		<path style="fill:#F7A98F;" d="M9.322,76.345c0,0,0.853,0.043,1.322-0.597c0.469-0.64,1.279-1.706,1.791-1.663
			c0,0-0.256-0.341-0.256-0.512c0-0.171,0.512-1.833,0.512-1.833s-1.663-0.299-1.748-0.128c-0.085,0.171-0.597,2.686-0.767,3.24
			C10.004,75.407,9.322,76.345,9.322,76.345z"/>
		<path style="fill:#D92C09;" d="M20.407,64.79c-0.015,0.02-0.033,0.04-0.054,0.058c-0.79,0.696-6.086,0.454-6.086,0.454
			s0.022,0.166,0.033,0.528c0.01,0.347,0.009,0.873-0.033,1.604c-0.085,1.492-1.364,5.756-1.364,5.756
			c-1.194,0.682-2.729,0.043-2.729,0.043s0.164-2.48,0.444-4.914c0.216-1.871,0.501-3.713,0.835-4.381
			c0.086-0.171,1.449-0.939,2.796-1.657c1.328-0.709,2.641-1.37,2.704-1.37C17.082,60.91,20.962,64.023,20.407,64.79z"/>
		<path style="fill:#6D1605;" d="M14.268,65.302c0,0,0.022,0.166,0.033,0.528c-0.274,0.109-0.541,0.325-0.757,0.709
			c-0.767,1.364-2.9,1.876-2.9,1.876l-0.024-0.096c0.216-1.871,0.501-3.713,0.835-4.381c0.086-0.171,1.449-0.939,2.796-1.657
			c1.783,0.588,4.69,1.851,6.104,2.568C19.564,65.544,14.268,65.302,14.268,65.302z"/>
		<path style="fill:#D92C09;" d="M5.25,69.66c0,0-2.613,0.841-2.741,1.16C2.38,71.138,2.38,71.138,2.38,71.138
			s1.441,1.093,2.356,0.675c0.915-0.418,1.673-1.168,1.673-1.168L5.457,72.36l0.224,0.124c0,0,1.963-2.129,1.983-2.605
			C7.685,69.403,5.25,69.66,5.25,69.66z"/>
		<path style="fill:#F7A98F;" d="M3.846,70.343c0,0,0.725,0.451,1.445,0.12c0.721-0.331,1.946-0.87,2.373-0.584
			c0,0-0.058-0.422,0.025-0.571c0.083-0.149,1.338-1.354,1.338-1.354s-1.309-1.068-1.466-0.961c-0.157,0.108-1.826,2.058-2.244,2.46
			C4.898,69.854,3.846,70.343,3.846,70.343z"/>
		<path style="fill:#D92C09;" d="M12.605,60.484c-0.417,0.555-5.799,7.035-5.799,7.206c0,0.171,0.895,1.492,1.663,1.492
			c0,0,4.221-3.24,4.818-4.136c0.597-0.895,0.597-1.279,0.597-1.279s3.88,1.279,4.392,1.407c0.512,0.128,2.132,0.085,2.345-0.085
			c0.213-0.171-0.043-3.539-0.469-4.093C19.725,60.441,12.989,59.972,12.605,60.484z"/>
		<g>
			<path style="fill:#F7931E;" d="M10.759,67.428c0.177-0.136,0.352-0.276,0.525-0.416c0.369-0.298,0.732-0.603,1.084-0.921
				c0.318-0.288,0.646-0.585,0.901-0.932c0.192-0.261,0.346-0.56,0.479-0.855c0.118-0.262,0.216-0.533,0.285-0.812
				c0.047-0.189,0.08-0.382,0.094-0.576c0.006-0.087,0.013-0.179,0.003-0.266c0-0.004-0.001-0.007-0.001-0.011
				c-0.007-0.063-0.107-0.064-0.1,0c0.024,0.217-0.013,0.449-0.056,0.66c-0.123,0.614-0.392,1.197-0.73,1.72
				c-0.095,0.147-0.213,0.279-0.333,0.407c-0.158,0.168-0.325,0.328-0.494,0.484c-0.35,0.322-0.713,0.63-1.081,0.93
				c-0.201,0.164-0.429,0.346-0.622,0.496c0.007-0.006-0.003,0.002-0.005,0.004C10.658,67.38,10.708,67.467,10.759,67.428
				L10.759,67.428z"/>
		</g>
		<g>
			<path style="fill:#F7931E;" d="M17.931,65.256c-0.376-0.037-0.75-0.103-1.119-0.178c-0.701-0.143-1.414-0.332-2.051-0.666
				c-0.314-0.165-0.628-0.374-0.833-0.67c-0.036-0.053-0.123-0.003-0.086,0.05c0.185,0.268,0.451,0.469,0.731,0.63
				c0.32,0.185,0.666,0.323,1.016,0.439c0.626,0.207,1.275,0.345,1.927,0.44c0.139,0.02,0.278,0.04,0.417,0.054
				C17.995,65.362,17.994,65.262,17.931,65.256L17.931,65.256z"/>
		</g>
		<g>
			<path style="fill:#F7931E;" d="M19.724,61.832c0.019,0.197,0.012,0.4-0.01,0.596c-0.038,0.34-0.136,0.718-0.402,0.954
				c-0.187,0.166-0.412,0.193-0.652,0.197c-0.305,0.006-0.61-0.023-0.913-0.057c-0.74-0.083-1.475-0.215-2.208-0.351
				c-0.307-0.057-0.614-0.116-0.922-0.173c-0.181-0.034-0.364-0.073-0.547-0.09c-0.051-0.005-0.086-0.007-0.116,0.039
				c-0.001,0.001,0.009-0.016,0.002-0.007c-0.006,0.009,0.011-0.013,0,0c-0.008,0.01-0.017,0.02-0.025,0.029
				c-0.076,0.085-0.156,0.166-0.236,0.247c-0.328,0.336-0.659,0.668-0.991,1.001c-0.469,0.47-0.938,0.938-1.408,1.406
				c-0.494,0.492-0.989,0.983-1.483,1.474c-0.409,0.406-0.819,0.812-1.229,1.218c-0.214,0.212-0.427,0.423-0.641,0.635
				c-0.01,0.009-0.019,0.019-0.029,0.028c-0.046,0.045,0.025,0.116,0.071,0.071c0.151-0.15,0.302-0.299,0.453-0.449
				c0.375-0.371,0.75-0.742,1.124-1.114c0.487-0.482,0.973-0.965,1.458-1.448c0.486-0.483,0.972-0.967,1.456-1.452
				c0.375-0.374,0.749-0.749,1.12-1.127c0.11-0.111,0.219-0.223,0.327-0.336c0.029-0.03,0.057-0.06,0.085-0.091
				c0.008-0.008,0.015-0.017,0.022-0.026c0.004-0.006,0.009-0.011,0.013-0.017c0.021-0.029-0.003,0.004-0.014,0.013
				c-0.006,0.004-0.01,0.004-0.012,0.004c0.007,0.001,0.016,0,0.023,0c0.024,0.001,0.048,0.004,0.072,0.007
				c0.018,0.002,0.068,0.01,0.101,0.015c0.047,0.008,0.095,0.016,0.142,0.024c0.271,0.048,0.542,0.1,0.812,0.151
				c0.731,0.138,1.463,0.272,2.201,0.372c0.333,0.045,0.668,0.084,1.004,0.099c0.226,0.01,0.47,0.021,0.69-0.041
				c0.329-0.092,0.538-0.395,0.644-0.703c0.102-0.298,0.132-0.622,0.125-0.936c-0.001-0.055-0.003-0.109-0.009-0.164
				C19.818,61.769,19.718,61.768,19.724,61.832L19.724,61.832z"/>
		</g>
		<path style="fill:#DC6501;" d="M16.954,52.532c0,0-1.631,0.48-2.047,0.863c-0.416,0.384-1.791,1.823-1.791,1.823
			s1.311,5.052,1.439,5.052c0.128,0,2.366,0.096,3.454,0.768c1.087,0.672,2.302,1.663,2.526,1.599
			c0.224-0.064-0.384-1.695-0.352-2.047c0.032-0.352,0.176-6.995,0-7.259c-0.256-0.384-1.887-0.863-1.887-0.863L16.954,52.532z"/>
		<path style="fill:#F7A98F;" d="M14.939,59.056l2.015-0.192c0,0,0.352,1.087,0.192,1.759c0,0-2.27-0.192-2.238-0.32
			C14.939,60.175,14.939,59.056,14.939,59.056z"/>
		<path style="fill:#DC6501;" d="M19.928,53.268c-0.639,0.224-1.151,0.831-1.343,2.015c-0.073,0.452,0.48,3.646,0.288,3.454
			c-0.192-0.192-1.823-0.096-1.919,0.128c-0.096,0.224,0.032,1.663,0.192,1.759c0.16,0.096,2.174,0.256,2.654,0.096
			s0.799-0.224,0.927-2.206c0.128-1.983-0.171-4.568-0.192-4.637C20.407,53.459,20.212,53.168,19.928,53.268z"/>
		<path style="fill:#A54C01;" d="M15.067,53.683c0,0,0.16,1.023,0.032,1.183s-0.735,0.64-0.799,1.343
			c-0.064,0.704,0.64,2.846,0.64,2.846s-1.151-0.48-1.247-1.375c-0.096-0.895,0.032-1.951,0.256-2.27
			C14.172,55.09,15.067,53.683,15.067,53.683z"/>
		<g>
			<path style="fill:#FFFFFF;" d="M15.017,53.683c0.041,0.325,0.087,0.656,0.093,0.984c0,0.03,0.001,0.06-0.002,0.09
				c0.001-0.01-0.006,0.021-0.002,0.011c0.001-0.003,0.003-0.004-0.006,0.006c-0.052,0.057-0.106,0.112-0.159,0.169
				c-0.191,0.206-0.368,0.429-0.501,0.678c-0.072,0.134-0.135,0.277-0.168,0.426c-0.027,0.125-0.035,0.253-0.033,0.38
				c0.005,0.271,0.053,0.541,0.116,0.803c0.058,0.242,0.138,0.478,0.207,0.717c0.097,0.339,0.194,0.678,0.29,1.017
				c0.002,0.008,0.005,0.016,0.007,0.024c0.018,0.062,0.114,0.035,0.096-0.027c-0.087-0.304-0.173-0.607-0.26-0.911
				c-0.063-0.222-0.136-0.442-0.197-0.665c-0.138-0.504-0.261-1.083-0.039-1.58c0.121-0.272,0.301-0.514,0.499-0.735
				c0.061-0.068,0.124-0.132,0.186-0.199c0.035-0.038,0.059-0.066,0.064-0.119c0.017-0.174-0.013-0.359-0.03-0.532
				c-0.017-0.17-0.036-0.339-0.057-0.508c-0.001-0.01-0.003-0.021-0.004-0.031C15.109,53.62,15.009,53.62,15.017,53.683
				L15.017,53.683z"/>
		</g>
		<g>
			<path style="fill:#FFFFFF;" d="M15.347,57.399c0.655-0.184,1.359-0.146,1.991,0.103c0.06,0.024,0.086-0.073,0.027-0.096
				c-0.649-0.256-1.374-0.291-2.045-0.103C15.259,57.319,15.285,57.416,15.347,57.399L15.347,57.399z"/>
		</g>
		<g>
			<path style="fill:#FFFFFF;" d="M18.528,55.411c0.023,0.224,0.045,0.448,0.067,0.671c0.046,0.457,0.091,0.913,0.137,1.37
				c0.037,0.367,0.074,0.735,0.11,1.102c0.005,0.051-0.003,0.16,0.041,0.195c0.049,0.039,0.107,0.069,0.159,0.105
				c0.103,0.071,0.204,0.147,0.299,0.23c0.085,0.075,0.181,0.16,0.23,0.265c0.006,0.013,0.025,0.088,0.018,0.086
				c-0.003-0.001,0.014-0.012,0.013-0.012c0.003-0.005,0.006,0.003,0.003-0.001c-0.004-0.005-0.028-0.011-0.035-0.016
				c-0.081-0.047-0.15-0.12-0.215-0.186c-0.062-0.062-0.121-0.127-0.179-0.193c-0.01-0.011-0.02-0.023-0.03-0.035
				c-0.042-0.049-0.112,0.022-0.071,0.071c0.065,0.076,0.132,0.149,0.202,0.219c0.052,0.053,0.106,0.105,0.164,0.152
				c0.041,0.033,0.088,0.072,0.141,0.083c0.154,0.033,0.103-0.175,0.062-0.247c-0.091-0.155-0.244-0.276-0.385-0.384
				c-0.105-0.08-0.213-0.157-0.326-0.226c0.008,0.014,0.017,0.029,0.025,0.043c-0.037-0.372-0.075-0.744-0.112-1.116
				c-0.059-0.59-0.118-1.181-0.177-1.771c-0.014-0.136-0.027-0.272-0.041-0.408C18.622,55.347,18.522,55.347,18.528,55.411
				L18.528,55.411z"/>
		</g>
		<g>
			<path style="fill:#FFFFFF;" d="M16.989,58.899c0.142-0.129,0.316-0.206,0.505-0.238c0.191-0.032,0.386-0.01,0.577,0.006
				c0.185,0.016,0.371,0.034,0.555,0.055c0.094,0.01,0.188,0.021,0.281,0.034c0.064,0.008,0.063-0.092,0-0.1
				c-0.266-0.035-0.533-0.062-0.801-0.086c-0.338-0.029-0.679-0.055-0.988,0.113c-0.073,0.04-0.139,0.09-0.201,0.146
				C16.871,58.872,16.942,58.942,16.989,58.899L16.989,58.899z"/>
		</g>
		<path style="fill:#D92C09;" d="M16.774,47.716c-0.237-0.22-0.024-0.693,0.132-0.894c0.277-0.358,0.934-0.656,1.381-0.507
			c0.703,0.233,0.735,1.078,0.506,1.679c-0.179,0.47-0.74,0.82-1.212,0.53c-0.209-0.128-0.441-0.345-0.604-0.53
			C16.896,47.904,16.866,47.765,16.774,47.716z"/>
		<path style="fill:#D92C09;" d="M14.867,50.157c0,0-0.41-0.571-0.422-1.099c-0.012-0.528,0.588-1.036,1.369-1.435
			c0.781-0.399,2.342,0.458,2.421,0.671c0.079,0.213,0.389,0.991,0.416,1.323c0.027,0.332-0.082,1.045-0.409,1.381
			c-0.327,0.336-0.546,0.491-0.554,0.611c-0.008,0.121-2.79-1.401-2.79-1.401L14.867,50.157z"/>
		<path style="fill:#F7A98F;" d="M16.267,51.863c0,0,0.128,0.896,0.068,0.976c-0.06,0.08-0.292,0.656-0.282,1.027
			s0.179,1.747,0.365,1.749c0.186,0.002,0.362-1.167,0.902-1.787c0.54-0.621,0.952-0.937,1.03-1.091
			c0.078-0.154-0.448-0.136-0.61-0.67c-0.162-0.534-0.341-1.581-0.341-1.581L16.267,51.863z"/>
		<path style="fill:#D9EBF9;" d="M14.324,59.879l-7.646,0.475c-0.046,0.003-0.087-0.028-0.09-0.069l-0.455-5.797
			c-0.003-0.041,0.032-0.077,0.078-0.08l7.646-0.475c0.046-0.003,0.087,0.028,0.09,0.069l0.455,5.797
			C14.405,59.84,14.37,59.876,14.324,59.879z"/>
		<path style="fill:#F7A98F;" d="M6.081,58.037c-0.082-0.261,0.033-0.352,0.028-0.603c-0.005-0.27-0.05-0.582,0.01-0.619
			c0.06-0.038,0.19,0.021,0.233,0.109c0.043,0.087,0.041,0.211,0.051,0.306c0.007,0.064,0.012,0.129,0.018,0.193
			c0.003,0.038,0.028,0.113,0.022,0.142c0.052-0.013,0.106-0.08,0.154-0.111c0.069-0.045,0.145-0.079,0.217-0.117
			c0.113-0.059,0.23-0.111,0.35-0.152c0.073-0.025,0.181-0.061,0.253-0.019c0.048,0.028,0.073,0.091,0.109,0.133
			c0.075,0.086,0.058,0.126,0.062,0.234c0-0.006,0.057,0.03,0.061,0.034c0.024,0.023,0.042,0.055,0.054,0.086
			c0.027,0.072,0.017,0.111-0.029,0.165c-0.034,0.039-0.068,0.081-0.101,0.122c-0.128,0.153-0.255,0.307-0.383,0.461
			c-0.02,0.024-0.04,0.048-0.06,0.072c0,0,0.551-0.587,0.592-0.545c0.04,0.042,0.154,0.058,0.068,0.277
			c-0.086,0.219-1.093,1.331-1.239,1.206C6.405,59.283,6.086,58.056,6.081,58.037z"/>
		<path style="fill:#F7A98F;" d="M14.907,58.976c0,0-0.336-0.879-0.719-1.087c-0.384-0.208-0.975-0.224-0.991-0.032
			c0,0-0.032,0.096,0.032,0.112c0.064,0.016,0.16,0.016,0.592,0.24c0.432,0.224,0.448,0.32,0.448,0.32s-0.959-0.591-1.103-0.48
			c-0.144,0.112-0.048,0.224-0.048,0.224s-0.096,0.112-0.048,0.272c0.048,0.16,0.592,0.416,0.816,0.608
			c0.224,0.192-0.672-0.384-0.783-0.32c-0.112,0.064-0.128,0.128-0.016,0.224c0.112,0.096,0.735,0.688,0.911,0.879
			c0.176,0.192,0.655,0.384,0.895,0.4C15.131,60.351,15.323,59.2,14.907,58.976z"/>
		<path style="fill:#F7A98F;" d="M14.901,49.245c0.065-0.242,0.114,0.173,0.571,0.168c0.457-0.005,0.993-0.568,1.095-0.525
			c0.102,0.043,0.172,0.185,0.209,0.307c0.037,0.122,0.174,0.907,0.332,0.844c0.158-0.063,0.372-0.883,0.571-0.323
			c0.199,0.561-0.042,0.76-0.238,0.893c-0.142,0.097-0.191,0.106-0.191,0.106s0.227,0.587-0.019,0.898
			c-0.246,0.311-0.784,0.829-1.132,0.801c-0.348-0.027-0.783-0.339-0.995-1.088C14.892,50.578,14.727,49.889,14.901,49.245z"/>
		<path style="fill:#FFFFFF;" d="M15.501,51.369c0,0,0.285,0.062,0.855-0.156c0,0,0.121,0.496-0.378,0.558
			C15.664,51.811,15.501,51.369,15.501,51.369z"/>
		<g>
			<path style="fill:#7C4415;" d="M16.493,52.376c0.281-0.194,0.577-0.389,0.717-0.714c0.153-0.356,0.093-0.775,0.084-1.151
				c-0.002-0.064-0.102-0.065-0.1,0c0.005,0.191,0.017,0.383,0.015,0.574c-0.002,0.177-0.016,0.359-0.084,0.524
				c-0.127,0.312-0.416,0.498-0.682,0.681C16.39,52.326,16.44,52.412,16.493,52.376L16.493,52.376z"/>
		</g>
		<g>
			<path style="fill:#7C4415;" d="M15.477,50.886c-0.031,0.109,0.023,0.237,0.126,0.287c0.024,0.011,0.055,0.007,0.068-0.018
				c0.012-0.022,0.007-0.056-0.018-0.069c-0.009-0.005-0.018-0.01-0.027-0.016c-0.009-0.006,0.008,0.007,0,0
				c-0.002-0.002-0.004-0.003-0.006-0.005c-0.004-0.003-0.008-0.007-0.011-0.011s-0.007-0.008-0.01-0.012
				c-0.004-0.005,0.006,0.009,0.001,0.001c-0.002-0.002-0.003-0.004-0.004-0.007c-0.006-0.009-0.011-0.019-0.016-0.029
				c-0.004-0.008,0.003,0.008,0.001,0.002c-0.001-0.003-0.002-0.005-0.003-0.007c-0.002-0.005-0.003-0.01-0.005-0.015
				c-0.001-0.005-0.003-0.01-0.003-0.015c0-0.001-0.002-0.012-0.001-0.003c0.001,0.009,0-0.001,0-0.003
				c-0.001-0.011-0.001-0.022,0-0.033c0-0.006,0.003-0.007,0,0.002c0.001-0.002,0.001-0.005,0.001-0.008
				c0.001-0.006,0.002-0.011,0.004-0.017c0.007-0.025-0.009-0.056-0.035-0.062C15.512,50.845,15.485,50.859,15.477,50.886
				L15.477,50.886z"/>
		</g>
		<g>
			<path style="fill:#FFFFFF;" d="M16.68,47.573c0.331,0.067,0.637,0.18,0.92,0.366c0.131,0.086,0.259,0.177,0.386,0.269
				c0.122,0.089,0.239,0.187,0.316,0.319c0.032,0.056,0.119,0.005,0.086-0.05c-0.076-0.129-0.185-0.229-0.303-0.319
				c-0.135-0.102-0.275-0.199-0.416-0.293c-0.295-0.196-0.615-0.319-0.962-0.388C16.643,47.464,16.616,47.56,16.68,47.573
				L16.68,47.573z"/>
		</g>
		<g>
			<path style="fill:#FFFFFF;" d="M16.918,47.564c0.142-0.311,0.379-0.568,0.666-0.752c0.295-0.189,0.707-0.365,1.052-0.209
				c0.058,0.026,0.109-0.06,0.051-0.086c-0.37-0.167-0.795-0.011-1.12,0.189c-0.315,0.193-0.58,0.47-0.735,0.808
				C16.805,47.572,16.891,47.623,16.918,47.564L16.918,47.564z"/>
		</g>
		<g>
			<path style="fill:#FFFFFF;" d="M17.131,47.655c0.136-0.275,0.396-0.451,0.649-0.609c0.148-0.092,0.298-0.182,0.453-0.26
				c0.152-0.077,0.321-0.142,0.493-0.113c0.063,0.011,0.09-0.086,0.027-0.097c-0.175-0.029-0.34,0.016-0.499,0.089
				c-0.175,0.08-0.341,0.181-0.504,0.282c-0.274,0.17-0.558,0.361-0.705,0.658C17.016,47.662,17.102,47.713,17.131,47.655
				L17.131,47.655z"/>
		</g>
		<g>
			<path style="fill:#FFFFFF;" d="M17.724,47.976c0.093-0.115,0.21-0.209,0.337-0.283c0.062-0.036,0.127-0.068,0.195-0.089
				c0.064-0.02,0.142-0.037,0.204,0c0.138,0.082,0.068,0.272,0.002,0.375c-0.073,0.113-0.169,0.232-0.294,0.289
				c-0.059,0.027-0.008,0.113,0.051,0.086c0.118-0.054,0.21-0.158,0.285-0.261c0.081-0.109,0.153-0.24,0.131-0.381
				c-0.019-0.126-0.114-0.221-0.243-0.229c-0.132-0.009-0.27,0.059-0.381,0.124c-0.134,0.078-0.26,0.178-0.358,0.299
				C17.613,47.955,17.684,48.026,17.724,47.976L17.724,47.976z"/>
		</g>
		<g>
			<path style="fill:#FFFFFF;" d="M16.595,48.882c0.054-0.251,0.178-0.482,0.361-0.663c0.175-0.173,0.456-0.348,0.708-0.235
				c0.058,0.026,0.109-0.06,0.05-0.086c-0.28-0.126-0.581,0.023-0.79,0.214c-0.215,0.196-0.364,0.46-0.425,0.744
				C16.485,48.918,16.582,48.945,16.595,48.882L16.595,48.882z"/>
		</g>
		<g>
			<path style="fill:#FFFFFF;" d="M14.94,49.119c-0.119-0.151-0.1-0.364-0.019-0.527c0.081-0.163,0.21-0.3,0.344-0.421
				c0.264-0.238,0.586-0.411,0.928-0.505c0.196-0.053,0.397-0.08,0.601-0.079c0.064,0,0.065-0.1,0-0.1
				c-0.394-0.001-0.784,0.098-1.131,0.284c-0.174,0.093-0.337,0.209-0.483,0.343c-0.146,0.135-0.288,0.291-0.367,0.475
				c-0.084,0.198-0.08,0.427,0.056,0.601C14.909,49.24,14.98,49.169,14.94,49.119L14.94,49.119z"/>
		</g>
		<g>
			<path style="fill:#001C31;" d="M15.971,50.189c0.133-0.15,0.366-0.195,0.544-0.1c0.057,0.03,0.107-0.056,0.05-0.086
				c-0.216-0.115-0.502-0.068-0.665,0.116C15.858,50.166,15.929,50.237,15.971,50.189L15.971,50.189z"/>
		</g>
		<g>
			<path style="fill:#001C31;" d="M15.938,49.724c0.141-0.153,0.369-0.205,0.563-0.13c0.025,0.01,0.055-0.011,0.062-0.035
				c0.008-0.028-0.01-0.052-0.035-0.062c-0.225-0.086-0.497-0.021-0.66,0.156C15.823,49.701,15.894,49.772,15.938,49.724
				L15.938,49.724z"/>
		</g>
		<g>
			<path style="fill:#001C31;" d="M14.995,50.324c0.012-0.01,0.017-0.015,0.033-0.024c0.014-0.008,0.026-0.014,0.036-0.018
				c0.033-0.012,0.056-0.016,0.087-0.017c0.034-0.001,0.053,0.002,0.085,0.012c0.024,0.008,0.055,0.024,0.074,0.04
				c0.021,0.017,0.05,0.02,0.071,0c0.018-0.018,0.021-0.053,0-0.071c-0.13-0.11-0.33-0.108-0.457,0.007
				c-0.02,0.018-0.018,0.052,0,0.071C14.945,50.344,14.975,50.343,14.995,50.324L14.995,50.324z"/>
		</g>
		<g>
			<path style="fill:#001C31;" d="M14.955,49.85c0.035-0.041,0.081-0.062,0.133-0.061c0.031,0.001,0.062,0.008,0.092,0.015
				c0.035,0.008,0.07,0.016,0.106,0.024c0.026,0.006,0.054-0.008,0.061-0.035c0.007-0.025-0.009-0.055-0.035-0.062
				c-0.039-0.009-0.077-0.018-0.116-0.027c-0.04-0.009-0.081-0.018-0.122-0.017c-0.072,0.003-0.142,0.036-0.19,0.09
				c-0.018,0.02-0.02,0.051,0,0.071C14.902,49.868,14.937,49.871,14.955,49.85L14.955,49.85z"/>
		</g>
		<path style="fill:#001C31;" d="M16.414,50.144c0.028,0.094-0.025,0.193-0.119,0.221c-0.094,0.028-0.193-0.025-0.221-0.118
			c-0.028-0.094,0.025-0.193,0.118-0.221C16.287,49.997,16.386,50.05,16.414,50.144z"/>
		<path style="fill:#001C31;" d="M15.37,50.326c0.028,0.094-0.025,0.193-0.118,0.221c-0.094,0.028-0.193-0.025-0.221-0.118
			c-0.029-0.094,0.024-0.193,0.118-0.221C15.243,50.179,15.342,50.232,15.37,50.326z"/>
		<g>
			<path style="fill:#FFFFFF;" d="M17.132,60.671c0.335,0.05,0.671,0.088,1.008,0.12c0.286,0.027,0.573,0.048,0.861,0.057
				c0.256,0.008,0.515,0.009,0.77-0.025c0.156-0.021,0.391-0.053,0.461-0.219c0.025-0.059-0.072-0.085-0.096-0.027
				c-0.003,0.008-0.02,0.029-0.04,0.045c-0.013,0.01-0.048,0.029-0.071,0.039c-0.079,0.033-0.166,0.049-0.25,0.061
				c-0.24,0.035-0.487,0.033-0.729,0.027c-0.517-0.014-1.033-0.065-1.546-0.13c-0.115-0.014-0.225-0.029-0.339-0.046
				C17.096,60.565,17.069,60.661,17.132,60.671L17.132,60.671z"/>
		</g>
		<g>
			<path style="fill:#7C4415;" d="M14.82,58.899c0.04,0.137,0.101,0.266,0.145,0.402c0.039,0.121-0.023,0.248-0.061,0.362
				c-0.02,0.061,0.076,0.088,0.096,0.027c0.041-0.124,0.099-0.257,0.068-0.391c-0.017-0.069-0.049-0.137-0.074-0.203
				c-0.028-0.074-0.055-0.148-0.077-0.223C14.899,58.811,14.802,58.837,14.82,58.899L14.82,58.899z"/>
		</g>
		<g>
			<path style="fill:#7C4415;" d="M13.114,58.407c-0.018-0.055,0.053-0.072,0.093-0.068c0.051,0.005,0.101,0.025,0.149,0.041
				c0.108,0.036,0.214,0.077,0.314,0.13c0.182,0.095,0.343,0.227,0.445,0.408c0.031,0.056,0.118,0.006,0.086-0.051
				c-0.133-0.236-0.36-0.397-0.605-0.502c-0.064-0.028-0.129-0.053-0.195-0.075c-0.064-0.022-0.129-0.047-0.197-0.052
				c-0.106-0.007-0.224,0.079-0.187,0.195C13.037,58.495,13.134,58.468,13.114,58.407L13.114,58.407z"/>
		</g>
		<g>
			<path style="fill:#7C4415;" d="M7.848,58.009c-0.053-0.067-0.137-0.134-0.225-0.086c-0.04,0.022-0.076,0.06-0.11,0.09
				c-0.039,0.033-0.078,0.067-0.116,0.1c-0.151,0.133-0.293,0.276-0.412,0.439c-0.038,0.052,0.049,0.102,0.086,0.05
				c0.099-0.137,0.219-0.259,0.344-0.372c0.062-0.056,0.125-0.111,0.189-0.165c0.023-0.019,0.058-0.064,0.091-0.058
				c0.034,0.006,0.063,0.047,0.082,0.072C7.817,58.13,7.888,58.059,7.848,58.009L7.848,58.009z"/>
		</g>
		<g>
			<path style="fill:#7C4415;" d="M6.874,58.301c0.106-0.128,0.215-0.253,0.327-0.376c0.058-0.063,0.116-0.126,0.176-0.188
				c0.048-0.05,0.101-0.126,0.168-0.15c0.043-0.015,0.084,0.001,0.103,0.042c0.025,0.055,0,0.116-0.027,0.165
				c-0.072,0.129-0.184,0.229-0.277,0.342c-0.041,0.049,0.03,0.12,0.071,0.071c0.086-0.104,0.185-0.197,0.26-0.309
				c0.064-0.095,0.118-0.218,0.055-0.327c-0.054-0.095-0.17-0.111-0.26-0.058c-0.062,0.036-0.109,0.097-0.158,0.148
				c-0.054,0.056-0.107,0.113-0.16,0.17c-0.12,0.13-0.236,0.263-0.349,0.399C6.762,58.279,6.832,58.351,6.874,58.301L6.874,58.301z"
				/>
		</g>
		<g>
			<path style="fill:#7C4415;" d="M6.768,57.88c0.139-0.145,0.292-0.277,0.447-0.404c0.037-0.03,0.074-0.06,0.111-0.09
				c0.032-0.026,0.072-0.07,0.117-0.066c0.097,0.009,0.134,0.131,0.095,0.208c-0.029,0.057,0.057,0.108,0.086,0.05
				c0.051-0.1,0.037-0.224-0.049-0.3c-0.043-0.037-0.098-0.063-0.156-0.058c-0.055,0.005-0.097,0.041-0.139,0.075
				c-0.202,0.163-0.403,0.327-0.583,0.514C6.652,57.856,6.723,57.926,6.768,57.88L6.768,57.88z"/>
		</g>
	</g>
</g>
</svg>
